<?xml version="1.0" encoding="utf-8"?>
<!-- Generator: Adobe Illustrator 27.2.0, SVG Export Plug-In . SVG Version: 6.00 Build 0)  -->
<svg version="1.1" id="圖層_1" xmlns="http://www.w3.org/2000/svg" xmlns:xlink="http://www.w3.org/1999/xlink" x="0px" y="0px"
	 viewBox="0 0 402.3 134.5" style="enable-background:new 0 0 402.3 134.5;" xml:space="preserve">
<style type="text/css">
	.st0{fill:#231815;}
	.st1{font-family:'LobsterTwo-Italic';}
	.st2{font-size:46.1778px;}
	.st3{font-family:'NotoSerifTC-Medium-83pv-RKSJ-H';}
	.st4{font-size:45px;}
	.st5{fill-rule:evenodd;clip-rule:evenodd;fill:#FFFFFF;}
	.st6{fill-rule:evenodd;clip-rule:evenodd;}
	.st7{fill:#F2755F;}
	.st8{fill-rule:evenodd;clip-rule:evenodd;fill:#FFB88A;}
	.st9{fill-rule:evenodd;clip-rule:evenodd;fill:#231815;stroke:#231815;stroke-miterlimit:10;}
	.st10{fill:none;stroke:#231815;stroke-width:2;stroke-linecap:round;stroke-linejoin:round;}
</style>
<g>
	<text transform="matrix(1 0 0 1 159.5707 108.0414)" class="st0 st1 st2">M-Learning</text>
	<text transform="matrix(1 0 0 1 109.0301 52.6549)" class="st0 st3 st4">我的 學習歷程</text>
</g>
<g>
	<path class="st5" d="M81.5,86c-1-1.1-1.2-1.4-1.3-2.3c-0.1-0.4,0-0.7,0.2-1.5c0.4-1.3,0.5-2.3,0.5-3.8c0-5.2-2.9-11.3-6.8-14.6
		c-1.1-0.9-1.8-1.4-2.4-1.5c-0.6-0.1-1.3-0.9-1.3-1.4s0.3-0.8,0.9-0.8c0.4,0,0.5-0.1,0.9-0.4c1.1-1,2.5-3.2,3.6-5.5
		c2-4.1,3.2-8.7,3.6-14.3c0.1-1.9,0.1-7.3-0.1-9.1c-0.5-4.5-1.5-8.1-3.1-11.2c-1.5-3.1-3.1-5-5.1-6.4c-1.4-0.9-2.7-1.3-4.3-1.3
		c-3.8,0-7.6,3.1-10.1,8.4c-2.2,4.5-3.6,9.8-4,15.5c-0.1,2-0.1,7.2,0.2,9.1c0.2,1.7,0.5,3.7,1,5.6c0.4,1.6,1.4,4.8,1.9,5.7
		c0.2,0.4,0.2,0.5,0.1,0.7c-0.2,0.3-0.4,0.3-0.8-0.1c-0.6-0.5-1.4-0.9-2.5-1.1c-1.3-0.3-3.9-0.4-5.4-0.2c-1.5,0.2-2.1,0.5-2.8,1.3
		c-0.3,0.3-0.7,0.6-0.7,0.6c-0.2,0-0.6-0.4-0.6-0.7c0-0.1,0.1-0.5,0.3-0.9c1.1-2.6,2-6.3,2.5-9.4c0.6-3.8,0.6-9.3,0.1-13.3
		c-0.6-4.4-1.9-9-3.5-12.5c-2.2-4.7-5.3-7.7-8.7-8.5c-1-0.3-2.5-0.2-3.5,0c-2,0.5-3.9,1.9-5.5,4c-2.3,3-4.1,7.5-4.9,12.7
		c-0.9,5.6-0.7,12.2,0.5,17.8c1.1,4.9,3.3,9.7,5.9,12.7c0.7,0.9,0.8,0.9,1.5,1c0.5,0.1,0.8,0.4,0.8,0.8c0,0.4-0.5,0.9-1.3,1.3
		c-1.1,0.5-1.9,1.1-3,2.1c-2.7,2.6-4.7,6.1-5.7,9.8c-0.8,3.1-0.8,5.8,0,8.1c0.5,1.6,0.3,2.3-1,3.8c-2.7,2.9-4.2,5.8-5,9.4
		c-0.2,0.9-0.2,1.3-0.2,3.3c0,2,0,2.4,0.2,3.3c1.1,5.2,4.4,9.7,9.3,12.6c2.5,1.5,5.1,2.5,8.2,3.1c1.2,0.2,3.3,0.9,5.7,1.9
		c2.2,0.9,7.3,1.8,11.6,2.1c5.3,0.4,10.3,0.1,14.3-0.9c1.7-0.4,3.5-1,4.1-1.4c0.9-0.5,2.3-1.1,5.7-2.4c2.4-0.9,3-1.1,4.4-1.8
		c5.8-3,9.8-8,10.8-13.8c0.2-1.2,0.2-4.3,0-5.4C85.9,92.1,84.4,89.2,81.5,86L81.5,86z"/>
	<path class="st5" d="M16,78.6c0-1.5,0-2.1,0.2-3.1c1-5.5,4.2-10.9,8.3-13.8c0.4-0.3,0.8-0.6,0.8-0.7c0,0-0.3-0.4-0.6-0.8
		c-3.1-3.8-5.3-9.6-6.4-16.3c-1.2-7.1-0.7-14.5,1.3-20.8c2.2-6.8,6.1-11.3,10.5-12.3c0.9-0.2,3.1-0.1,4,0.2c1.8,0.5,3.5,1.6,5.2,3.2
		c3.5,3.5,6.1,8.8,7.5,15.1c1.1,5,1.3,10.8,0.7,15.2c-0.5,3.9-1.1,6.3-2.1,8.9c-0.2,0.6-0.4,1.1-0.4,1.1c0,0,0.5-0.1,1.1-0.2
		c2.1-0.5,4.8-0.4,6.9,0.2c0.4,0.1,0.8,0.2,0.9,0.2c0.1,0,0-0.3-0.3-1c-1.8-4.2-2.8-11-2.6-16.3c0.4-6.9,1.7-12.5,4.1-17.2
		c2.6-4.9,5.9-8.2,9.4-9.3c1.1-0.3,2.9-0.4,4-0.2C75.3,12.2,80.3,21.5,81,34c0.2,3.3-0.1,7.4-0.8,11.1c-1.2,6.2-3.3,11.5-6.1,15.1
		c-0.3,0.4-0.6,0.7-0.6,0.8s0.3,0.3,0.7,0.6c2.1,1.6,3.8,3.5,5.3,6c3.1,5.2,4,11.3,2.4,15.5l-0.2,0.6l0.8,0.8c2.6,2.6,4.6,6,5.4,9.5
		c2.3,9-2.4,18.3-11.5,22.9c-1.3,0.7-2.2,1-3.9,1.6c-0.7,0.2-1.5,0.5-1.8,0.7c-0.3,0.2-1,0.4-1.5,0.6c-0.5,0.2-1.5,0.6-2.2,1
		c-0.7,0.3-1.7,0.8-2.2,1c-4.2,1.5-10.4,2.2-16.3,1.9c-5.5-0.3-10.8-1.3-15.3-2.7c-0.8-0.2-2-0.6-2.8-0.8c-0.8-0.2-1.7-0.5-2.2-0.7
		c-0.5-0.2-1.5-0.5-2.3-0.8c-6.3-2.2-11-6-13.6-11.2C9.5,102,9.4,96,12,90.5c1.1-2.2,2.3-4,4-5.7l0.9-0.9l-0.3-1"/>
	<path class="st6" d="M30.1,10.9c-4.4,0.9-8.3,5.5-10.5,12.3c-2,6.3-2.5,13.7-1.3,20.8c1.1,6.8,3.4,12.5,6.4,16.3
		c0.3,0.4,0.6,0.7,0.6,0.8c0,0-0.4,0.3-0.8,0.7c-4.1,3-7.3,8.3-8.3,13.8c-0.2,1-0.2,1.6-0.2,3.1c0,2.1,0.1,2.8,0.6,4.3l0.3,1
		L16,84.8c-1.7,1.7-2.9,3.5-4,5.7C9.4,96,9.5,102,12.2,107.4c2.7,5.2,7.4,9.1,13.6,11.2c0.8,0.3,1.8,0.7,2.3,0.8
		c0.4,0.2,1.4,0.5,2.2,0.7c0.8,0.2,2,0.6,2.8,0.8c4.6,1.5,9.8,2.4,15.3,2.7c6,0.4,12.2-0.4,16.3-1.9c0.5-0.2,1.5-0.6,2.2-1
		s1.7-0.8,2.2-1c0.5-0.2,1.2-0.5,1.5-0.6c0.3-0.2,1.1-0.5,1.8-0.7c1.8-0.6,2.6-0.9,3.9-1.6C85.7,112.3,90.3,103,88,94
		c-0.9-3.5-2.8-6.9-5.4-9.5l-0.8-0.8l0.2-0.6c1.6-4.2,0.6-10.3-2.4-15.5c-1.5-2.5-3.2-4.4-5.3-6c-0.4-0.3-0.7-0.6-0.7-0.6
		s0.2-0.4,0.6-0.8c2.8-3.5,5-8.8,6.1-15.1c0.7-3.7,1-7.8,0.8-11.1c-0.7-12.5-5.7-21.7-12.4-23.1c-1.1-0.2-2.9-0.1-4,0.2
		c-3.5,1-6.9,4.4-9.4,9.3C52.7,25,51.4,30.6,51,37.5c-0.3,5.2,0.8,12.1,2.6,16.3c0.3,0.7,0.4,1,0.3,1c0,0-0.4-0.1-0.9-0.2
		c-2.1-0.6-4.9-0.7-6.9-0.2c-0.6,0.1-1.1,0.2-1.1,0.2c0,0,0.1-0.5,0.4-1.1c1-2.7,1.6-5.1,2.1-8.9c0.6-4.4,0.3-10.2-0.7-15.2
		c-1.3-6.3-3.9-11.6-7.5-15.1c-1.6-1.6-3.4-2.7-5.2-3.2C33.2,10.8,31,10.7,30.1,10.9L30.1,10.9z M33.5,12.1c3.4,0.9,6.5,3.9,8.7,8.5
		c1.7,3.5,3,8.1,3.5,12.5c0.5,4,0.5,9.5-0.1,13.3c-0.5,3.1-1.4,6.7-2.5,9.4c-0.2,0.4-0.3,0.8-0.3,0.9c0,0.3,0.4,0.7,0.6,0.7
		c0.1,0,0.4-0.3,0.7-0.6c0.7-0.7,1.4-1,2.8-1.3c1.5-0.2,4.1-0.1,5.4,0.2c1.1,0.3,2,0.7,2.5,1.1c0.5,0.4,0.6,0.4,0.8,0.1
		c0.1-0.2,0.1-0.3-0.1-0.7c-0.4-0.9-1.5-4.2-1.9-5.7c-0.5-2-0.8-3.9-1-5.6c-0.2-1.9-0.3-7.2-0.2-9.1c0.4-5.7,1.8-11,4-15.5
		c2.6-5.3,6.3-8.4,10.1-8.4c1.6,0,2.9,0.4,4.3,1.3c2.1,1.4,3.6,3.3,5.1,6.4c1.6,3.2,2.5,6.8,3.1,11.2c0.2,1.7,0.3,7.2,0.1,9.1
		c-0.4,5.6-1.6,10.1-3.6,14.3c-1.1,2.3-2.6,4.5-3.6,5.5C71.9,60,71.8,60,71.4,60c-0.6,0-0.9,0.3-0.9,0.8s0.7,1.3,1.3,1.4
		c0.6,0.1,1.3,0.6,2.4,1.5C78,67,80.9,73.2,81,78.3c0,1.6-0.1,2.5-0.5,3.8c-0.3,0.8-0.3,1.1-0.2,1.5c0.1,0.8,0.3,1.1,1.3,2.3
		c2.9,3.2,4.4,6.2,5.1,10.1c0.2,1.1,0.2,4.2,0,5.4c-1.1,5.9-5,10.9-10.8,13.8c-1.4,0.7-2.1,1-4.4,1.8c-3.4,1.2-4.8,1.8-5.7,2.4
		c-0.7,0.4-2.4,1-4.1,1.4c-4,0.9-9.1,1.2-14.3,0.9c-4.3-0.3-9.4-1.2-11.6-2.1c-2.4-0.9-4.6-1.6-5.7-1.9c-3.1-0.7-5.7-1.6-8.2-3.1
		c-4.9-2.9-8.2-7.4-9.3-12.6c-0.2-0.9-0.2-1.3-0.2-3.3c0-2,0-2.4,0.2-3.3c0.8-3.6,2.3-6.5,5-9.4c1.4-1.5,1.6-2.2,1-3.8
		c-0.8-2.3-0.8-5,0-8.1c1-3.7,3-7.2,5.7-9.8c1.1-1,1.9-1.6,3-2.1c0.8-0.4,1.3-0.9,1.3-1.3c0-0.4-0.4-0.7-0.8-0.8
		c-0.6-0.1-0.7-0.2-1.5-1c-2.6-3-4.8-7.8-5.9-12.7c-1.2-5.5-1.4-12.1-0.5-17.8c0.8-5.2,2.6-9.7,4.9-12.7c1.6-2.1,3.5-3.5,5.5-4
		C31.1,11.8,32.6,11.8,33.5,12.1L33.5,12.1z"/>
	<path class="st6" d="M47.5,95.4c-0.9,0.1-1.4,0.2-2.1,0.6c-1.2,0.6-2,1.8-1.8,2.8c0.3,1.5,1.9,2.7,4.4,3c0.7,0.1,0.8,0.1,0.8,0.3
		c0.1,0.5-0.2,1.2-0.6,1.8c-0.9,1.3-3,2.3-5.4,2.7c-1.4,0.2-3.3,0.1-4.4-0.2c-1.8-0.5-2.9-1.4-3.3-2.5c-0.2-0.5-0.2-0.5-0.5-0.5
		s-0.3,0-0.3,0.4c0,0.3,0,0.6,0.3,1c0.6,1.1,1.8,2.1,3.3,2.6c3.7,1.2,8.2,0.2,10.5-2.4c0.3-0.4,0.6-0.7,0.7-0.7c0,0,0.2,0.2,0.4,0.5
		c1.5,2.3,5.3,3.8,8.7,3.5c2-0.2,3.5-0.8,4.5-1.7c1.1-0.9,1.8-2.6,1.2-2.9c-0.3-0.1-0.4,0-0.6,0.6c-0.4,1-0.9,1.5-2.1,2.1
		c-2.8,1.3-7,0.9-9.6-0.9c-1.3-0.9-1.9-1.8-1.9-3c0-0.8-0.2-0.7,1.2-1c1.9-0.4,3.2-1.7,3.1-3.1c-0.1-0.7-0.3-1.1-0.9-1.7
		c-0.9-0.8-1.8-1.2-3.4-1.5C48.6,95.3,48.5,95.3,47.5,95.4L47.5,95.4z M48.4,95.9c0.4,0.2,0.4,0.4,0.2,0.7c-0.2,0.2-0.7,0.5-0.9,0.5
		c-0.2,0-0.3-0.4-0.3-0.6C47.4,95.9,47.8,95.6,48.4,95.9z M46.9,96.5c0.3,0.2,0.2,0.4-0.4,0.7c-1.1,0.6-1.5,1.1-1.5,1.8
		c0,0.4-0.2,0.7-0.5,0.7c-0.1,0-0.2-0.2-0.3-0.4c-0.2-0.3-0.2-0.4-0.1-0.9c0.2-0.9,0.8-1.6,1.6-1.9C46.2,96.4,46.7,96.4,46.9,96.5
		L46.9,96.5z"/>
	<g>
		<path class="st6" d="M22,95.6c-0.8,0.1-1.1,0.2-2.2,0.7c-1.8,0.8-2.7,1.4-3.9,2.5c-1.1,1.2-1.8,2.8-1.8,4.1c0,1.1,0.6,2.4,1.4,3.2
			c1.3,1.4,3.1,2,5.6,2c4.6,0,8.8-2.8,9.6-6.3c0.2-0.8,0.1-2.1-0.2-2.8c-0.6-1.6-2.1-2.8-4.2-3.3C25.3,95.5,23.1,95.4,22,95.6
			L22,95.6z M25.7,96.8c1.5,0.3,3.1,1.4,3.6,2.4c0.9,2-0.1,4.4-2.6,6.1c-0.7,0.5-2.2,1.1-3.2,1.4c-0.8,0.2-1.1,0.2-2.4,0.3
			c-1.2,0-1.5,0-2.2-0.2c-1.6-0.4-2.7-1.3-3.2-2.4c-1-2,0.1-4.5,2.8-6.3c1-0.7,1.5-0.9,2.7-1.1c0.6-0.1,1.1-0.2,1.2-0.3
			C22.9,96.7,25,96.7,25.7,96.8L25.7,96.8z"/>
		<ellipse transform="matrix(0.9663 -0.2575 0.2575 0.9663 -25.476 9.2154)" class="st7" cx="22.5" cy="101.9" rx="7.7" ry="5.2"/>
	</g>
	<g>
		<path class="st6" d="M72.4,96.7c-2.1,0.6-3.6,1.8-4.2,3.3c-0.3,0.7-0.4,2-0.2,2.8c0.8,3.5,5,6.3,9.6,6.3c2.4,0,4.2-0.7,5.6-2
			c0.8-0.8,1.4-2.1,1.4-3.2c0-1.4-0.7-2.9-1.8-4.1c-1.1-1.2-2-1.8-3.9-2.5c-1.1-0.5-1.4-0.6-2.2-0.7C75.6,96.4,73.4,96.4,72.4,96.7
			L72.4,96.7z M76.3,97.7c0.1,0,0.6,0.1,1.2,0.3c1.2,0.3,1.7,0.5,2.7,1.1c2.7,1.8,3.9,4.3,2.8,6.3c-0.5,1.1-1.7,1.9-3.2,2.4
			c-0.6,0.2-1,0.2-2.2,0.2c-1.2,0-1.6,0-2.4-0.3c-1-0.3-2.4-0.9-3.2-1.4c-2.5-1.7-3.6-4.2-2.6-6.1c0.5-1.1,2-2.1,3.6-2.4
			C73.7,97.7,75.9,97.6,76.3,97.7L76.3,97.7z"/>
		
			<ellipse transform="matrix(0.2575 -0.9663 0.9663 0.2575 -42.7495 150.0812)" class="st7" cx="76.3" cy="102.9" rx="5.2" ry="7.7"/>
	</g>
	<g>
		<path class="st8" d="M66.1,17.7c-1.1,0.1-2.3,1.6-2.9,2.3c-0.4,0.5-1,1.3-1.7,3.2c-0.8,2.1-1.2,3.9-1.5,5.4
			c-0.6,3.2-0.7,5.8-0.7,6.8c-0.2,6.2-0.3,10.3,1.5,15.2c1.1,2.8,2.3,6.2,4.3,6.3c3.3,0.3,6.5-8,7.3-9.9c1-2.5,2.3-6.2,2.2-11.2
			C74.5,26.4,69.1,17.3,66.1,17.7L66.1,17.7z"/>
		<path class="st9" d="M65.3,17c-3.6,1-6.4,7.4-7.1,16.2c-0.1,1.7-0.1,5.9,0,7.6c0.4,5,1.4,9.4,2.9,12.6c0.7,1.4,1.1,2.1,2,3.1
			c0.4,0.4,0.7,0.9,0.8,1c0.2,0.3,0.6,0.5,1.1,0.5c0.7,0,3-1.7,4.3-3.2c3.1-3.6,4.9-8.3,5.7-14.6c0.2-1.3,0.2-6.1,0-7.5
			c-0.8-6.6-3.1-11.8-6.7-14.8C67.1,16.9,66.5,16.7,65.3,17L65.3,17z M66.9,17.9c0.6,0.3,1.2,1,1.9,1.8c2.6,3.1,4.3,7.3,5,12.6
			c0.2,1.7,0.2,6.7,0,8.5c-0.6,4.5-2,8.5-4.1,11.6c-1.1,1.7-2.8,3.4-4.2,4.2l-0.4,0.2l-0.6-0.6c-5.2-5.2-7-22-3.4-32.3
			c0.1-0.4,0.6-1.9,1.6-3.5c0,0,1.1-1.6,2.9-2.6C65.8,17.8,66.2,17.4,66.9,17.9L66.9,17.9z"/>
	</g>
	<g>
		<path class="st8" d="M32.6,17.9c1.1,0.1,2.3,1.6,2.9,2.3c0.4,0.5,1,1.3,1.7,3.2c0.8,2.1,1.2,3.9,1.5,5.4c0.6,3.2,0.7,5.8,0.7,6.8
			c0.2,6.2,0.3,10.3-1.5,15.2c-1.1,2.8-2.3,6.2-4.3,6.3c-3.3,0.3-6.5-8-7.3-9.9c-1-2.5-2.3-6.2-2.2-11.2
			C24.1,26.6,29.5,17.5,32.6,17.9L32.6,17.9z"/>
		<path class="st9" d="M30.3,18.2c-3.5,3-5.9,8.2-6.7,14.8c-0.2,1.4-0.2,6.2,0,7.5c0.8,6.3,2.6,11,5.7,14.6c1.3,1.5,3.6,3.2,4.3,3.2
			c0.5,0,0.9-0.2,1.1-0.5c0.1-0.1,0.4-0.6,0.8-1c0.8-1,1.3-1.8,2-3.1c1.5-3.2,2.5-7.6,2.9-12.6c0.1-1.7,0.1-5.9,0-7.6
			c-0.7-8.8-3.5-15.2-7.1-16.2C32.1,17,31.5,17.1,30.3,18.2L30.3,18.2z M33,18.1c1.8,0.9,2.9,2.6,2.9,2.6c1,1.6,1.5,3.1,1.6,3.5
			c3.6,10.4,1.8,27.2-3.4,32.3l-0.6,0.6l-0.4-0.2c-1.4-0.8-3-2.5-4.2-4.2c-2.1-3.1-3.5-7.1-4.1-11.6c-0.2-1.8-0.2-6.8,0-8.5
			c0.8-5.3,2.4-9.5,5-12.6c0.7-0.8,1.4-1.5,1.9-1.8C32.5,17.7,32.8,18,33,18.1L33,18.1z"/>
	</g>
	<g>
		<line class="st10" x1="28.6" y1="80.6" x2="41" y2="85.2"/>
		<line class="st10" x1="29" y1="92.1" x2="40.5" y2="85.5"/>
	</g>
	<g>
		<line class="st10" x1="70" y1="80.7" x2="57.6" y2="85.4"/>
		<line class="st10" x1="69.5" y1="92.3" x2="58.1" y2="85.7"/>
	</g>
</g>
</svg>
