<?xml version="1.0" encoding="utf-8"?>
<!-- Generator: Adobe Illustrator 27.2.0, SVG Export Plug-In . SVG Version: 6.00 Build 0)  -->
<svg version="1.1" id="圖層_1" xmlns="http://www.w3.org/2000/svg" xmlns:xlink="http://www.w3.org/1999/xlink" x="0px" y="0px"
	 viewBox="0 0 402.3 134.5" style="enable-background:new 0 0 402.3 134.5;" xml:space="preserve">
<style type="text/css">
	.st0{fill-rule:evenodd;clip-rule:evenodd;fill:#FFFFFF;}
	.st1{fill-rule:evenodd;clip-rule:evenodd;fill:#070304;}
	.st2{fill:#E05A49;}
	.st3{fill-rule:evenodd;clip-rule:evenodd;fill:#F5A274;}
	.st4{fill-rule:evenodd;clip-rule:evenodd;fill:#1B1311;stroke:#1B1311;stroke-width:0.41;stroke-miterlimit:10;}
	.st5{fill-rule:evenodd;clip-rule:evenodd;fill:#1B1311;stroke:#1B1311;stroke-width:0.205;stroke-miterlimit:10;}
	.st6{fill:#231815;}
	.st7{font-family:'LobsterTwo-Italic';}
	.st8{font-size:46.1778px;}
	.st9{font-family:'NotoSerifTC-Medium-83pv-RKSJ-H';}
	.st10{font-size:45px;}
</style>
<g>
	<g id="logo" transform="translate(0 -54.5)">
		<g id="Group_535" transform="translate(-30 -43.202)">
			<path id="Path_1519" class="st0" d="M111.4,183.4c-1-1.1-1.2-1.4-1.3-2.3c-0.1-0.5,0-1.1,0.2-1.5c0.4-1.2,0.6-2.6,0.6-3.9
				c-0.2-5.6-2.7-10.9-6.9-14.7c-0.7-0.7-1.5-1.2-2.4-1.5c-0.7-0.2-1.2-0.7-1.3-1.4c0-0.5,0.3-0.8,1-0.8c0.3,0,0.7-0.1,0.9-0.4
				c1.5-1.7,2.7-3.5,3.7-5.6c2.1-4.5,3.4-9.4,3.7-14.4c0.1-3.1,0.1-6.1-0.1-9.1c-0.4-3.9-1.4-7.8-3.1-11.3c-1.1-2.6-2.9-4.8-5.2-6.4
				c-1.3-0.9-2.8-1.4-4.3-1.3c-3.9,0-7.6,3.1-10.2,8.4c-2.3,4.9-3.7,10.2-4,15.7c-0.1,3.1-0.1,6.1,0.2,9.2c0.2,1.9,0.6,3.8,1,5.7
				c0.5,2,1.1,3.9,1.9,5.8c0.2,0.4,0.2,0.5,0.1,0.7c-0.2,0.3-0.4,0.3-0.8-0.1c-0.8-0.6-1.6-1-2.6-1.2c-1.8-0.4-3.6-0.4-5.4-0.2
				c-1.1,0.1-2.1,0.5-2.9,1.3c-0.2,0.2-0.5,0.4-0.8,0.6c-0.3-0.1-0.6-0.4-0.6-0.7c0.1-0.3,0.2-0.6,0.3-0.9c1.2-3.1,2-6.2,2.5-9.4
				c0.6-4.5,0.6-9,0.1-13.5c-0.6-4.3-1.8-8.6-3.6-12.6c-2.2-4.7-5.3-7.8-8.8-8.6c-1.2-0.3-2.3-0.2-3.5,0c-2.2,0.7-4.2,2.1-5.5,4
				c-2.7,3.8-4.4,8.2-5,12.8c-0.9,6-0.7,12,0.5,17.9c1,4.7,3,9,5.9,12.8c0.7,0.9,0.8,0.9,1.5,1c0.4,0,0.8,0.4,0.8,0.8
				c0,0.4-0.5,0.9-1.3,1.3c-1.1,0.6-2.1,1.3-3,2.1c-2.8,2.7-4.8,6.1-5.7,9.9c-0.8,2.7-0.8,5.5,0,8.1c0.5,1.6,0.3,2.3-1,3.8
				c-2.5,2.6-4.3,5.9-5.1,9.4c-0.2,1.1-0.3,2.2-0.2,3.3c-0.1,1.1,0,2.2,0.2,3.3c1.2,5.4,4.6,10,9.4,12.7c2.5,1.5,5.3,2.6,8.3,3.2
				c2,0.5,3.9,1.1,5.8,1.9c3.8,1.1,7.8,1.9,11.7,2.1c4.8,0.4,9.7,0.1,14.4-0.9c1.4-0.3,2.8-0.8,4.2-1.4c1.9-0.9,3.8-1.8,5.8-2.4
				c1.5-0.5,3-1.1,4.5-1.9c5.6-2.7,9.7-7.9,10.9-14c0.2-1.8,0.2-3.6,0.1-5.4C115.9,189.7,114.2,186.2,111.4,183.4z"/>
			<path id="Path_1520" class="st0" d="M45.3,176c0-1,0-2.1,0.2-3.1c1-5.5,3.9-10.5,8.3-13.9c0.3-0.2,0.6-0.4,0.8-0.7
				c-0.2-0.3-0.4-0.5-0.6-0.8c-3.1-3.8-5.4-9.7-6.5-16.5c-1.2-7-0.7-14.2,1.3-21c2.2-6.9,6.1-11.4,10.6-12.4c1.3-0.2,2.7-0.1,4,0.2
				c2,0.6,3.8,1.8,5.2,3.3c3.9,4.2,6.5,9.5,7.5,15.2c1.1,5,1.3,10.2,0.7,15.3c-0.3,3.1-1.1,6.1-2.1,9c-0.2,0.4-0.3,0.8-0.4,1.1
				c0.4,0,0.8-0.1,1.1-0.2c2.3-0.5,4.7-0.4,7,0.2c0.4,0.1,0.8,0.2,0.9,0.2c0.1,0,0-0.3-0.3-1c-1.9-5.2-2.8-10.8-2.6-16.4
				c0.1-6,1.6-11.9,4.2-17.3c2.6-5,6-8.3,9.5-9.4c1.3-0.3,2.7-0.4,4.1-0.2c6.8,1.4,11.8,10.7,12.6,23.3c0.2,3.8-0.1,7.5-0.8,11.2
				c-0.8,5.5-2.9,10.7-6.2,15.2c-0.2,0.2-0.4,0.5-0.6,0.8c0.2,0.2,0.5,0.5,0.8,0.6c2.2,1.6,4,3.7,5.3,6.1c3.1,5.2,4,11.4,2.4,15.6
				l-0.2,0.6l0.8,0.8c2.6,2.7,4.5,6,5.5,9.6c2.3,9.1-2.4,18.4-11.6,23.1c-1.3,0.7-2.6,1.2-4,1.6c-0.6,0.2-1.2,0.4-1.8,0.7
				c-0.5,0.2-1,0.4-1.5,0.6c-0.5,0.2-1.5,0.6-2.3,1c-0.7,0.4-1.7,0.8-2.3,1c-5.3,1.7-10.9,2.3-16.5,1.9c-5.2-0.3-10.5-1.2-15.5-2.8
				c-0.8-0.2-2-0.6-2.8-0.8s-1.8-0.5-2.2-0.7s-1.5-0.5-2.3-0.8c-5.9-1.8-10.8-5.9-13.7-11.3c-2.8-5.3-2.9-11.7-0.2-17.1
				c1-2.1,2.3-4.1,4-5.8l0.9-0.9l-0.3-1"/>
			<path id="Path_1521" class="st1" d="M59.6,107.7c-4.4,0.9-8.4,5.5-10.6,12.4c-2.1,6.8-2.5,14-1.3,20.9c1.1,6.8,3.4,12.7,6.5,16.5
				c0.2,0.2,0.4,0.5,0.6,0.8c-0.3,0.2-0.5,0.5-0.8,0.7c-4.4,3.5-7.4,8.4-8.3,13.9c-0.2,1-0.3,2.1-0.2,3.1c-0.1,1.5,0.1,2.9,0.6,4.3
				l0.3,1l-0.9,0.9c-1.6,1.7-3,3.6-4,5.8c-2.6,5.4-2.6,11.7,0.2,17.1c2.9,5.4,7.8,9.5,13.7,11.3c0.8,0.3,1.9,0.7,2.3,0.8
				c0.5,0.1,1.5,0.5,2.2,0.7c0.8,0.2,2,0.6,2.8,0.8c5,1.6,10.2,2.5,15.5,2.8c5.6,0.4,11.2-0.2,16.5-1.9c0.5-0.2,1.6-0.6,2.3-1
				c0.7-0.4,1.7-0.8,2.3-1c0.5-0.2,1-0.4,1.5-0.6c0.6-0.3,1.2-0.5,1.8-0.7c1.4-0.4,2.7-1,4-1.6c9.2-4.7,13.9-14,11.6-23.1
				c-0.9-3.6-2.8-6.9-5.5-9.6l-0.8-0.8l0.2-0.6c1.6-4.2,0.6-10.4-2.4-15.6c-1.3-2.4-3.2-4.4-5.3-6.1c-0.3-0.2-0.5-0.4-0.8-0.6
				c0.2-0.3,0.3-0.6,0.6-0.8c3.2-4.5,5.3-9.7,6.2-15.2c0.7-3.7,0.9-7.4,0.8-11.2c-0.8-12.6-5.8-21.9-12.6-23.3
				c-1.4-0.2-2.7-0.2-4.1,0.2c-3.5,1.1-6.9,4.4-9.5,9.4c-2.6,5.4-4,11.3-4.2,17.3c-0.2,5.6,0.6,11.2,2.6,16.4c0.3,0.7,0.4,1,0.3,1
				c0,0-0.4-0.1-0.9-0.2c-2.3-0.6-4.7-0.7-7-0.2c-0.4,0.1-0.8,0.2-1.1,0.2c0.1-0.4,0.2-0.8,0.4-1.1c1.1-2.9,1.8-5.9,2.1-9
				c0.6-5.1,0.3-10.3-0.7-15.3c-1-5.7-3.6-11-7.5-15.2c-1.4-1.5-3.2-2.6-5.2-3.3C62.3,107.5,60.9,107.5,59.6,107.7z M63.1,108.9
				c3.5,0.9,6.5,3.9,8.7,8.6c1.8,4,3,8.2,3.6,12.6c0.5,4.5,0.5,9-0.1,13.5c-0.5,3.2-1.3,6.4-2.5,9.4c-0.1,0.3-0.2,0.6-0.3,0.9
				c0.1,0.3,0.3,0.6,0.6,0.7c0.3-0.1,0.5-0.4,0.8-0.6c0.8-0.8,1.8-1.2,2.9-1.3c1.8-0.2,3.6-0.2,5.4,0.2c0.9,0.2,1.8,0.6,2.6,1.2
				c0.5,0.4,0.6,0.4,0.8,0.1c0.1-0.2,0.1-0.3-0.1-0.7c-0.7-1.9-1.4-3.8-1.9-5.8c-0.5-1.9-0.8-3.8-1-5.7c-0.2-3.1-0.3-6.1-0.2-9.2
				c0.3-5.4,1.7-10.8,4-15.7c2.6-5.3,6.4-8.4,10.2-8.4c1.6,0,3.1,0.4,4.3,1.3c2.3,1.6,4.1,3.8,5.2,6.4c1.7,3.6,2.7,7.4,3.1,11.3
				c0.2,3,0.3,6.1,0.1,9.1c-0.3,5-1.5,9.9-3.7,14.4c-0.9,2-2.2,3.9-3.7,5.6c-0.2,0.3-0.5,0.4-0.9,0.4c-0.6,0-1,0.3-1,0.8
				c0.1,0.7,0.6,1.2,1.3,1.4c0.9,0.3,1.7,0.8,2.4,1.5c4.2,3.8,6.7,9.1,6.9,14.7c0,1.3-0.1,2.6-0.6,3.9c-0.2,0.5-0.3,1-0.2,1.5
				c0.1,0.8,0.3,1.1,1.3,2.3c2.7,2.8,4.5,6.3,5.2,10.2c0.2,1.8,0.2,3.6-0.1,5.4c-1.2,6.1-5.3,11.3-10.9,14c-1.4,0.7-2.9,1.4-4.5,1.9
				c-2,0.6-3.9,1.4-5.8,2.4c-1.3,0.6-2.7,1.1-4.2,1.4c-4.7,1-9.6,1.3-14.4,0.9c-4-0.2-7.9-1-11.7-2.1c-1.9-0.8-3.8-1.4-5.8-1.9
				c-2.9-0.6-5.7-1.6-8.3-3.2c-4.8-2.7-8.2-7.4-9.4-12.7c-0.2-1.1-0.3-2.2-0.2-3.3c-0.1-1.1,0-2.2,0.2-3.3c0.8-3.6,2.5-6.8,5.1-9.4
				c1.4-1.5,1.6-2.2,1-3.8c-0.8-2.7-0.8-5.5,0-8.1c1-3.8,2.9-7.2,5.7-9.9c0.9-0.9,1.9-1.6,3-2.1c0.8-0.4,1.3-0.9,1.3-1.3
				c0-0.4-0.4-0.8-0.8-0.8c-0.6-0.1-0.7-0.2-1.5-1c-2.9-3.8-5-8.1-5.9-12.8c-1.3-5.9-1.4-12-0.5-17.9c0.6-4.6,2.3-9,5-12.8
				c1.4-1.9,3.3-3.3,5.5-4C60.7,108.6,61.9,108.6,63.1,108.9z"/>
			<path id="Path_1522" class="st1" d="M77.1,192.9c-0.8,0.1-1.5,0.3-2.2,0.6c-1.1,0.5-1.9,1.6-1.8,2.8c0.3,1.6,1.9,2.7,4.4,3.1
				c0.7,0.1,0.8,0.1,0.8,0.4c0,0.7-0.2,1.3-0.6,1.8c-1.4,1.5-3.3,2.5-5.4,2.7c-1.5,0.2-3,0.1-4.4-0.2c-1.4-0.2-2.7-1.2-3.3-2.5
				c-0.2-0.5-0.2-0.6-0.5-0.6s-0.3,0-0.3,0.4c0,0.4,0.1,0.7,0.3,1c0.7,1.3,1.9,2.2,3.3,2.6c3.8,1.2,8.3,0.2,10.6-2.4
				c0.2-0.2,0.4-0.5,0.7-0.7c0.2,0.1,0.3,0.3,0.4,0.5c1.5,2.3,5.4,3.8,8.8,3.5c1.7-0.1,3.3-0.7,4.6-1.7c1.1-0.9,1.8-2.7,1.2-2.9
				c-0.3-0.1-0.4,0.1-0.6,0.6c-0.3,1-1.1,1.8-2.1,2.1c-3.2,1.3-6.8,1-9.7-0.9c-1.1-0.6-1.8-1.7-1.9-3c0-0.8-0.2-0.7,1.2-1
				c1.9-0.4,3.2-1.8,3.1-3.1c-0.1-0.7-0.4-1.3-0.9-1.7c-0.9-0.9-2.1-1.4-3.4-1.5C78.6,192.9,77.8,192.8,77.1,192.9z M78.1,193.5
				c0.4,0.2,0.4,0.4,0.2,0.7c-0.2,0.2-0.6,0.4-0.9,0.5c-0.2,0-0.3-0.4-0.3-0.6C77,193.4,77.5,193.2,78.1,193.5L78.1,193.5z
				 M76.6,194.1c0.3,0.2,0.2,0.4-0.4,0.7c-1.1,0.6-1.5,1.1-1.5,1.8c0,0.4-0.2,0.7-0.5,0.7c-0.1,0-0.2-0.2-0.3-0.4
				c-0.2-0.3-0.2-0.6-0.1-0.9c0.2-0.9,0.8-1.6,1.6-1.9C75.8,194,76.2,194,76.6,194.1L76.6,194.1z"/>
			<g id="Group_530" transform="translate(2.696 64.324)">
				<path id="Path_1523" class="st1" d="M48.7,128.8c-0.8,0.1-1.5,0.4-2.2,0.7c-1.5,0.5-2.8,1.4-3.9,2.6c-1.1,1.1-1.8,2.6-1.8,4.2
					c0,1.2,0.5,2.4,1.4,3.2c1.5,1.4,3.5,2.2,5.6,2c4.6,0,8.9-2.8,9.7-6.4c0.2-0.9,0.1-1.9-0.2-2.8c-0.8-1.7-2.4-3-4.2-3.4
					C51.6,128.7,50.2,128.6,48.7,128.8z M52.4,130.1c1.5,0.3,2.8,1.2,3.6,2.5c1,2-0.1,4.4-2.6,6.2c-1,0.6-2.1,1.1-3.2,1.4
					c-0.8,0.2-1.6,0.3-2.4,0.3c-0.7,0.1-1.5,0-2.2-0.2c-1.4-0.3-2.6-1.2-3.3-2.4c-1-2.1,0.1-4.6,2.9-6.4c0.8-0.6,1.8-1,2.7-1.1
					c0.6-0.1,1.1-0.2,1.2-0.3C50.2,129.9,51.3,129.9,52.4,130.1z"/>
				
					<ellipse id="Ellipse_231" transform="matrix(0.9664 -0.2571 0.2571 0.9664 -33.0996 17.1851)" class="st2" cx="49.2" cy="135.2" rx="7.8" ry="5.3"/>
			</g>
			<g id="Group_531" transform="translate(43.852 65.064)">
				<path id="Path_1524" class="st1" d="M58.4,129.2c-1.9,0.4-3.4,1.6-4.2,3.4c-0.3,0.9-0.3,1.9-0.2,2.8c0.8,3.6,5.1,6.4,9.7,6.4
					c2.1,0.1,4.1-0.6,5.6-2c0.8-0.9,1.3-2,1.4-3.2c-0.1-1.6-0.7-3.1-1.8-4.2c-1.1-1.2-2.4-2-3.9-2.6c-0.7-0.3-1.4-0.6-2.2-0.7
					C61.3,128.9,59.9,128.9,58.4,129.2z M62.4,130.2c0.1,0,0.7,0.1,1.2,0.3c1,0.2,1.9,0.6,2.7,1.1c2.8,1.8,3.9,4.3,2.9,6.4
					c-0.7,1.2-1.9,2.1-3.3,2.4c-0.7,0.2-1.5,0.3-2.2,0.2c-0.8,0-1.6-0.1-2.4-0.3c-1.1-0.3-2.2-0.8-3.2-1.4c-2.5-1.8-3.6-4.2-2.6-6.2
					c0.8-1.3,2.1-2.2,3.6-2.5C60.2,130.2,61.3,130.1,62.4,130.2z"/>
				
					<ellipse id="Ellipse_232" transform="matrix(0.2571 -0.9664 0.9664 0.2571 -84.5523 160.8304)" class="st2" cx="62.3" cy="135.4" rx="5.3" ry="7.8"/>
			</g>
			<g id="Group_532" transform="translate(36.725 4.709)">
				<path id="Path_1525" class="st3" d="M59.2,109.8c-1.1,0.1-2.4,1.6-2.9,2.3c-0.8,1-1.3,2.1-1.7,3.2c-0.7,1.8-1.2,3.6-1.5,5.5
					c-0.4,2.3-0.6,4.6-0.7,6.9c-0.2,6.2-0.3,10.4,1.5,15.3c1.1,2.9,2.3,6.2,4.4,6.4c3.4,0.3,6.6-8.1,7.3-10
					c1.5-3.6,2.3-7.4,2.2-11.3C67.7,118.6,62.3,109.4,59.2,109.8z"/>
				<path id="Path_1526" class="st4" d="M58.4,109.2c-3.6,1-6.4,7.4-7.1,16.3c-0.1,2.6-0.2,5.1,0,7.7c0.2,4.4,1.2,8.7,3,12.7
					c0.5,1.1,1.2,2.2,2,3.1c0.4,0.4,0.7,0.9,0.8,1c0.3,0.3,0.7,0.5,1.1,0.5c0.7,0,3-1.7,4.3-3.3c3.1-3.6,5-8.4,5.8-14.8
					c0.2-2.5,0.2-5.1,0-7.6c-0.8-6.6-3.2-11.9-6.7-14.9C60.2,109,59.6,108.9,58.4,109.2z M60,110c0.8,0.5,1.4,1.1,2,1.8
					c2.9,3.7,4.6,8.1,5.1,12.7c0.2,2.9,0.2,5.7,0,8.6c-0.5,4.2-1.9,8.2-4.1,11.7c-1.1,1.7-2.5,3.1-4.2,4.2l-0.4,0.2l-0.6-0.6
					c-5.3-5.2-7-22.2-3.4-32.6c0.4-1.2,1-2.4,1.7-3.6c0.8-1.1,1.7-2,2.9-2.6C59.1,109.7,59.6,109.7,60,110L60,110z"/>
			</g>
			<g id="Group_534" transform="translate(10.216 4.888)">
				<g id="Group_533" transform="translate(0.341 0.574)">
					<path id="Path_1527" class="st3" d="M51.5,109.3c1.1,0.1,2.4,1.6,2.9,2.3c0.8,1,1.3,2.1,1.7,3.2c0.7,1.8,1.2,3.6,1.5,5.5
						c0.4,2.3,0.6,4.6,0.7,6.9c0.2,6.2,0.3,10.4-1.5,15.3c-1.1,2.9-2.3,6.2-4.4,6.4c-3.4,0.3-6.6-8.1-7.3-10
						c-1.5-3.6-2.3-7.4-2.2-11.3C43,118.1,48.4,108.9,51.5,109.3z"/>
				</g>
				<path id="Path_1528" class="st5" d="M49.5,110.2c-3.5,3-5.9,8.3-6.7,14.9c-0.2,2.5-0.2,5.1,0,7.6c0.8,6.4,2.6,11.1,5.8,14.8
					c1.3,1.5,3.6,3.3,4.3,3.3c0.4,0,0.8-0.1,1.1-0.5c0.1-0.1,0.5-0.6,0.8-1c0.8-0.9,1.5-2,2-3.1c1.7-4,2.7-8.4,3-12.7
					c0.1-2.6,0.1-5.1,0-7.7c-0.7-8.9-3.5-15.4-7.1-16.3C51.4,108.9,50.8,109.1,49.5,110.2z M52.3,110c1.2,0.6,2.1,1.5,2.9,2.6
					c0.7,1.1,1.3,2.3,1.7,3.6c3.6,10.5,1.8,27.4-3.4,32.6l-0.6,0.6l-0.4-0.2c-1.7-1.1-3.1-2.5-4.2-4.2c-2.2-3.6-3.6-7.6-4.1-11.7
					c-0.2-2.9-0.2-5.7,0-8.6c0.5-4.6,2.2-9.1,5.1-12.7c0.5-0.7,1.2-1.3,2-1.8C51.4,109.8,51.9,109.8,52.3,110z"/>
			</g>
			<path id="Path_1529" class="st1" d="M62.5,178.2c-0.9,0.2-1.7,0.6-2.3,1.3c-0.7,0.6-1.2,1.3-1.5,2.2c-0.2,1-0.3,2-0.2,3
				c0.6,3,3.5,4.9,6.4,4.3c2.5-0.5,4.4-2.7,4.4-5.3c0-0.9-0.2-1.7-0.6-2.5c-0.6-1.3-1.8-2.3-3.2-2.8C64.6,178,63.5,178,62.5,178.2z
				 M62.6,180.1c0.8,0.7,0.9,1.8,0.2,2.6c-0.1,0.1-0.2,0.2-0.3,0.3c-0.6,0.5-1.4,0.4-1.9-0.2c-0.1-0.1-0.1-0.2-0.2-0.3
				c-0.3-0.5-0.3-1.1,0-1.6c0.2-0.8,1-1.2,1.8-0.9C62.4,179.9,62.5,180,62.6,180.1L62.6,180.1z"/>
			<path id="Path_1530" class="st1" d="M92.1,178.3c-1.4,0.5-2.5,1.4-3.2,2.8c-0.4,0.8-0.6,1.6-0.6,2.5c0,3,2.4,5.5,5.5,5.5
				c2.6,0,4.8-1.9,5.4-4.4c0.1-1,0.1-2-0.2-2.9c-0.3-0.8-0.8-1.6-1.5-2.2c-0.7-0.6-1.4-1.1-2.3-1.3C94.2,178,93.1,178,92.1,178.3z
				 M97.2,180.8c0.3,0.5,0.3,1.1,0,1.6c-0.3,0.7-1.1,1-1.7,0.7c-0.1-0.1-0.2-0.1-0.3-0.2c-0.8-0.6-1-1.8-0.4-2.6
				c0.1-0.1,0.2-0.2,0.3-0.3c0.7-0.4,1.5-0.2,2,0.4C97.1,180.6,97.1,180.7,97.2,180.8z"/>
		</g>
	</g>
	<g>
		<text transform="matrix(1 0 0 1 159.5707 108.0414)" class="st6 st7 st8">M-Learning</text>
		<text transform="matrix(1 0 0 1 109.0301 52.6549)" class="st6 st9 st10">我的 學習歷程</text>
	</g>
</g>
</svg>
