<?xml version="1.0" encoding="utf-8"?>
<!-- Generator: Adobe Illustrator 27.3.1, SVG Export Plug-In . SVG Version: 6.00 Build 0)  -->
<svg version="1.1" id="圖層_1" xmlns="http://www.w3.org/2000/svg" xmlns:xlink="http://www.w3.org/1999/xlink" x="0px" y="0px"
	 viewBox="0 0 402.3 134.5" style="enable-background:new 0 0 402.3 134.5;" xml:space="preserve">
<style type="text/css">
	.st0{fill-rule:evenodd;clip-rule:evenodd;fill:#FFFFFF;}
	.st1{fill-rule:evenodd;clip-rule:evenodd;fill:#070304;}
	.st2{fill:#E05A49;}
	.st3{fill-rule:evenodd;clip-rule:evenodd;fill:#F5A274;}
	.st4{fill-rule:evenodd;clip-rule:evenodd;fill:#1B1311;stroke:#1B1311;stroke-width:0.41;stroke-miterlimit:10;}
	.st5{fill-rule:evenodd;clip-rule:evenodd;fill:#1B1311;stroke:#1B1311;stroke-width:0.205;stroke-miterlimit:10;}
	.st6{enable-background:new    ;}
	.st7{fill:#231815;}
	.st8{fill:#231815;stroke:#231815;stroke-miterlimit:10;}
</style>
<g>
	<g id="logo" transform="translate(0 -54.5)">
		<g id="Group_535" transform="translate(-30 -43.202)">
			<path id="Path_1519" class="st0" d="M111.4,183.4c-1-1.1-1.2-1.4-1.3-2.3c-0.1-0.5,0-1.1,0.2-1.5c0.4-1.2,0.6-2.6,0.6-3.9
				c-0.2-5.6-2.7-10.9-6.9-14.7c-0.7-0.7-1.5-1.2-2.4-1.5c-0.7-0.2-1.2-0.7-1.3-1.4c0-0.5,0.3-0.8,1-0.8c0.3,0,0.7-0.1,0.9-0.4
				c1.5-1.7,2.7-3.5,3.7-5.6c2.1-4.5,3.4-9.4,3.7-14.4c0.1-3.1,0.1-6.1-0.1-9.1c-0.4-3.9-1.4-7.8-3.1-11.3c-1.1-2.6-2.9-4.8-5.2-6.4
				c-1.3-0.9-2.8-1.4-4.3-1.3c-3.9,0-7.6,3.1-10.2,8.4c-2.3,4.9-3.7,10.2-4,15.7c-0.1,3.1-0.1,6.1,0.2,9.2c0.2,1.9,0.6,3.8,1,5.7
				c0.5,2,1.1,3.9,1.9,5.8c0.2,0.4,0.2,0.5,0.1,0.7c-0.2,0.3-0.4,0.3-0.8-0.1c-0.8-0.6-1.6-1-2.6-1.2c-1.8-0.4-3.6-0.4-5.4-0.2
				c-1.1,0.1-2.1,0.5-2.9,1.3c-0.2,0.2-0.5,0.4-0.8,0.6c-0.3-0.1-0.6-0.4-0.6-0.7c0.1-0.3,0.2-0.6,0.3-0.9c1.2-3.1,2-6.2,2.5-9.4
				c0.6-4.5,0.6-9,0.1-13.5c-0.6-4.3-1.8-8.6-3.6-12.6c-2.2-4.7-5.3-7.8-8.8-8.6c-1.2-0.3-2.3-0.2-3.5,0c-2.2,0.7-4.2,2.1-5.5,4
				c-2.7,3.8-4.4,8.2-5,12.8c-0.9,6-0.7,12,0.5,17.9c1,4.7,3,9,5.9,12.8c0.7,0.9,0.8,0.9,1.5,1c0.4,0,0.8,0.4,0.8,0.8
				c0,0.4-0.5,0.9-1.3,1.3c-1.1,0.6-2.1,1.3-3,2.1c-2.8,2.7-4.8,6.1-5.7,9.9c-0.8,2.7-0.8,5.5,0,8.1c0.5,1.6,0.3,2.3-1,3.8
				c-2.5,2.6-4.3,5.9-5.1,9.4c-0.2,1.1-0.3,2.2-0.2,3.3c-0.1,1.1,0,2.2,0.2,3.3c1.2,5.4,4.6,10,9.4,12.7c2.5,1.5,5.3,2.6,8.3,3.2
				c2,0.5,3.9,1.1,5.8,1.9c3.8,1.1,7.8,1.9,11.7,2.1c4.8,0.4,9.7,0.1,14.4-0.9c1.4-0.3,2.8-0.8,4.2-1.4c1.9-0.9,3.8-1.8,5.8-2.4
				c1.5-0.5,3-1.1,4.5-1.9c5.6-2.7,9.7-7.9,10.9-14c0.2-1.8,0.2-3.6,0.1-5.4C115.9,189.7,114.2,186.2,111.4,183.4z"/>
			<path id="Path_1520" class="st0" d="M45.3,176c0-1,0-2.1,0.2-3.1c1-5.5,3.9-10.5,8.3-13.9c0.3-0.2,0.6-0.4,0.8-0.7
				c-0.2-0.3-0.4-0.5-0.6-0.8c-3.1-3.8-5.4-9.7-6.5-16.5c-1.2-7-0.7-14.2,1.3-21c2.2-6.9,6.1-11.4,10.6-12.4c1.3-0.2,2.7-0.1,4,0.2
				c2,0.6,3.8,1.8,5.2,3.3c3.9,4.2,6.5,9.5,7.5,15.2c1.1,5,1.3,10.2,0.7,15.3c-0.3,3.1-1.1,6.1-2.1,9c-0.2,0.4-0.3,0.8-0.4,1.1
				c0.4,0,0.8-0.1,1.1-0.2c2.3-0.5,4.7-0.4,7,0.2c0.4,0.1,0.8,0.2,0.9,0.2s0-0.3-0.3-1c-1.9-5.2-2.8-10.8-2.6-16.4
				c0.1-6,1.6-11.9,4.2-17.3c2.6-5,6-8.3,9.5-9.4c1.3-0.3,2.7-0.4,4.1-0.2c6.8,1.4,11.8,10.7,12.6,23.3c0.2,3.8-0.1,7.5-0.8,11.2
				c-0.8,5.5-2.9,10.7-6.2,15.2c-0.2,0.2-0.4,0.5-0.6,0.8c0.2,0.2,0.5,0.5,0.8,0.6c2.2,1.6,4,3.7,5.3,6.1c3.1,5.2,4,11.4,2.4,15.6
				l-0.2,0.6l0.8,0.8c2.6,2.7,4.5,6,5.5,9.6c2.3,9.1-2.4,18.4-11.6,23.1c-1.3,0.7-2.6,1.2-4,1.6c-0.6,0.2-1.2,0.4-1.8,0.7
				c-0.5,0.2-1,0.4-1.5,0.6c-0.5,0.2-1.5,0.6-2.3,1c-0.7,0.4-1.7,0.8-2.3,1c-5.3,1.7-10.9,2.3-16.5,1.9c-5.2-0.3-10.5-1.2-15.5-2.8
				c-0.8-0.2-2-0.6-2.8-0.8s-1.8-0.5-2.2-0.7s-1.5-0.5-2.3-0.8c-5.9-1.8-10.8-5.9-13.7-11.3c-2.8-5.3-2.9-11.7-0.2-17.1
				c1-2.1,2.3-4.1,4-5.8l0.9-0.9l-0.3-1"/>
			<path id="Path_1521" class="st1" d="M59.6,107.7c-4.4,0.9-8.4,5.5-10.6,12.4c-2.1,6.8-2.5,14-1.3,20.9c1.1,6.8,3.4,12.7,6.5,16.5
				c0.2,0.2,0.4,0.5,0.6,0.8c-0.3,0.2-0.5,0.5-0.8,0.7c-4.4,3.5-7.4,8.4-8.3,13.9c-0.2,1-0.3,2.1-0.2,3.1c-0.1,1.5,0.1,2.9,0.6,4.3
				l0.3,1l-0.9,0.9c-1.6,1.7-3,3.6-4,5.8c-2.6,5.4-2.6,11.7,0.2,17.1c2.9,5.4,7.8,9.5,13.7,11.3c0.8,0.3,1.9,0.7,2.3,0.8
				c0.5,0.1,1.5,0.5,2.2,0.7c0.8,0.2,2,0.6,2.8,0.8c5,1.6,10.2,2.5,15.5,2.8c5.6,0.4,11.2-0.2,16.5-1.9c0.5-0.2,1.6-0.6,2.3-1
				c0.7-0.4,1.7-0.8,2.3-1c0.5-0.2,1-0.4,1.5-0.6c0.6-0.3,1.2-0.5,1.8-0.7c1.4-0.4,2.7-1,4-1.6c9.2-4.7,13.9-14,11.6-23.1
				c-0.9-3.6-2.8-6.9-5.5-9.6l-0.8-0.8l0.2-0.6c1.6-4.2,0.6-10.4-2.4-15.6c-1.3-2.4-3.2-4.4-5.3-6.1c-0.3-0.2-0.5-0.4-0.8-0.6
				c0.2-0.3,0.3-0.6,0.6-0.8c3.2-4.5,5.3-9.7,6.2-15.2c0.7-3.7,0.9-7.4,0.8-11.2c-0.8-12.6-5.8-21.9-12.6-23.3
				c-1.4-0.2-2.7-0.2-4.1,0.2c-3.5,1.1-6.9,4.4-9.5,9.4c-2.6,5.4-4,11.3-4.2,17.3c-0.2,5.6,0.6,11.2,2.6,16.4c0.3,0.7,0.4,1,0.3,1
				c0,0-0.4-0.1-0.9-0.2c-2.3-0.6-4.7-0.7-7-0.2c-0.4,0.1-0.8,0.2-1.1,0.2c0.1-0.4,0.2-0.8,0.4-1.1c1.1-2.9,1.8-5.9,2.1-9
				c0.6-5.1,0.3-10.3-0.7-15.3c-1-5.7-3.6-11-7.5-15.2c-1.4-1.5-3.2-2.6-5.2-3.3C62.3,107.5,60.9,107.5,59.6,107.7z M63.1,108.9
				c3.5,0.9,6.5,3.9,8.7,8.6c1.8,4,3,8.2,3.6,12.6c0.5,4.5,0.5,9-0.1,13.5c-0.5,3.2-1.3,6.4-2.5,9.4c-0.1,0.3-0.2,0.6-0.3,0.9
				c0.1,0.3,0.3,0.6,0.6,0.7c0.3-0.1,0.5-0.4,0.8-0.6c0.8-0.8,1.8-1.2,2.9-1.3c1.8-0.2,3.6-0.2,5.4,0.2c0.9,0.2,1.8,0.6,2.6,1.2
				c0.5,0.4,0.6,0.4,0.8,0.1c0.1-0.2,0.1-0.3-0.1-0.7c-0.7-1.9-1.4-3.8-1.9-5.8c-0.5-1.9-0.8-3.8-1-5.7c-0.2-3.1-0.3-6.1-0.2-9.2
				c0.3-5.4,1.7-10.8,4-15.7c2.6-5.3,6.4-8.4,10.2-8.4c1.6,0,3.1,0.4,4.3,1.3c2.3,1.6,4.1,3.8,5.2,6.4c1.7,3.6,2.7,7.4,3.1,11.3
				c0.2,3,0.3,6.1,0.1,9.1c-0.3,5-1.5,9.9-3.7,14.4c-0.9,2-2.2,3.9-3.7,5.6c-0.2,0.3-0.5,0.4-0.9,0.4c-0.6,0-1,0.3-1,0.8
				c0.1,0.7,0.6,1.2,1.3,1.4c0.9,0.3,1.7,0.8,2.4,1.5c4.2,3.8,6.7,9.1,6.9,14.7c0,1.3-0.1,2.6-0.6,3.9c-0.2,0.5-0.3,1-0.2,1.5
				c0.1,0.8,0.3,1.1,1.3,2.3c2.7,2.8,4.5,6.3,5.2,10.2c0.2,1.8,0.2,3.6-0.1,5.4c-1.2,6.1-5.3,11.3-10.9,14c-1.4,0.7-2.9,1.4-4.5,1.9
				c-2,0.6-3.9,1.4-5.8,2.4c-1.3,0.6-2.7,1.1-4.2,1.4c-4.7,1-9.6,1.3-14.4,0.9c-4-0.2-7.9-1-11.7-2.1c-1.9-0.8-3.8-1.4-5.8-1.9
				c-2.9-0.6-5.7-1.6-8.3-3.2c-4.8-2.7-8.2-7.4-9.4-12.7c-0.2-1.1-0.3-2.2-0.2-3.3c-0.1-1.1,0-2.2,0.2-3.3c0.8-3.6,2.5-6.8,5.1-9.4
				c1.4-1.5,1.6-2.2,1-3.8c-0.8-2.7-0.8-5.5,0-8.1c1-3.8,2.9-7.2,5.7-9.9c0.9-0.9,1.9-1.6,3-2.1c0.8-0.4,1.3-0.9,1.3-1.3
				c0-0.4-0.4-0.8-0.8-0.8c-0.6-0.1-0.7-0.2-1.5-1c-2.9-3.8-5-8.1-5.9-12.8c-1.3-5.9-1.4-12-0.5-17.9c0.6-4.6,2.3-9,5-12.8
				c1.4-1.9,3.3-3.3,5.5-4C60.7,108.6,61.9,108.6,63.1,108.9z"/>
			<path id="Path_1522" class="st1" d="M77.1,192.9c-0.8,0.1-1.5,0.3-2.2,0.6c-1.1,0.5-1.9,1.6-1.8,2.8c0.3,1.6,1.9,2.7,4.4,3.1
				c0.7,0.1,0.8,0.1,0.8,0.4c0,0.7-0.2,1.3-0.6,1.8c-1.4,1.5-3.3,2.5-5.4,2.7c-1.5,0.2-3,0.1-4.4-0.2c-1.4-0.2-2.7-1.2-3.3-2.5
				c-0.2-0.5-0.2-0.6-0.5-0.6s-0.3,0-0.3,0.4s0.1,0.7,0.3,1c0.7,1.3,1.9,2.2,3.3,2.6c3.8,1.2,8.3,0.2,10.6-2.4
				c0.2-0.2,0.4-0.5,0.7-0.7c0.2,0.1,0.3,0.3,0.4,0.5c1.5,2.3,5.4,3.8,8.8,3.5c1.7-0.1,3.3-0.7,4.6-1.7c1.1-0.9,1.8-2.7,1.2-2.9
				c-0.3-0.1-0.4,0.1-0.6,0.6c-0.3,1-1.1,1.8-2.1,2.1c-3.2,1.3-6.8,1-9.7-0.9c-1.1-0.6-1.8-1.7-1.9-3c0-0.8-0.2-0.7,1.2-1
				c1.9-0.4,3.2-1.8,3.1-3.1c-0.1-0.7-0.4-1.3-0.9-1.7c-0.9-0.9-2.1-1.4-3.4-1.5C78.6,192.9,77.8,192.8,77.1,192.9z M78.1,193.5
				c0.4,0.2,0.4,0.4,0.2,0.7c-0.2,0.2-0.6,0.4-0.9,0.5c-0.2,0-0.3-0.4-0.3-0.6C77,193.4,77.5,193.2,78.1,193.5L78.1,193.5z
				 M76.6,194.1c0.3,0.2,0.2,0.4-0.4,0.7c-1.1,0.6-1.5,1.1-1.5,1.8c0,0.4-0.2,0.7-0.5,0.7c-0.1,0-0.2-0.2-0.3-0.4
				c-0.2-0.3-0.2-0.6-0.1-0.9c0.2-0.9,0.8-1.6,1.6-1.9C75.8,194,76.2,194,76.6,194.1L76.6,194.1z"/>
			<g id="Group_530" transform="translate(2.696 64.324)">
				<path id="Path_1523" class="st1" d="M48.7,128.8c-0.8,0.1-1.5,0.4-2.2,0.7c-1.5,0.5-2.8,1.4-3.9,2.6c-1.1,1.1-1.8,2.6-1.8,4.2
					c0,1.2,0.5,2.4,1.4,3.2c1.5,1.4,3.5,2.2,5.6,2c4.6,0,8.9-2.8,9.7-6.4c0.2-0.9,0.1-1.9-0.2-2.8c-0.8-1.7-2.4-3-4.2-3.4
					C51.6,128.7,50.2,128.6,48.7,128.8z M52.4,130.1c1.5,0.3,2.8,1.2,3.6,2.5c1,2-0.1,4.4-2.6,6.2c-1,0.6-2.1,1.1-3.2,1.4
					c-0.8,0.2-1.6,0.3-2.4,0.3c-0.7,0.1-1.5,0-2.2-0.2c-1.4-0.3-2.6-1.2-3.3-2.4c-1-2.1,0.1-4.6,2.9-6.4c0.8-0.6,1.8-1,2.7-1.1
					c0.6-0.1,1.1-0.2,1.2-0.3C50.2,129.9,51.3,129.9,52.4,130.1z"/>
				
					<ellipse id="Ellipse_231" transform="matrix(0.9664 -0.2571 0.2571 0.9664 -33.1036 17.1954)" class="st2" cx="49.2" cy="135.2" rx="7.8" ry="5.3"/>
			</g>
			<g id="Group_531" transform="translate(43.852 65.064)">
				<path id="Path_1524" class="st1" d="M58.4,129.2c-1.9,0.4-3.4,1.6-4.2,3.4c-0.3,0.9-0.3,1.9-0.2,2.8c0.8,3.6,5.1,6.4,9.7,6.4
					c2.1,0.1,4.1-0.6,5.6-2c0.8-0.9,1.3-2,1.4-3.2c-0.1-1.6-0.7-3.1-1.8-4.2c-1.1-1.2-2.4-2-3.9-2.6c-0.7-0.3-1.4-0.6-2.2-0.7
					C61.3,128.9,59.9,128.9,58.4,129.2z M62.4,130.2c0.1,0,0.7,0.1,1.2,0.3c1,0.2,1.9,0.6,2.7,1.1c2.8,1.8,3.9,4.3,2.9,6.4
					c-0.7,1.2-1.9,2.1-3.3,2.4c-0.7,0.2-1.5,0.3-2.2,0.2c-0.8,0-1.6-0.1-2.4-0.3c-1.1-0.3-2.2-0.8-3.2-1.4c-2.5-1.8-3.6-4.2-2.6-6.2
					c0.8-1.3,2.1-2.2,3.6-2.5C60.2,130.2,61.3,130.1,62.4,130.2z"/>
				
					<ellipse id="Ellipse_232" transform="matrix(0.2571 -0.9664 0.9664 0.2571 -84.588 160.8361)" class="st2" cx="62.3" cy="135.4" rx="5.3" ry="7.8"/>
			</g>
			<g id="Group_532" transform="translate(36.725 4.709)">
				<path id="Path_1525" class="st3" d="M59.2,109.8c-1.1,0.1-2.4,1.6-2.9,2.3c-0.8,1-1.3,2.1-1.7,3.2c-0.7,1.8-1.2,3.6-1.5,5.5
					c-0.4,2.3-0.6,4.6-0.7,6.9c-0.2,6.2-0.3,10.4,1.5,15.3c1.1,2.9,2.3,6.2,4.4,6.4c3.4,0.3,6.6-8.1,7.3-10
					c1.5-3.6,2.3-7.4,2.2-11.3C67.7,118.6,62.3,109.4,59.2,109.8z"/>
				<path id="Path_1526" class="st4" d="M58.4,109.2c-3.6,1-6.4,7.4-7.1,16.3c-0.1,2.6-0.2,5.1,0,7.7c0.2,4.4,1.2,8.7,3,12.7
					c0.5,1.1,1.2,2.2,2,3.1c0.4,0.4,0.7,0.9,0.8,1c0.3,0.3,0.7,0.5,1.1,0.5c0.7,0,3-1.7,4.3-3.3c3.1-3.6,5-8.4,5.8-14.8
					c0.2-2.5,0.2-5.1,0-7.6c-0.8-6.6-3.2-11.9-6.7-14.9C60.2,109,59.6,108.9,58.4,109.2z M60,110c0.8,0.5,1.4,1.1,2,1.8
					c2.9,3.7,4.6,8.1,5.1,12.7c0.2,2.9,0.2,5.7,0,8.6c-0.5,4.2-1.9,8.2-4.1,11.7c-1.1,1.7-2.5,3.1-4.2,4.2l-0.4,0.2l-0.6-0.6
					c-5.3-5.2-7-22.2-3.4-32.6c0.4-1.2,1-2.4,1.7-3.6c0.8-1.1,1.7-2,2.9-2.6C59.1,109.7,59.6,109.7,60,110L60,110z"/>
			</g>
			<g id="Group_534" transform="translate(10.216 4.888)">
				<g id="Group_533" transform="translate(0.341 0.574)">
					<path id="Path_1527" class="st3" d="M51.5,109.3c1.1,0.1,2.4,1.6,2.9,2.3c0.8,1,1.3,2.1,1.7,3.2c0.7,1.8,1.2,3.6,1.5,5.5
						c0.4,2.3,0.6,4.6,0.7,6.9c0.2,6.2,0.3,10.4-1.5,15.3c-1.1,2.9-2.3,6.2-4.4,6.4c-3.4,0.3-6.6-8.1-7.3-10
						c-1.5-3.6-2.3-7.4-2.2-11.3C43,118.1,48.4,108.9,51.5,109.3z"/>
				</g>
				<path id="Path_1528" class="st5" d="M49.5,110.2c-3.5,3-5.9,8.3-6.7,14.9c-0.2,2.5-0.2,5.1,0,7.6c0.8,6.4,2.6,11.1,5.8,14.8
					c1.3,1.5,3.6,3.3,4.3,3.3c0.4,0,0.8-0.1,1.1-0.5c0.1-0.1,0.5-0.6,0.8-1c0.8-0.9,1.5-2,2-3.1c1.7-4,2.7-8.4,3-12.7
					c0.1-2.6,0.1-5.1,0-7.7c-0.7-8.9-3.5-15.4-7.1-16.3C51.4,108.9,50.8,109.1,49.5,110.2z M52.3,110c1.2,0.6,2.1,1.5,2.9,2.6
					c0.7,1.1,1.3,2.3,1.7,3.6c3.6,10.5,1.8,27.4-3.4,32.6l-0.6,0.6l-0.4-0.2c-1.7-1.1-3.1-2.5-4.2-4.2c-2.2-3.6-3.6-7.6-4.1-11.7
					c-0.2-2.9-0.2-5.7,0-8.6c0.5-4.6,2.2-9.1,5.1-12.7c0.5-0.7,1.2-1.3,2-1.8C51.4,109.8,51.9,109.8,52.3,110z"/>
			</g>
			<path id="Path_1529" class="st1" d="M62.5,178.2c-0.9,0.2-1.7,0.6-2.3,1.3c-0.7,0.6-1.2,1.3-1.5,2.2c-0.2,1-0.3,2-0.2,3
				c0.6,3,3.5,4.9,6.4,4.3c2.5-0.5,4.4-2.7,4.4-5.3c0-0.9-0.2-1.7-0.6-2.5c-0.6-1.3-1.8-2.3-3.2-2.8C64.6,178,63.5,178,62.5,178.2z
				 M62.6,180.1c0.8,0.7,0.9,1.8,0.2,2.6c-0.1,0.1-0.2,0.2-0.3,0.3c-0.6,0.5-1.4,0.4-1.9-0.2c-0.1-0.1-0.1-0.2-0.2-0.3
				c-0.3-0.5-0.3-1.1,0-1.6c0.2-0.8,1-1.2,1.8-0.9C62.4,179.9,62.5,180,62.6,180.1L62.6,180.1z"/>
			<path id="Path_1530" class="st1" d="M92.1,178.3c-1.4,0.5-2.5,1.4-3.2,2.8c-0.4,0.8-0.6,1.6-0.6,2.5c0,3,2.4,5.5,5.5,5.5
				c2.6,0,4.8-1.9,5.4-4.4c0.1-1,0.1-2-0.2-2.9c-0.3-0.8-0.8-1.6-1.5-2.2c-0.7-0.6-1.4-1.1-2.3-1.3C94.2,178,93.1,178,92.1,178.3z
				 M97.2,180.8c0.3,0.5,0.3,1.1,0,1.6c-0.3,0.7-1.1,1-1.7,0.7c-0.1-0.1-0.2-0.1-0.3-0.2c-0.8-0.6-1-1.8-0.4-2.6
				c0.1-0.1,0.2-0.2,0.3-0.3c0.7-0.4,1.5-0.2,2,0.4C97.1,180.6,97.1,180.7,97.2,180.8z"/>
		</g>
	</g>
	<g>
		<g class="st6">
			<path class="st7" d="M177.9,100.9l11.2-26.8h5.3l-4.8,34h-5.3l3.4-24.1L177.6,108h-4.9l1.1-23.6L165,108h-2.8l12-32.3
				c-2.6,0.6-4.6,1.8-6,3.7c-1.4,1.9-2.1,4.3-2.1,7.3c0,1.1,0.1,1.9,0.2,2.3c0.1,0.4,0.3,0.7,0.4,0.9c-1.4,0-2.4-0.3-3.3-0.9
				c-0.8-0.6-1.2-1.7-1.2-3.2c0-1,0.2-2.1,0.7-3.1c0.4-1,1-2,1.8-2.9c0.7-0.9,1.6-1.8,2.5-2.5s2-1.4,3-2c1-0.6,2.1-1,3.1-1.3
				c1.1-0.3,2.1-0.5,3-0.5c0.5,0,1,0,1.5,0.1c0.5,0.1,0.9,0.3,1.2,0.5L177.9,100.9z"/>
			<path class="st7" d="M205.4,97.4h-9.3l0.7-3.2h9.2L205.4,97.4z"/>
			<path class="st7" d="M219.6,107.2c1,0.3,2.1,0.7,3.2,1.3c1.1,0.6,2.2,1.2,3.3,1.8c1.1,0.6,2.3,1.2,3.5,1.6
				c1.2,0.5,2.4,0.7,3.8,0.7c0.6,0,1.2,0,1.8-0.1c0.6-0.1,1.3-0.3,2-0.6c-0.2,1.9-0.8,3.4-1.6,4.5c-0.8,1.1-2,1.6-3.5,1.6
				c-0.8,0-1.6-0.2-2.4-0.7s-1.7-1-2.6-1.7c-0.9-0.7-1.8-1.4-2.7-2.1c-0.9-0.8-1.9-1.5-2.8-2.1s-2-1.2-3-1.7c-1-0.4-2.1-0.7-3.2-0.7
				c-0.2,0-0.4,0-0.5,0c-0.2,0-0.3,0-0.5,0l6.9-32.6c-2.6,0.6-4.7,1.9-6.3,3.6c-1.6,1.8-2.4,4-2.4,6.7c0,1.1,0.1,1.9,0.3,2.3
				c0.2,0.5,0.5,0.9,0.8,1.2c-1.5,0-2.7-0.3-3.6-0.9c-0.9-0.6-1.3-1.7-1.3-3.3c0-1.6,0.5-3.2,1.5-4.7s2.2-2.8,3.8-3.9
				c1.5-1.1,3.3-2,5.2-2.7c1.9-0.7,3.8-1,5.7-1c0.3,0,0.7,0,1,0c0.3,0,0.6,0,0.9,0.1L219.6,107.2z"/>
			<path class="st7" d="M243.8,89.5c0,2.6-1,4.7-3.1,6.3s-4.9,2.6-8.4,3c0,0.2,0,0.5,0,0.7c0,0.2,0,0.5,0,0.7c0,1.6,0.3,2.7,0.9,3.5
				c0.6,0.7,1.6,1.1,3.1,1.1s2.9-0.4,4.4-1.2c1.4-0.8,2.8-2.1,4-3.9h1.5c-0.6,1.1-1.4,2.2-2.2,3.3c-0.9,1-1.8,1.9-2.9,2.7
				s-2.2,1.4-3.3,1.9c-1.2,0.5-2.4,0.7-3.6,0.7c-0.9,0-1.8-0.1-2.6-0.4c-0.8-0.3-1.6-0.7-2.2-1.3c-0.6-0.6-1.2-1.3-1.5-2.3
				c-0.4-0.9-0.6-2.1-0.6-3.4c0-0.9,0.1-1.9,0.3-3c0.2-1.1,0.5-2.3,0.9-3.5c0.4-1.2,0.9-2.4,1.5-3.6s1.4-2.2,2.2-3.1
				c0.9-0.9,1.9-1.6,3-2.2c1.1-0.6,2.4-0.8,3.8-0.8c0.6,0,1.3,0.1,1.8,0.2s1.1,0.4,1.6,0.7c0.5,0.4,0.8,0.8,1.1,1.5
				C243.7,87.7,243.8,88.5,243.8,89.5z M239.3,87c-0.9,0-1.7,0.3-2.4,0.9c-0.7,0.6-1.4,1.4-2,2.3s-1.1,2-1.5,3.2
				c-0.4,1.2-0.7,2.4-0.9,3.6c2.6-0.4,4.6-1.3,6.2-2.7c1.5-1.4,2.3-3.2,2.3-5.3c0-0.5-0.1-1-0.3-1.4C240.5,87.2,240.1,87,239.3,87z"
				/>
			<path class="st7" d="M264.8,85l-3.4,15.7c-0.2,0.6-0.2,1.3-0.2,2.1c0,0.5,0.1,1,0.3,1.4c0.2,0.4,0.6,0.6,1.2,0.6
				c0.7,0,1.5-0.4,2.2-1.3c0.8-0.9,1.5-2.1,2.1-3.7h1.7c-0.7,1.9-1.5,3.5-2.2,4.6c-0.7,1.1-1.5,2-2.1,2.6c-0.7,0.6-1.4,1-2,1.1
				c-0.6,0.2-1.2,0.3-1.7,0.3c-1,0-1.9-0.4-2.5-1.1c-0.7-0.7-1.1-1.9-1.2-3.5c-0.7,1.3-1.7,2.3-2.9,3.2s-2.6,1.3-4.1,1.3
				c-0.7,0-1.5-0.1-2.2-0.4c-0.7-0.3-1.3-0.7-1.9-1.3c-0.6-0.6-1-1.4-1.3-2.3c-0.3-0.9-0.5-2.1-0.5-3.4c0-1,0.1-2.2,0.3-3.4
				c0.2-1.2,0.6-2.4,1-3.6c0.4-1.2,1-2.4,1.7-3.5c0.7-1.1,1.4-2.1,2.3-2.9c0.9-0.8,1.8-1.5,2.9-2s2.3-0.8,3.6-0.8
				c0.7,0,1.5,0.2,2.3,0.5s1.3,1,1.5,1.9l0.5-2.2H264.8z M251.9,104.8c0.5,0,1-0.1,1.5-0.4c0.5-0.3,1-0.6,1.5-1.1
				c0.5-0.4,0.9-1,1.3-1.6c0.4-0.6,0.6-1.3,0.8-2l2.2-10.5c-0.1-0.5-0.3-1-0.7-1.4c-0.4-0.4-0.9-0.6-1.6-0.6c-1.3,0-2.4,0.5-3.4,1.4
				s-1.8,2-2.5,3.4c-0.7,1.3-1.2,2.7-1.5,4.2c-0.3,1.5-0.5,2.8-0.5,4c0,1.8,0.3,3,0.8,3.6S251,104.8,251.9,104.8z"/>
			<path class="st7" d="M274.8,85l-0.8,3.8c0.4-0.5,0.9-1,1.3-1.5c0.5-0.5,0.9-0.9,1.5-1.3s1-0.7,1.6-0.9c0.6-0.2,1.2-0.3,1.8-0.3
				c0.9,0,1.6,0.2,2,0.6c0.4,0.4,0.6,0.9,0.6,1.5c0,0.6-0.1,1.1-0.3,1.5c-0.2,0.4-0.4,0.7-0.7,0.9c-0.3,0.2-0.6,0.4-0.9,0.5
				c-0.3,0.1-0.6,0.1-0.8,0.1c-0.3,0-0.5-0.1-0.6-0.2c-0.1-0.1-0.3-0.3-0.4-0.4c-0.1-0.1-0.3-0.3-0.5-0.4s-0.4-0.2-0.8-0.2
				c-0.7,0-1.4,0.2-2.1,0.7c-0.8,0.5-1.5,1-2.1,1.5l-3.6,17h-4.6l4.9-23.1H274.8z"/>
			<path class="st7" d="M290.3,85l-0.7,3.5c0.6-0.8,1.2-1.4,1.8-1.9c0.6-0.5,1.1-0.9,1.7-1.1s1-0.4,1.5-0.5c0.5-0.1,0.9-0.1,1.3-0.1
				c0.9,0,1.7,0.1,2.3,0.4c0.6,0.3,1.1,0.7,1.5,1.1s0.6,1,0.8,1.7s0.2,1.3,0.2,2c0,1-0.1,2.1-0.3,3.2c-0.2,1.1-0.5,2.2-0.8,3.3
				c-0.3,1.1-0.5,2.1-0.8,3.2c-0.2,1-0.3,2-0.3,3c0,0.6,0.1,1.2,0.3,1.6c0.2,0.4,0.6,0.6,1.1,0.6c1.4,0,2.9-1.7,4.3-5h1.7
				c-0.7,1.9-1.5,3.5-2.2,4.6c-0.7,1.1-1.5,2-2.1,2.6c-0.7,0.6-1.3,0.9-1.9,1.1c-0.6,0.2-1.1,0.3-1.6,0.3c-1.6,0-2.7-0.5-3.4-1.5
				c-0.7-1-1-2.2-1-3.7c0-1,0.1-2.1,0.3-3.2c0.2-1.1,0.5-2.2,0.8-3.3c0.3-1.1,0.5-2.1,0.8-3.1c0.2-1,0.3-1.9,0.3-2.7
				c0-0.8-0.1-1.4-0.4-1.8c-0.3-0.5-0.8-0.7-1.6-0.7c-1.9,0-3.6,1.6-5.1,4.9l-3.2,14.9h-4.6l4.9-23.1H290.3z"/>
			<path class="st7" d="M311.9,85l-3.4,15.7c-0.2,0.6-0.2,1.3-0.2,2.1c0,0.5,0.1,1,0.3,1.4c0.2,0.4,0.6,0.6,1.2,0.6
				c0.7,0,1.5-0.4,2.2-1.3c0.8-0.9,1.5-2.1,2.1-3.7h1.7c-0.7,1.9-1.5,3.5-2.2,4.6c-0.7,1.1-1.5,2-2.1,2.6c-0.7,0.6-1.4,1-2,1.1
				s-1.2,0.3-1.7,0.3c-0.8,0-1.5-0.1-2-0.4s-0.9-0.6-1.2-1.1s-0.5-1-0.7-1.6c-0.1-0.6-0.2-1.3-0.2-2c0-0.6,0-1.1,0.1-1.7
				c0.1-0.6,0.2-1.2,0.3-1.7l3.1-14.8H311.9z M307.6,78.3c0-0.8,0.3-1.6,0.9-2.2c0.6-0.6,1.3-0.9,2.2-0.9c0.8,0,1.6,0.3,2.2,0.9
				c0.6,0.6,0.9,1.3,0.9,2.2c0,0.9-0.3,1.6-0.9,2.2c-0.6,0.6-1.3,0.9-2.2,0.9c-0.9,0-1.6-0.3-2.2-0.9
				C307.9,79.9,307.6,79.2,307.6,78.3z"/>
			<path class="st7" d="M321.9,85l-0.7,3.5c0.6-0.8,1.2-1.4,1.8-1.9c0.6-0.5,1.1-0.9,1.7-1.1s1-0.4,1.5-0.5c0.5-0.1,0.9-0.1,1.3-0.1
				c0.9,0,1.7,0.1,2.3,0.4c0.6,0.3,1.1,0.7,1.5,1.1s0.6,1,0.8,1.7s0.2,1.3,0.2,2c0,1-0.1,2.1-0.3,3.2c-0.2,1.1-0.5,2.2-0.8,3.3
				c-0.3,1.1-0.5,2.1-0.8,3.2c-0.2,1-0.3,2-0.3,3c0,0.6,0.1,1.2,0.3,1.6c0.2,0.4,0.6,0.6,1.1,0.6c1.4,0,2.9-1.7,4.3-5h1.7
				c-0.7,1.9-1.5,3.5-2.2,4.6c-0.7,1.1-1.5,2-2.1,2.6c-0.7,0.6-1.3,0.9-1.9,1.1c-0.6,0.2-1.1,0.3-1.6,0.3c-1.6,0-2.7-0.5-3.4-1.5
				c-0.7-1-1-2.2-1-3.7c0-1,0.1-2.1,0.3-3.2c0.2-1.1,0.5-2.2,0.8-3.3c0.3-1.1,0.5-2.1,0.8-3.1c0.2-1,0.3-1.9,0.3-2.7
				c0-0.8-0.1-1.4-0.4-1.8c-0.3-0.5-0.8-0.7-1.6-0.7c-1.9,0-3.6,1.6-5.1,4.9l-3.2,14.9h-4.6l4.9-23.1H321.9z"/>
			<path class="st7" d="M338.8,115.4c0-0.8,0.2-1.5,0.7-2.1c0.4-0.7,1-1.3,1.7-1.9c0.7-0.6,1.5-1.1,2.4-1.6c0.9-0.5,1.7-0.9,2.6-1.2
				l0.9-4.2c-0.8,0.8-1.7,1.5-2.7,2.1c-1,0.5-2.1,0.8-3.3,0.8c-0.7,0-1.5-0.1-2.2-0.4c-0.7-0.3-1.3-0.7-1.9-1.3
				c-0.6-0.6-1-1.4-1.3-2.3c-0.3-0.9-0.5-2.1-0.5-3.4c0-1.4,0.3-3,0.8-4.8c0.5-1.8,1.3-3.4,2.2-4.9c1-1.5,2.2-2.8,3.7-3.9
				s3.2-1.5,5.1-1.5c0.7,0,1.5,0.2,2.3,0.5s1.3,1,1.5,1.9l0.5-2.2h4.6l-5.7,26.8c-0.3,1.7-0.7,3-1.1,4c-0.4,1-0.9,1.8-1.4,2.4
				c-0.5,0.6-1.1,1-1.7,1.2c-0.6,0.2-1.3,0.3-2.1,0.3c-1.4,0-2.6-0.3-3.6-0.9C339.3,118,338.8,116.9,338.8,115.4z M343,103.8
				c0.4,0,0.9-0.1,1.4-0.3c0.5-0.2,1-0.5,1.5-0.9s0.9-0.8,1.3-1.4c0.4-0.5,0.7-1.1,0.9-1.7l2.2-10.3c-0.1-0.5-0.3-0.9-0.7-1.4
				c-0.4-0.4-0.9-0.6-1.6-0.6c-1.3,0-2.4,0.4-3.4,1.3c-1,0.8-1.8,1.9-2.5,3.1s-1.2,2.5-1.5,3.9c-0.3,1.4-0.5,2.6-0.5,3.7
				c0,1.8,0.3,3,0.8,3.6C341.4,103.5,342.1,103.8,343,103.8z M342.3,117.2c0.9,0,1.5-0.5,2-1.5s0.9-2.3,1.2-3.9l0.3-1.5
				c-1.7,0.7-3,1.6-3.9,2.4s-1.3,1.8-1.3,2.6c0,0.5,0.1,1,0.4,1.3C341.3,117,341.7,117.2,342.3,117.2z"/>
		</g>
		<g class="st6">
			<path class="st8" d="M151.1,51.8c1.4,1.9,1.5,2.7,1.1,3.2c-1.2,1.6-4.2,0.3-6.2-1.3c-2.7-1.9-4.7-4.3-6.3-7.2
				c-3.6,3.4-8,6.3-13.3,8.3l-0.4-0.5c4.9-2.6,9.1-6.3,12.4-10.3c-1.8-3.9-2.8-8.4-3.5-13.4h-9.9v7c2.8-0.6,5.8-1.3,8.7-2l0.1,0.7
				c-2.4,1-5.4,2.2-8.9,3.5v11.3c0,2.7-0.6,4.7-5.3,5.1c-0.1-1.1-0.4-2.1-1-2.6c-0.8-0.6-1.8-1.1-4-1.4v-0.6c0,0,4.8,0.3,5.8,0.3
				c0.8,0,1-0.3,1-0.9v-9.9c-2.4,0.9-4.9,1.8-7.8,2.7c-0.2,0.5-0.7,0.9-1.1,1.1l-1.8-4.4c2.1-0.3,6-1.1,10.7-2.2v-7.8h-10.4
				l-0.4-1.3h10.8v-7.8c-3.3,0.7-6.8,1.3-10.1,1.7l-0.2-0.7c6.3-1.6,13.9-4.7,17.8-7.1l4.1,3.5c-0.5,0.4-1.3,0.4-2.4,0
				c-1.6,0.5-3.5,1.1-5.6,1.7v8.7h9.7c-0.5-4.4-0.7-9.1-0.7-14.1l5.3,0.6c-0.1,0.6-0.4,1.1-1.6,1.3c0,4.2,0.1,8.4,0.5,12.3h7.3
				l2.3-2.9c0,0,2.7,2,4.4,3.5c-0.1,0.5-0.6,0.7-1.2,0.7h-12.8c0.5,3.7,1.2,7.2,2.3,10.2c1.8-2.7,3.3-5.6,4.3-8.4l4.9,2.1
				c-0.3,0.5-0.7,0.8-1.8,0.6c-1.4,2.9-3.4,5.9-5.9,8.8c1.4,2.6,3.2,4.7,5.6,6.3c0.8,0.6,1,0.6,1.4-0.2c0.6-1.2,1.5-3.4,2.1-5.3
				l0.5,0.1L151.1,51.8z M140.8,17.5c10.6,2.8,7.8,9.8,4.4,7.4c-0.5-2.4-2.8-5.4-4.8-7L140.8,17.5z"/>
			<path class="st8" d="M175.3,24c-0.3,0.4-1,0.7-1.9,0.9v27.3c0,0.3-1.7,1.2-2.9,1.2H170V50h-8.7v3.6c0,0.4-1.3,1.3-2.7,1.3h-0.6
				V21.3l3.6,1.7h1.2c0.4-2.3,1.1-5.7,1.5-8.1l5.4,1.3c-0.2,0.6-0.8,1-1.7,1c-1,1.7-2.4,4-3.6,5.9h5.3l1.8-2.1L175.3,24z
				 M161.2,24.3v11.2h8.7V24.3H161.2z M170,48.7V36.8h-8.7v11.9H170z M197.2,24c-0.4,0.4-0.9,0.6-1.9,0.8
				c-0.3,17.1-1.1,26.5-3.2,29.2c-1.4,1.6-3.2,2.2-5.6,2.2c0-1.2-0.2-2.2-0.9-2.7c-0.7-0.6-2.6-1.2-4.5-1.5l0-0.8
				c2.1,0.2,5.3,0.5,6.4,0.5c0.9,0,1.3-0.1,1.7-0.6c1.7-1.6,2.3-11.5,2.6-26.8h-10.2c-1.9,3.7-4.3,7-6.8,9.4l-0.6-0.4
				c2.7-4.5,5.5-11.5,6.9-18.4l5.3,1.5c-0.2,0.5-0.7,0.9-1.7,0.9c-0.7,2-1.5,3.8-2.4,5.6h9.1l2.1-2.3L197.2,24z M178.4,32.2
				c11.4,4.6,8.2,12.6,4.5,9.6c-0.4-3.1-2.8-6.9-5-9.3L178.4,32.2z"/>
			<path class="st8" d="M253.8,33c-0.3,0.4-0.8,0.5-1.7,0.5c-1.3,1.1-3.6,2.7-5.3,3.6l-0.5-0.3c0.5-1,1.1-2.7,1.6-4h-30.3
				c0.1,2.5-0.6,4.4-2.3,5.2c-2.7,1.3-4.6-1.8-1.7-3.5c1.1-0.6,2.7-2.5,2.7-5.3l0.7,0c0.3,0.8,0.5,1.5,0.5,2.2h1.2l-0.5-15.1
				l3.5,0.9c1.5-0.9,3.1-1.9,4-2.6l3.2,2.6c-0.2,0.3-0.7,0.3-1.3,0.1c-1.4,0.5-3.7,1-6,1.4l0.1,3.4h2.3l1.5-1.8c0,0,1.7,1.3,2.7,2.4
				c-0.1,0.5-0.5,0.7-1.1,0.7h-5.4l0.1,3.5h2.3l1.5-1.9c0,0,1.7,1.4,2.8,2.5c-0.1,0.5-0.5,0.7-1.1,0.7h-5.4l0.1,3.4h21.8l0.2-3.4
				h-4.6l-0.4-1.3h5.1l0.2-3.5h-4.8l-0.4-1.3h5.3l0.2-3.4h-5.5l-0.4-1.3h5.5l1.6-1.9l3.6,3c-0.3,0.3-0.7,0.4-1.4,0.5l-0.8,12.5h0.7
				l2.1-2.2L253.8,33z M248.7,41.4c0,0,2.7,2.1,4.3,3.6c-0.1,0.5-0.6,0.7-1.2,0.7h-16.8v5.8c0,2.8-0.6,4.4-5.4,4.9
				c-0.1-1.2-0.4-2-1.1-2.6c-0.7-0.6-1.8-1-4-1.3v-0.7c0,0,5,0.3,6,0.3c0.7,0,0.9-0.2,0.9-0.9v-5.5h-17.9l-0.4-1.3h18.3V41l3.3,0.3
				c1.5-0.9,3.1-2.2,4.3-3.2h-17.4l-0.4-1.3h18.7l2.2-2.2l3.8,3.4c-0.4,0.3-0.9,0.4-1.8,0.5c-2.1,0.9-4.9,2.1-7.7,2.9h0
				c-0.1,0.6-0.5,0.9-1.5,1.1v1.8h11.4L248.7,41.4z M239.3,24.6c-0.3,0.5-0.8,0.5-1.5,0.3c-0.5,0.7-1.1,1.3-1.8,2
				c2.5,2.1,1.4,4.6-0.5,3.6c-0.3-0.7-0.9-1.4-1.5-2.1c-1.6,1.1-3.5,2.1-5.3,2.8l-0.5-0.7c1.5-0.9,3.1-2.2,4.4-3.5
				c-0.9-0.8-2-1.5-2.9-2.1l0.5-0.5c1.5,0.3,2.8,0.7,3.8,1.1c0.8-0.9,1.4-1.8,1.9-2.7L239.3,24.6z M228.3,22.5
				c1.3-0.9,2.6-2.1,3.7-3.3c-0.9-0.7-1.8-1.3-2.6-1.7l0.4-0.5c1.3,0.2,2.5,0.5,3.4,0.9c0.7-0.9,1.3-1.8,1.8-2.6l3.5,1.8
				c-0.2,0.5-0.7,0.5-1.5,0.3c-0.5,0.5-1,1.1-1.6,1.7c2.5,1.8,1.6,4.1-0.2,3.3c-0.4-0.6-0.9-1.3-1.7-1.9c-1.5,1.1-3.1,2-4.7,2.7
				L228.3,22.5z"/>
			<path class="st8" d="M272.9,27.2c-2.7,1.7-6.4,3.8-11,6.3c-0.1,0.6-0.5,1-0.9,1.2l-2.3-3.9c2.5-0.7,8.2-2.7,14.2-4.8v-7.4h-13.2
				l-0.4-1.3h13.2l1.7-2l4,3c-0.3,0.4-1,0.8-1.9,0.9v12.2c0,2.5-0.5,4-4.5,4.4c-0.1-1-0.3-1.8-0.8-2.3c-0.5-0.5-1.3-0.9-3-1.2v-0.7
				c0,0,3.3,0.2,4.1,0.2c0.7,0,0.9-0.2,0.9-0.8V27.2z M262,19.9c10.3,1.3,8.4,8,5,6.2c-0.9-2-3.4-4.5-5.4-5.8L262,19.9z M290.3,36
				l4,3c-0.3,0.4-0.9,0.7-1.8,0.9v15.3c0,0.3-1.8,1-3.1,1h-0.6v-2.5h-21.2v1.4c0,0.3-1.6,1.2-3.1,1.2H264v-20l3.9,1.7h6.9
				c0.4-1.4,0.9-3.2,1.2-4.5l5.3,1.1c-0.2,0.6-0.8,1-1.7,1c-0.7,0.7-1.7,1.6-2.6,2.4h11.5L290.3,36z M267.7,39.3v5.7h21.2v-5.7
				H267.7z M288.9,52.4v-6h-21.2v6H288.9z M297.9,18.4c-0.3,0.3-1,0.7-1.9,0.9v12.2c0,2.6-0.5,4-4.7,4.5c-0.1-1-0.3-1.9-0.8-2.4
				s-1.4-0.9-3.1-1.2v-0.7c0,0,3.4,0.2,4.3,0.2c0.7,0,0.9-0.2,0.9-0.8v-4.2c-2.8,1.6-6.5,3.6-11.2,6c-0.1,0.6-0.5,1-0.9,1.2
				l-2.4-3.9c2.6-0.6,8.3-2.5,14.4-4.5v-7.1h-13.8l-0.4-1.3h13.7l1.7-2L297.9,18.4z M280.7,20c10.1,0.9,8.4,7.7,5,5.8
				c-0.9-1.9-3.4-4.2-5.4-5.5L280.7,20z"/>
			<path class="st8" d="M339.3,15.3c0,0,2.7,2.1,4.5,3.6c-0.1,0.5-0.6,0.7-1.3,0.7h-33.1v9.9c0,8-0.3,19.1-6.7,26.9l-0.7-0.4
				c3.7-8,4-17.8,4-26.4V16.7l4,1.6h26.7L339.3,15.3z M339.1,50.6c0,0,2.7,2.1,4.5,3.6c-0.1,0.5-0.6,0.7-1.2,0.7h-34.6l-0.4-1.3h7.5
				V42.5l4.9,0.5c-0.1,0.6-0.5,1-1.5,1.2v9.5h6.3V39.5l5,0.5c-0.1,0.6-0.4,1-1.5,1.2v4h5.6l2.2-2.7c0,0,2.4,1.9,4,3.3
				c-0.1,0.5-0.6,0.7-1.2,0.7H328v7.1h8.6L339.1,50.6z M309.3,38.5c2.5-2.5,4.2-5.7,5.4-9h-4.5l-0.4-1.3h5.9v-3.7
				c-1.6,0.3-3.3,0.5-4.8,0.6l-0.3-0.8c3.5-0.9,7.8-2.7,10-3.8l3.2,2.9c-0.4,0.4-1.1,0.3-2.1,0c-0.8,0.2-1.8,0.5-2.9,0.7v4.2h1.1
				l1.8-2.2c0,0,1.9,1.5,3.2,2.7c-0.1,0.5-0.5,0.7-1.1,0.7h-4.9v1c7.8,1.6,5.4,6.6,2.8,4.8c-0.4-1.3-1.6-2.9-2.8-4v8
				c0,0.3-1.1,1-2.6,1h-0.5v-6.4c-1.6,2.1-3.6,3.9-5.9,5.4L309.3,38.5z M323.5,38.3c2.9-2.3,5.1-5.5,6.5-8.8h-4.4l-0.4-1.3h6v-3.8
				c-1.7,0.2-3.5,0.4-5,0.5l-0.2-0.8c3.7-0.9,8.5-2.6,10.9-3.7l3.1,2.9c-0.4,0.4-1.2,0.3-2.2,0c-1,0.2-2.1,0.5-3.4,0.6v4.3h2.3
				l1.9-2.5c0,0,2.2,1.8,3.5,3.1c-0.1,0.5-0.5,0.7-1.1,0.7h-6.6v1.1c9.3,2.4,7.3,7.9,4.4,6.2c-0.8-1.6-2.7-3.6-4.4-5.1V39
				c0,0.3-1.1,1-2.6,1h-0.5v-6.9c-1.9,2.3-4.4,4.4-7.3,5.9L323.5,38.3z"/>
			<path class="st8" d="M358,32.2c9.1,3.5,6.2,9.6,3.1,7.2c-0.4-1.9-1.8-4.2-3.1-6v21.8c0,0.3-1.2,1.1-2.9,1.1h-0.6V38
				c-1.8,3.4-4.2,6.4-7.1,9l-0.6-0.6c3.4-4.7,5.8-10.9,7.1-17h-6.3l-0.4-1.3h7.2v-7.5c-2.3,0.5-4.7,0.9-7,1.2l-0.2-0.7
				c4.7-1.5,10.3-4.3,13.1-6.3l4.4,3.6c-0.4,0.4-1.3,0.5-2.5,0.1c-1.2,0.4-2.7,0.9-4.2,1.3v8.3h1.3l2-2.7c0,0,2.2,2,3.6,3.3
				c-0.1,0.5-0.5,0.7-1.2,0.7H358V32.2z M385.6,50.5c0,0,2.6,2.1,4.1,3.6c-0.1,0.5-0.5,0.7-1.2,0.7h-26.7l-0.4-1.3h12.3v-7.9h-9.3
				l-0.4-1.4h9.6V38c-3,0.4-6.1,0.7-9,0.9l-0.2-0.7c6.1-1.3,13.9-3.8,17.8-5.8l4.1,3.9c-0.5,0.4-1.3,0.4-2.5,0
				c-1.8,0.4-4.1,0.9-6.6,1.3v6.7h4.3l2.2-2.8c0,0,2.5,2,4.1,3.5c-0.1,0.5-0.6,0.7-1.2,0.7h-9.4v7.9h5.9L385.6,50.5z M369.4,31.5
				c0,0.4-1.5,1.1-3,1.1h-0.5V16.5l3.7,1.6h11.9l1.8-2l3.9,2.9c-0.3,0.4-0.9,0.7-1.8,0.9v11c0,0.3-1.8,1.1-3,1.1H382v-1.9h-12.6
				V31.5z M369.4,19.4v9.4H382v-9.4H369.4z"/>
		</g>
	</g>
</g>
</svg>
