<?xml version="1.0" encoding="utf-8"?>
<!-- Generator: Adobe Illustrator 27.2.0, SVG Export Plug-In . SVG Version: 6.00 Build 0)  -->
<svg version="1.1" id="圖層_1" xmlns="http://www.w3.org/2000/svg" xmlns:xlink="http://www.w3.org/1999/xlink" x="0px" y="0px"
	 viewBox="0 0 402.34 134.46" style="enable-background:new 0 0 402.34 134.46;" xml:space="preserve">
<style type="text/css">
	.st0{fill-rule:evenodd;clip-rule:evenodd;fill:#FFFFFF;}
	.st1{fill-rule:evenodd;clip-rule:evenodd;fill:#070304;}
	.st2{fill:#E05A49;}
	.st3{fill-rule:evenodd;clip-rule:evenodd;fill:#F5A274;}
	.st4{fill-rule:evenodd;clip-rule:evenodd;fill:#1B1311;stroke:#1B1311;stroke-width:0.41;stroke-miterlimit:10;}
	.st5{fill-rule:evenodd;clip-rule:evenodd;fill:#1B1311;stroke:#1B1311;stroke-width:0.205;stroke-miterlimit:10;}
	.st6{fill:#231815;}
	.st7{font-family:'LobsterTwo-Italic';}
	.st8{font-size:46.1778px;}
	.st9{font-family:'NotoSansTC-Regular-83pv-RKSJ-H';}
	.st10{font-size:45px;}
</style>
<g>
	<g id="logo" transform="translate(0 -54.5)">
		<g id="Group_535" transform="translate(-30 -43.202)">
			<path id="Path_1519" class="st0" d="M111.43,183.42c-1.03-1.13-1.22-1.45-1.32-2.28c-0.05-0.53,0.03-1.06,0.24-1.54
				c0.41-1.24,0.59-2.55,0.55-3.86c-0.22-5.64-2.71-10.95-6.91-14.73c-0.69-0.67-1.51-1.18-2.42-1.5c-0.66-0.2-1.16-0.74-1.3-1.42
				c0-0.53,0.32-0.79,0.96-0.82c0.34,0.02,0.67-0.13,0.89-0.41c1.49-1.66,2.72-3.54,3.67-5.56c2.13-4.52,3.37-9.4,3.67-14.38
				c0.13-3.05,0.08-6.1-0.14-9.14c-0.37-3.93-1.42-7.76-3.1-11.34c-1.09-2.58-2.89-4.81-5.18-6.43c-1.27-0.89-2.8-1.36-4.35-1.34
				c-3.86,0-7.63,3.12-10.24,8.45c-2.32,4.92-3.68,10.24-4.01,15.68c-0.13,3.07-0.08,6.15,0.15,9.21c0.22,1.92,0.57,3.82,1.03,5.69
				c0.51,1.96,1.13,3.88,1.87,5.77c0.19,0.43,0.21,0.53,0.1,0.69c-0.2,0.3-0.38,0.28-0.84-0.11c-0.76-0.57-1.63-0.97-2.56-1.16
				c-1.79-0.36-3.62-0.42-5.42-0.19c-1.08,0.05-2.11,0.51-2.87,1.28c-0.21,0.25-0.47,0.45-0.75,0.61c-0.33-0.09-0.57-0.36-0.64-0.69
				c0.06-0.31,0.15-0.62,0.28-0.91c1.18-3.05,2.03-6.21,2.52-9.44c0.57-4.47,0.6-8.99,0.09-13.46c-0.55-4.35-1.75-8.6-3.56-12.6
				c-2.24-4.73-5.3-7.75-8.75-8.62c-1.15-0.26-2.35-0.25-3.5,0.01c-2.23,0.69-4.18,2.1-5.54,3.99c-2.66,3.8-4.36,8.18-4.96,12.78
				c-0.91,5.96-0.73,12.04,0.53,17.93c0.99,4.66,3.02,9.04,5.94,12.81c0.72,0.86,0.85,0.95,1.47,1.04c0.43,0.04,0.78,0.38,0.83,0.81
				c0,0.44-0.48,0.91-1.33,1.31c-1.12,0.55-2.14,1.27-3.02,2.15c-2.79,2.7-4.77,6.13-5.73,9.89c-0.81,2.66-0.82,5.49-0.04,8.15
				c0.54,1.6,0.35,2.31-1.04,3.8c-2.54,2.61-4.3,5.88-5.06,9.44c-0.21,1.09-0.28,2.21-0.21,3.32c-0.07,1.11,0,2.23,0.21,3.32
				c1.21,5.37,4.61,9.98,9.38,12.72c2.55,1.53,5.34,2.6,8.26,3.17c1.96,0.49,3.89,1.12,5.77,1.87c3.82,1.15,7.75,1.86,11.73,2.11
				c4.83,0.43,9.69,0.14,14.43-0.86c1.45-0.31,2.85-0.79,4.19-1.44c1.86-0.95,3.8-1.75,5.79-2.38c1.54-0.5,3.04-1.12,4.49-1.86
				c5.63-2.67,9.68-7.85,10.91-13.96c0.22-1.81,0.24-3.64,0.05-5.45C115.95,189.74,114.15,186.2,111.43,183.42z"/>
			<path id="Path_1520" class="st0" d="M45.33,175.98c-0.03-1.03,0.05-2.07,0.23-3.09c0.97-5.52,3.94-10.48,8.34-13.94
				c0.3-0.19,0.57-0.41,0.83-0.66c-0.18-0.27-0.38-0.53-0.59-0.78c-3.1-3.84-5.38-9.66-6.49-16.49c-1.18-7-0.72-14.17,1.35-20.96
				c2.21-6.86,6.12-11.45,10.56-12.39c1.35-0.18,2.72-0.13,4.05,0.15c1.98,0.64,3.77,1.77,5.21,3.28c3.9,4.25,6.51,9.52,7.52,15.2
				c1.06,5.04,1.31,10.21,0.73,15.33c-0.33,3.08-1.05,6.11-2.14,9.01c-0.16,0.37-0.29,0.76-0.39,1.15c0.38-0.04,0.76-0.12,1.14-0.22
				c2.31-0.49,4.7-0.43,6.97,0.19c0.45,0.13,0.84,0.24,0.87,0.24c0.11,0,0.03-0.29-0.28-1.03c-1.94-5.25-2.82-10.83-2.58-16.42
				c0.14-6.01,1.57-11.92,4.19-17.33c2.58-4.96,5.97-8.31,9.49-9.37c1.33-0.35,2.72-0.41,4.07-0.19
				c6.77,1.38,11.81,10.72,12.56,23.31c0.16,3.75-0.11,7.51-0.79,11.2c-0.83,5.48-2.95,10.69-6.17,15.19
				c-0.22,0.24-0.41,0.51-0.57,0.8c0.22,0.25,0.47,0.46,0.75,0.64c2.18,1.64,4,3.7,5.35,6.07c3.08,5.2,4.04,11.36,2.44,15.62
				l-0.24,0.65l0.79,0.81c2.64,2.66,4.53,5.97,5.48,9.6c2.31,9.08-2.38,18.43-11.59,23.12c-1.28,0.66-2.61,1.21-3.98,1.65
				c-0.61,0.2-1.21,0.44-1.79,0.7c-0.49,0.23-1,0.44-1.51,0.62c-0.52,0.18-1.54,0.63-2.26,0.98c-0.71,0.35-1.74,0.78-2.27,0.98
				c-5.33,1.66-10.93,2.3-16.49,1.88c-5.25-0.27-10.46-1.2-15.48-2.75c-0.77-0.25-2.03-0.63-2.79-0.83s-1.76-0.51-2.22-0.68
				s-1.5-0.53-2.33-0.81c-5.89-1.82-10.82-5.89-13.74-11.32c-2.78-5.33-2.86-11.66-0.21-17.06c1-2.13,2.35-4.08,3.99-5.76l0.92-0.95
				l-0.35-1.03"/>
			<path id="Path_1521" class="st1" d="M59.56,107.67c-4.44,0.94-8.35,5.52-10.56,12.39c-2.07,6.79-2.53,13.96-1.35,20.95
				c1.11,6.84,3.4,12.66,6.49,16.49c0.21,0.25,0.41,0.51,0.59,0.78c-0.26,0.25-0.53,0.47-0.83,0.66c-4.4,3.46-7.37,8.43-8.34,13.95
				c-0.18,1.02-0.26,2.05-0.23,3.09c-0.09,1.47,0.12,2.93,0.6,4.32l0.35,1.03l-0.92,0.95c-1.64,1.68-2.99,3.63-3.99,5.75
				c-2.64,5.39-2.57,11.72,0.21,17.05c2.91,5.43,7.85,9.5,13.74,11.32c0.82,0.29,1.86,0.66,2.33,0.81c0.46,0.15,1.45,0.46,2.22,0.68
				c0.77,0.21,2.02,0.58,2.79,0.83c5.03,1.55,10.23,2.48,15.48,2.75c5.57,0.41,11.16-0.22,16.49-1.88c0.53-0.19,1.55-0.63,2.27-0.98
				c0.71-0.35,1.74-0.79,2.26-0.98c0.52-0.18,1.02-0.38,1.51-0.62c0.59-0.27,1.18-0.5,1.79-0.7c1.37-0.44,2.7-0.99,3.98-1.65
				c9.2-4.69,13.89-14.04,11.59-23.12c-0.95-3.63-2.84-6.94-5.48-9.6l-0.79-0.81l0.24-0.65c1.6-4.25,0.64-10.42-2.44-15.62
				c-1.35-2.37-3.18-4.43-5.35-6.07c-0.28-0.18-0.53-0.39-0.75-0.64c0.16-0.29,0.35-0.56,0.57-0.8c3.23-4.51,5.34-9.71,6.17-15.19
				c0.69-3.69,0.95-7.45,0.79-11.2c-0.75-12.59-5.79-21.93-12.56-23.31c-1.36-0.22-2.74-0.15-4.07,0.19
				c-3.52,1.06-6.92,4.41-9.49,9.37c-2.61,5.41-4.04,11.32-4.19,17.33c-0.24,5.59,0.63,11.17,2.58,16.42
				c0.31,0.74,0.39,1.03,0.28,1.03c-0.03,0-0.42-0.11-0.87-0.24c-2.28-0.62-4.67-0.69-6.97-0.19c-0.37,0.1-0.75,0.18-1.14,0.22
				c0.09-0.39,0.22-0.78,0.39-1.15c1.09-2.9,1.81-5.93,2.14-9.01c0.58-5.12,0.33-10.29-0.73-15.33c-1.01-5.68-3.62-10.96-7.52-15.2
				c-1.44-1.51-3.23-2.64-5.21-3.28C62.28,107.54,60.91,107.49,59.56,107.67z M63.06,108.88c3.45,0.88,6.51,3.9,8.75,8.62
				c1.81,4,3.01,8.24,3.56,12.6c0.52,4.47,0.49,8.99-0.09,13.46c-0.49,3.23-1.33,6.4-2.52,9.44c-0.13,0.29-0.22,0.59-0.28,0.91
				c0.07,0.33,0.31,0.6,0.64,0.69c0.29-0.15,0.54-0.36,0.75-0.61c0.76-0.77,1.79-1.23,2.87-1.28c1.81-0.23,3.64-0.16,5.42,0.19
				c0.93,0.19,1.8,0.59,2.56,1.16c0.46,0.39,0.64,0.41,0.84,0.11c0.12-0.17,0.1-0.26-0.1-0.69c-0.74-1.88-1.36-3.81-1.87-5.77
				c-0.47-1.87-0.81-3.77-1.03-5.69c-0.23-3.07-0.28-6.14-0.15-9.21c0.33-5.43,1.69-10.75,4.01-15.68c2.6-5.32,6.38-8.45,10.24-8.45
				c1.56-0.02,3.08,0.45,4.35,1.34c2.3,1.62,4.1,3.84,5.19,6.43c1.68,3.57,2.73,7.41,3.1,11.34c0.23,3.04,0.28,6.09,0.14,9.14
				c-0.29,4.98-1.54,9.87-3.67,14.38c-0.94,2.02-2.18,3.89-3.67,5.56c-0.21,0.27-0.54,0.42-0.89,0.41c-0.64,0.03-0.96,0.3-0.96,0.82
				c0.14,0.68,0.64,1.22,1.3,1.42c0.91,0.32,1.73,0.83,2.42,1.5c4.2,3.78,6.69,9.09,6.91,14.73c0.04,1.31-0.14,2.61-0.55,3.86
				c-0.21,0.49-0.29,1.02-0.24,1.54c0.1,0.82,0.29,1.15,1.32,2.28c2.72,2.78,4.51,6.33,5.15,10.17c0.19,1.81,0.18,3.64-0.05,5.45
				c-1.23,6.11-5.28,11.29-10.91,13.96c-1.44,0.74-2.94,1.36-4.49,1.86c-1.99,0.63-3.93,1.42-5.79,2.38
				c-1.33,0.64-2.74,1.13-4.19,1.44c-4.74,1-9.61,1.29-14.43,0.86c-3.98-0.25-7.92-0.96-11.73-2.11c-1.88-0.75-3.81-1.38-5.77-1.87
				c-2.92-0.57-5.71-1.64-8.26-3.17c-4.77-2.74-8.17-7.35-9.38-12.71c-0.21-1.1-0.29-2.21-0.21-3.33c-0.07-1.11,0.01-2.23,0.21-3.32
				c0.77-3.56,2.52-6.84,5.06-9.44c1.39-1.5,1.58-2.2,1.04-3.8c-0.78-2.66-0.77-5.5,0.04-8.15c0.96-3.76,2.94-7.18,5.73-9.89
				c0.88-0.88,1.9-1.61,3.02-2.15c0.85-0.41,1.33-0.87,1.33-1.31c-0.05-0.43-0.4-0.77-0.83-0.81c-0.62-0.1-0.74-0.18-1.47-1.04
				c-2.92-3.77-4.95-8.15-5.94-12.81c-1.26-5.9-1.44-11.97-0.53-17.93c0.59-4.6,2.29-8.99,4.96-12.78c1.36-1.9,3.31-3.3,5.54-3.99
				C60.71,108.63,61.91,108.63,63.06,108.88z"/>
			<path id="Path_1522" class="st1" d="M77.12,192.95c-0.76,0.06-1.49,0.28-2.15,0.65c-1.13,0.47-1.86,1.58-1.85,2.8
				c0.26,1.55,1.94,2.7,4.4,3.06c0.74,0.1,0.8,0.13,0.84,0.35c0.01,0.66-0.21,1.3-0.62,1.82c-1.41,1.53-3.33,2.48-5.4,2.68
				c-1.48,0.21-2.99,0.14-4.44-0.21c-1.45-0.25-2.69-1.2-3.3-2.54c-0.16-0.51-0.19-0.55-0.46-0.55s-0.29,0.02-0.32,0.42
				c-0.02,0.37,0.07,0.73,0.26,1.04c0.72,1.27,1.92,2.21,3.33,2.6c3.76,1.2,8.28,0.18,10.58-2.38c0.2-0.24,0.42-0.47,0.66-0.68
				c0.15,0.14,0.28,0.3,0.38,0.48c1.47,2.29,5.38,3.84,8.78,3.48c1.66-0.08,3.26-0.66,4.59-1.67c1.08-0.94,1.77-2.67,1.17-2.91
				c-0.26-0.1-0.42,0.05-0.62,0.6c-0.35,0.99-1.12,1.76-2.11,2.11c-3.19,1.28-6.8,0.96-9.72-0.86c-1.12-0.59-1.85-1.73-1.91-3
				c-0.01-0.78-0.16-0.66,1.24-0.98c1.93-0.43,3.25-1.75,3.11-3.1c-0.07-0.66-0.39-1.27-0.91-1.7c-0.94-0.86-2.14-1.38-3.41-1.49
				C78.55,192.85,77.83,192.83,77.12,192.95z M78.08,193.48c0.38,0.19,0.42,0.38,0.18,0.68c-0.24,0.25-0.55,0.43-0.89,0.52
				c-0.15,0-0.35-0.36-0.35-0.65C77.03,193.41,77.48,193.17,78.08,193.48L78.08,193.48z M76.55,194.1c0.31,0.17,0.21,0.36-0.36,0.69
				c-1.07,0.61-1.49,1.12-1.49,1.81c0,0.41-0.21,0.71-0.47,0.66c-0.09-0.02-0.23-0.19-0.34-0.41c-0.15-0.27-0.18-0.59-0.07-0.88
				c0.17-0.87,0.79-1.59,1.63-1.88C75.82,193.98,76.2,193.99,76.55,194.1L76.55,194.1z"/>
			<g id="Group_530" transform="translate(2.696 64.324)">
				<path id="Path_1523" class="st1" d="M48.72,128.83c-0.76,0.12-1.51,0.36-2.2,0.7c-1.48,0.53-2.82,1.41-3.89,2.56
					c-1.11,1.11-1.77,2.59-1.85,4.16c0.05,1.22,0.55,2.37,1.39,3.25c1.5,1.43,3.53,2.17,5.6,2.04c4.61,0,8.9-2.84,9.7-6.41
					c0.16-0.94,0.1-1.9-0.18-2.81c-0.79-1.73-2.36-2.97-4.22-3.36C51.64,128.69,50.17,128.64,48.72,128.83z M52.4,130.08
					c1.49,0.29,2.79,1.18,3.6,2.47c0.96,1.97-0.1,4.42-2.64,6.17c-1,0.61-2.07,1.09-3.19,1.41c-0.78,0.21-1.59,0.3-2.39,0.26
					c-0.74,0.05-1.48-0.02-2.2-0.21c-1.38-0.29-2.57-1.16-3.26-2.39c-1.02-2.06,0.11-4.56,2.86-6.38c0.82-0.58,1.75-0.97,2.74-1.14
					c0.56-0.13,1.1-0.25,1.2-0.26C50.22,129.92,51.32,129.94,52.4,130.08z"/>
				
					<ellipse id="Ellipse_231" transform="matrix(0.9664 -0.2571 0.2571 0.9664 -33.1004 17.1859)" class="st2" cx="49.17" cy="135.17" rx="7.78" ry="5.25"/>
			</g>
			<g id="Group_531" transform="translate(43.852 65.064)">
				<path id="Path_1524" class="st1" d="M58.43,129.21c-1.86,0.39-3.42,1.63-4.22,3.36c-0.28,0.91-0.34,1.87-0.18,2.81
					c0.79,3.57,5.08,6.41,9.7,6.41c2.07,0.13,4.1-0.6,5.6-2.03c0.84-0.88,1.34-2.04,1.39-3.25c-0.08-1.57-0.74-3.05-1.85-4.16
					c-1.07-1.16-2.4-2.04-3.89-2.57c-0.69-0.34-1.44-0.58-2.2-0.7C61.34,128.87,59.87,128.92,58.43,129.21z M62.38,130.24
					c0.11,0.02,0.65,0.15,1.21,0.26c0.99,0.17,1.92,0.56,2.74,1.14c2.76,1.81,3.89,4.31,2.87,6.38c-0.69,1.23-1.88,2.1-3.26,2.39
					c-0.72,0.19-1.46,0.27-2.2,0.21c-0.81,0.04-1.61-0.05-2.39-0.26c-1.12-0.32-2.2-0.8-3.19-1.41c-2.55-1.76-3.6-4.21-2.64-6.17
					c0.8-1.29,2.11-2.18,3.6-2.47C60.19,130.17,61.29,130.15,62.38,130.24z"/>
				
					<ellipse id="Ellipse_232" transform="matrix(0.2571 -0.9664 0.9664 0.2571 -84.553 160.8211)" class="st2" cx="62.32" cy="135.41" rx="5.25" ry="7.78"/>
			</g>
			<g id="Group_532" transform="translate(36.725 4.709)">
				<path id="Path_1525" class="st3" d="M59.16,109.81c-1.14,0.14-2.38,1.64-2.92,2.31c-0.75,0.97-1.33,2.07-1.72,3.23
					c-0.67,1.77-1.17,3.6-1.47,5.46c-0.39,2.27-0.62,4.57-0.68,6.87c-0.16,6.21-0.27,10.42,1.54,15.29c1.07,2.86,2.31,6.2,4.37,6.39
					c3.37,0.3,6.57-8.06,7.33-10.03c1.52-3.57,2.28-7.42,2.25-11.29C67.65,118.59,62.26,109.42,59.16,109.81z"/>
				<path id="Path_1526" class="st4" d="M58.43,109.19c-3.6,0.96-6.43,7.45-7.14,16.34c-0.14,2.57-0.15,5.15-0.01,7.72
					c0.23,4.38,1.24,8.69,2.96,12.72c0.51,1.13,1.17,2.19,1.97,3.14c0.36,0.42,0.72,0.89,0.81,1.03c0.26,0.31,0.65,0.49,1.06,0.46
					c0.72,0,3.04-1.74,4.35-3.28c3.12-3.63,4.98-8.4,5.76-14.76c0.16-2.52,0.16-5.05,0-7.57c-0.8-6.64-3.17-11.92-6.72-14.9
					C60.22,109.04,59.62,108.87,58.43,109.19z M59.96,110.01c0.75,0.5,1.41,1.11,1.96,1.82c2.86,3.68,4.61,8.1,5.06,12.73
					c0.24,2.86,0.24,5.73,0,8.59c-0.48,4.17-1.89,8.18-4.12,11.74c-1.1,1.69-2.53,3.13-4.22,4.24l-0.42,0.25l-0.62-0.62
					c-5.26-5.2-7.03-22.15-3.41-32.63c0.4-1.25,0.96-2.45,1.66-3.56c0.75-1.07,1.74-1.96,2.89-2.59
					C59.1,109.72,59.6,109.73,59.96,110.01L59.96,110.01z"/>
			</g>
			<g id="Group_534" transform="translate(10.216 4.888)">
				<g id="Group_533" transform="translate(0.341 0.574)">
					<path id="Path_1527" class="st3" d="M51.52,109.29c1.14,0.14,2.38,1.64,2.92,2.31c0.75,0.97,1.33,2.07,1.72,3.23
						c0.67,1.77,1.17,3.6,1.47,5.46c0.39,2.27,0.62,4.57,0.68,6.88c0.16,6.21,0.27,10.42-1.54,15.29c-1.07,2.86-2.31,6.2-4.37,6.39
						c-3.37,0.3-6.57-8.06-7.33-10.03c-1.52-3.57-2.28-7.42-2.25-11.3C43.03,118.08,48.42,108.91,51.52,109.29z"/>
				</g>
				<path id="Path_1528" class="st5" d="M49.54,110.15c-3.54,2.98-5.91,8.26-6.71,14.91c-0.16,2.52-0.16,5.05,0,7.57
					c0.78,6.36,2.64,11.13,5.76,14.76c1.32,1.54,3.63,3.28,4.35,3.28c0.41,0.02,0.8-0.15,1.06-0.46c0.09-0.15,0.45-0.61,0.81-1.03
					c0.8-0.95,1.46-2.01,1.97-3.14c1.73-4.04,2.73-8.35,2.97-12.74c0.14-2.57,0.13-5.15-0.01-7.72c-0.71-8.9-3.54-15.38-7.14-16.34
					C51.38,108.93,50.79,109.1,49.54,110.15z M52.28,110.04c1.15,0.63,2.14,1.51,2.89,2.59c0.7,1.11,1.26,2.31,1.66,3.56
					c3.62,10.48,1.85,27.43-3.42,32.63l-0.62,0.62l-0.42-0.25c-1.69-1.1-3.13-2.54-4.22-4.24c-2.23-3.56-3.64-7.57-4.12-11.74
					c-0.24-2.86-0.24-5.73,0-8.59c0.45-4.64,2.21-9.05,5.06-12.73c0.55-0.71,1.21-1.33,1.96-1.83
					C51.41,109.79,51.91,109.78,52.28,110.04z"/>
			</g>
			<path id="Path_1529" class="st1" d="M62.48,178.21c-0.86,0.22-1.66,0.65-2.31,1.26c-0.69,0.58-1.22,1.32-1.53,2.17
				c-0.22,0.97-0.27,1.97-0.15,2.96c0.59,2.96,3.47,4.87,6.43,4.28c2.54-0.51,4.38-2.74,4.39-5.33c0.02-0.86-0.18-1.72-0.58-2.48
				c-0.64-1.31-1.78-2.3-3.17-2.76C64.56,178,63.5,177.97,62.48,178.21z M62.61,180.06c0.77,0.67,0.86,1.83,0.19,2.61
				c-0.09,0.1-0.19,0.2-0.3,0.28c-0.57,0.46-1.4,0.37-1.86-0.19c-0.07-0.09-0.13-0.19-0.18-0.29c-0.29-0.5-0.28-1.13,0.03-1.62
				c0.23-0.75,1.03-1.17,1.78-0.93C62.39,179.94,62.5,179.99,62.61,180.06L62.61,180.06z"/>
			<path id="Path_1530" class="st1" d="M92.11,178.3c-1.39,0.46-2.53,1.45-3.17,2.76c-0.4,0.76-0.6,1.62-0.58,2.48
				c0,3.02,2.44,5.46,5.46,5.46c2.61,0,4.85-1.85,5.36-4.41c0.12-0.99,0.07-1.99-0.15-2.95c-0.31-0.84-0.84-1.59-1.53-2.16
				c-0.65-0.61-1.44-1.05-2.31-1.26C94.17,177.97,93.11,178,92.11,178.3z M97.17,180.84c0.31,0.49,0.32,1.12,0.03,1.62
				c-0.3,0.66-1.08,0.96-1.74,0.66c-0.1-0.05-0.2-0.11-0.29-0.18c-0.82-0.61-0.99-1.77-0.38-2.58c0.08-0.11,0.17-0.21,0.28-0.3
				c0.66-0.42,1.54-0.22,1.96,0.44C97.08,180.6,97.14,180.72,97.17,180.84z"/>
		</g>
	</g>
	<g>
		<text transform="matrix(1 0 0 1 159.5707 108.0414)" class="st6 st7 st8">M-Learning</text>
		<text transform="matrix(1 0 0 1 109.0301 52.6549)" class="st6 st9 st10">我的 學習歷程</text>
	</g>
</g>
</svg>
