<?xml version="1.0" encoding="utf-8"?>
<!-- Generator: Adobe Illustrator 27.2.0, SVG Export Plug-In . SVG Version: 6.00 Build 0)  -->
<svg version="1.1" id="eyes" xmlns="http://www.w3.org/2000/svg" xmlns:xlink="http://www.w3.org/1999/xlink" x="0px" y="0px"
	 viewBox="0 0 347.2 500" style="enable-background:new 0 0 347.2 500;" xml:space="preserve">
<style type="text/css">
	.st0{fill-rule:evenodd;clip-rule:evenodd;fill:#FFFFFF;}
	.st1{fill-rule:evenodd;clip-rule:evenodd;}
	.st2{fill:#F2755F;}
	.st3{fill-rule:evenodd;clip-rule:evenodd;fill:#FFB88A;}
	.st4{fill-rule:evenodd;clip-rule:evenodd;fill:#231815;stroke:#231815;stroke-miterlimit:10;}
	.st5{fill:none;stroke:#231815;stroke-width:8;stroke-linecap:round;stroke-linejoin:round;}
</style>
<g>
	<path class="st0" d="M315.7,332.8c-4.5-5-5.4-6.4-5.8-10c-0.2-2-0.1-3,1.1-6.8c1.9-5.9,2.4-10,2.4-16.9
		c-0.1-22.9-12.9-50.1-30.3-64.6c-4.8-4-8.1-6-10.6-6.6c-2.6-0.6-5.7-3.9-5.7-6.2s1.4-3.5,4.2-3.6c1.9-0.1,2.4-0.3,3.9-1.8
		c4.6-4.5,11.1-14.3,16.1-24.4c8.9-18.3,14.1-38.5,16.1-63.1c0.6-8.3,0.3-32.3-0.6-40.1c-2.4-19.8-6.6-35.6-13.6-49.7
		c-6.6-13.6-13.5-22-22.7-28.2C263.8,6.8,258.1,5,251,5c-16.9,0-33.5,13.7-44.9,37c-9.7,20-15.7,43.4-17.6,68.8
		c-0.6,8.7-0.2,31.9,0.7,40.4c0.8,7.5,2.4,16.3,4.5,25c1.7,6.9,6.4,21.4,8.2,25.3c0.9,1.9,0.9,2.3,0.4,3.1c-0.9,1.3-1.6,1.2-3.7-0.5
		c-2.5-2.1-6.1-3.8-11.2-5.1c-5.6-1.5-17.2-1.9-23.8-0.9c-6.4,1-9.5,2.4-12.6,5.6c-1.4,1.5-2.9,2.7-3.3,2.7c-1.1,0-2.8-1.9-2.8-3.1
		c0-0.6,0.6-2.3,1.2-4c4.7-11.6,9-27.7,11-41.4c2.5-16.9,2.7-41.3,0.4-59c-2.4-19.2-8.2-39.6-15.6-55.2c-9.8-20.7-23.2-34-38.4-37.8
		c-4.3-1.1-11-1.1-15.4,0c-8.7,2.2-17.1,8.3-24.3,17.5c-10.3,13.1-18.1,33.2-21.8,56c-4,24.9-3.2,54.2,2.3,78.6
		c4.9,21.6,14.7,42.8,26.1,56.2c3.2,3.8,3.7,4.1,6.4,4.6c2.1,0.3,3.6,1.9,3.6,3.6c0,1.9-2.1,4-5.8,5.8c-4.7,2.3-8.6,5-13.2,9.4
		c-11.9,11.3-20.9,26.8-25.1,43.4c-3.5,13.8-3.6,25.8-0.2,35.8c2.4,7,1.5,10.1-4.6,16.7c-11.9,12.7-18.8,25.7-22.2,41.4
		c-0.8,3.9-0.9,5.6-0.9,14.5S8.6,400,9.5,404c5,23.1,19.5,42.7,41.1,55.8c10.9,6.6,22.4,11,36.2,13.9c5.1,1.1,14.8,4.2,25.3,8.2
		c9.9,3.8,32.5,7.9,51.4,9.3c23.2,1.7,45.6,0.4,63.3-3.8c7.6-1.8,15.3-4.4,18.4-6.3c4.1-2.4,10.2-5,25.4-10.4
		c10.5-3.8,13.5-5,19.7-8.2c25.8-13.1,43.1-35.3,47.9-61.2c0.9-5.2,1.1-19,0.2-23.9C335.3,360.1,328.7,347.1,315.7,332.8
		L315.7,332.8z"/>
	<path class="st0" d="M25.8,300.1c0-6.5,0.2-9.1,1-13.5c4.3-24.2,18.5-48,36.6-61.1c2-1.4,3.6-2.8,3.6-2.9c0-0.1-1.2-1.7-2.6-3.4
		c-13.6-16.8-23.6-42.3-28.5-72.3c-5.1-31.4-3-64.2,5.9-91.9C51.7,24.8,68.8,4.7,88.2,0.6c4.2-0.9,13.7-0.5,17.8,0.7
		c7.8,2.2,15.6,7.2,22.9,14.4c15.5,15.5,27.1,38.9,33,66.7c4.6,22.1,5.9,47.7,3.2,67.2c-2.3,17.1-4.8,27.7-9.4,39.5
		c-1.1,2.7-1.8,4.9-1.7,5c0.1,0.1,2.4-0.3,5-1c9.1-2.2,21.1-1.9,30.6,0.9c2,0.6,3.7,1.1,3.8,1.1c0.5,0,0.1-1.3-1.2-4.5
		c-7.8-18.6-12.6-48.8-11.3-72c1.7-30.6,7.7-55.2,18.4-76C210.5,20.7,225.4,6,240.9,1.4c5-1.5,12.8-1.9,17.9-0.9
		c29.7,6.1,51.8,47,55.1,102.2c0.9,14.5-0.5,33-3.5,49.1c-5.1,27.5-14.6,51-27.1,66.6c-1.4,1.7-2.5,3.3-2.5,3.5s1.5,1.5,3.3,2.8
		c9.5,7.1,16.8,15.4,23.5,26.6c13.5,22.8,17.7,49.8,10.7,68.5l-1.1,2.8l3.5,3.5c11.5,11.6,20.1,26.7,24,42.1
		c10.1,39.8-10.5,80.8-50.8,101.4c-6,3-9.6,4.6-17.5,7.2c-3,1-6.5,2.4-7.9,3.1c-1.3,0.7-4.3,1.9-6.6,2.7c-2.3,0.8-6.8,2.8-9.9,4.3
		c-3.1,1.5-7.6,3.4-9.9,4.3c-18.5,6.7-45.9,9.8-72.3,8.2c-24.4-1.4-47.7-5.6-67.9-12.1c-3.4-1.1-8.9-2.8-12.2-3.6
		c-3.4-0.9-7.7-2.2-9.7-3c-2-0.7-6.6-2.3-10.2-3.5c-27.7-9.5-48.5-26.7-60.2-49.6C-2.8,403.9-3.1,377.2,8.5,353
		c4.7-9.9,10.1-17.6,17.5-25.3l4-4.1l-1.5-4.5"/>
	<path class="st1" d="M88.2,0.6C68.8,4.7,51.6,24.8,42,54.9c-8.9,27.7-11,60.4-5.9,91.9c4.9,30,14.9,55.5,28.5,72.3
		c1.4,1.7,2.6,3.3,2.6,3.4c0,0.2-1.7,1.5-3.6,2.9c-18.1,13.1-32.3,36.9-36.6,61.1c-0.8,4.4-1,7.1-1,13.5c0,9.1,0.4,12.2,2.6,19
		l1.5,4.5l-4,4.1c-7.4,7.7-12.8,15.4-17.5,25.3c-11.6,24.2-11.2,50.9,0.9,74.8c11.8,22.9,32.6,40.1,60.2,49.6
		c3.6,1.3,8.2,2.9,10.2,3.5c2,0.7,6.3,2,9.7,3c3.3,0.9,8.8,2.5,12.2,3.6c20.2,6.5,43.4,10.6,67.9,12.1c26.4,1.6,53.9-1.6,72.3-8.2
		c2.3-0.9,6.8-2.8,9.9-4.3s7.6-3.5,9.9-4.3c2.3-0.8,5.3-2,6.6-2.7c1.4-0.7,4.9-2.1,7.9-3.1c7.8-2.7,11.5-4.2,17.5-7.2
		c40.4-20.6,60.9-61.5,50.8-101.4c-3.9-15.4-12.5-30.5-24-42.1l-3.5-3.5l1.1-2.8c7-18.7,2.8-45.7-10.7-68.5
		c-6.6-11.2-14-19.5-23.5-26.6c-1.8-1.3-3.3-2.6-3.3-2.8s1.1-1.8,2.5-3.5c12.4-15.6,22-39.1,27.1-66.6c3-16.2,4.3-34.7,3.5-49.1
		c-3.3-55.2-25.4-96.2-55.1-102.2c-5-1-12.8-0.6-17.9,0.9c-15.4,4.6-30.3,19.3-41.6,41.1c-10.7,20.7-16.7,45.3-18.4,76
		c-1.3,23.2,3.5,53.4,11.3,72c1.4,3.3,1.7,4.5,1.2,4.5c-0.1,0-1.8-0.5-3.8-1.1c-9.4-2.7-21.5-3.1-30.6-0.9c-2.6,0.6-4.9,1.1-5,1
		c-0.1-0.1,0.6-2.4,1.7-5c4.6-11.9,7.1-22.4,9.4-39.5c2.7-19.6,1.4-45.1-3.2-67.2c-5.9-27.8-17.5-51.2-33-66.7
		C121.6,8.5,113.8,3.5,106,1.3C102,0.1,92.4-0.2,88.2,0.6L88.2,0.6z M103.6,5.9C118.8,9.8,132.2,23,142,43.7
		c7.4,15.6,13.2,36,15.6,55.2c2.3,17.7,2.1,42.1-0.4,59c-2,13.7-6.3,29.8-11,41.4c-0.7,1.6-1.2,3.4-1.2,4c0,1.1,1.7,3.1,2.8,3.1
		c0.4,0,1.9-1.2,3.3-2.7c3.1-3.3,6.2-4.6,12.6-5.6c6.6-1.1,18.2-0.6,23.8,0.9c5.1,1.3,8.7,3,11.2,5.1c2,1.7,2.8,1.8,3.7,0.5
		c0.5-0.8,0.4-1.1-0.4-3.1c-1.8-3.9-6.5-18.4-8.2-25.3c-2.1-8.6-3.7-17.4-4.5-25c-0.9-8.5-1.3-31.7-0.7-40.4
		c1.9-25.4,7.9-48.8,17.6-68.8c11.4-23.4,28-37,44.9-37c7.1,0,12.8,1.7,19.1,5.9c9.2,6.1,16.1,14.6,22.7,28.2
		c6.9,14.1,11.2,29.9,13.6,49.7c0.9,7.7,1.3,31.7,0.6,40.1c-2,24.6-7.1,44.8-16.1,63.1c-5,10.1-11.4,19.9-16.1,24.4
		c-1.5,1.4-2,1.7-3.9,1.8c-2.8,0.1-4.2,1.3-4.2,3.6s3.1,5.7,5.7,6.2c2.5,0.6,5.8,2.6,10.6,6.6c17.4,14.5,30.2,41.8,30.3,64.6
		c0,6.9-0.5,11-2.4,16.9c-1.1,3.7-1.3,4.8-1.1,6.8c0.4,3.6,1.3,5,5.8,10c13,14.3,19.6,27.3,22.6,44.6c0.9,4.9,0.7,18.7-0.2,23.9
		c-4.7,25.9-22.1,48.1-47.9,61.2c-6.2,3.2-9.2,4.4-19.7,8.2c-15.1,5.5-21.3,8-25.4,10.4c-3.1,1.9-10.8,4.5-18.4,6.3
		c-17.7,4.2-40.1,5.5-63.3,3.8c-18.9-1.4-41.5-5.5-51.4-9.3c-10.5-4-20.2-7.1-25.3-8.2c-13.8-2.9-25.3-7.3-36.2-13.9
		c-21.7-13-36.1-32.6-41.1-55.8c-0.9-3.9-0.9-5.6-0.9-14.6s0.1-10.7,0.9-14.5c3.4-15.7,10.4-28.7,22.2-41.4
		c6.1-6.6,6.9-9.6,4.6-16.7c-3.4-10-3.3-22,0.2-35.8c4.3-16.6,13.2-32,25.1-43.4c4.7-4.4,8.5-7.1,13.2-9.4c3.7-1.8,5.8-3.8,5.8-5.8
		c0-1.7-1.6-3.2-3.6-3.6c-2.7-0.4-3.3-0.8-6.4-4.6c-11.4-13.4-21.2-34.6-26.1-56.2c-5.5-24.4-6.3-53.7-2.3-78.7
		c3.7-22.8,11.5-42.9,21.7-56C71.1,14.3,79.6,8.2,88.2,6C92.6,4.8,99.3,4.8,103.6,5.9L103.6,5.9z"/>
	<path class="st1" d="M165.3,374.6c-3.8,0.4-6.1,1.1-9.4,2.8c-5.4,2.8-8.8,8-8.1,12.3c1.2,6.8,8.5,11.9,19.3,13.4
		c3.3,0.4,3.5,0.5,3.7,1.5c0.3,2.1-0.9,5.5-2.7,8c-4.1,5.7-13.2,10.1-23.7,11.8c-6.2,0.9-14.5,0.5-19.5-0.9
		c-7.9-2.3-12.9-6.2-14.5-11.1c-0.7-2.2-0.8-2.4-2-2.4s-1.3,0.1-1.4,1.9c-0.1,1.4,0.2,2.5,1.2,4.6c2.5,5.1,7.9,9.2,14.6,11.4
		c16.5,5.2,36.3,0.8,46.4-10.4c1.4-1.6,2.8-3,2.9-3c0.2,0,0.9,0.9,1.6,2.1c6.4,10,23.6,16.8,38.5,15.3c8.7-0.9,15.6-3.4,20.1-7.3
		c4.7-4.1,7.8-11.7,5.1-12.8c-1.1-0.4-1.8,0.2-2.7,2.6c-1.6,4.4-4,6.8-9.3,9.3c-12.3,5.8-30.8,4.1-42.6-3.8
		c-5.7-3.8-8.2-7.9-8.4-13.2c0-3.4-0.7-2.9,5.5-4.3c8.5-1.9,14.3-7.7,13.6-13.6c-0.3-2.9-1.4-5.1-4-7.5c-3.9-3.6-8.1-5.5-14.9-6.5
		C170.3,374.1,169.6,374.1,165.3,374.6L165.3,374.6z M169.4,376.9c1.6,0.9,1.9,1.6,0.8,3c-0.7,0.9-3.1,2.3-3.9,2.3
		c-0.7,0-1.5-1.6-1.5-2.8C164.8,376.6,166.8,375.5,169.4,376.9z M162.8,379.6c1.4,0.8,0.9,1.6-1.6,3c-4.7,2.7-6.5,4.9-6.5,8
		c0,1.8-0.9,3.1-2.1,2.9c-0.4-0.1-1-0.9-1.5-1.8c-0.7-1.4-0.7-1.9-0.3-3.9c0.9-4,3.7-7.2,7.1-8.2
		C159.6,379.1,161.8,379.1,162.8,379.6L162.8,379.6z"/>
	<g>
		<path class="st1" d="M52.5,375.5c-3.6,0.6-4.8,1-9.6,3.1c-8.2,3.4-12.1,6-17,11.2c-5.1,5.4-8.1,12.2-8.1,18.2
			c0,4.8,2.5,10.6,6.1,14.3c5.9,6,13.9,8.9,24.6,8.9c20.2,0,39-12.4,42.5-28.1c0.8-3.4,0.3-9.3-0.8-12.3
			c-2.7-6.9-9.4-12.3-18.5-14.7C67.2,374.9,57.5,374.6,52.5,375.5L52.5,375.5z M68.7,381c6.8,1.4,13.5,6,15.8,10.8
			c4.2,8.6-0.4,19.4-11.6,27.1c-3.2,2.2-9.6,5-14,6.2c-3.5,0.9-5.1,1.1-10.5,1.1c-5.4,0-6.8-0.1-9.7-0.9c-7-2-11.9-5.6-14.3-10.5
			c-4.5-9,0.5-20,12.6-28c4.5-2.9,6.6-3.8,12-5c2.5-0.5,4.8-1.1,5.3-1.2C56.4,380.2,65.9,380.4,68.7,381L68.7,381z"/>
		
			<ellipse transform="matrix(0.9663 -0.2575 0.2575 0.9663 -101.9887 27.6324)" class="st2" cx="54.5" cy="403.3" rx="34.1" ry="23"/>
	</g>
	<g>
		<path class="st1" d="M275.6,380.4c-9.1,2.5-15.8,7.8-18.5,14.7c-1.1,3-1.6,8.9-0.8,12.3c3.5,15.6,22.3,28.1,42.5,28.1
			c10.7,0,18.7-2.9,24.6-8.9c3.6-3.6,6.1-9.5,6.1-14.3c0-6-3-12.9-8.1-18.2c-5-5.2-8.9-7.8-17-11.2c-4.9-2.1-6-2.5-9.6-3.1
			C289.7,378.8,280,379.2,275.6,380.4L275.6,380.4z M292.9,384.9c0.5,0.1,2.8,0.6,5.3,1.2c5.4,1.2,7.5,2.1,12,5
			c12.1,8,17,18.9,12.6,28c-2.4,4.9-7.3,8.5-14.3,10.5c-2.8,0.8-4.3,0.9-9.6,0.9c-5.4,0-6.9-0.2-10.5-1.1c-4.4-1.2-10.8-4-14-6.2
			c-11.2-7.7-15.8-18.5-11.6-27.1c2.3-4.8,9-9.4,15.8-10.8C281.3,384.6,290.8,384.4,292.9,384.9L292.9,384.9z"/>
		
			<ellipse transform="matrix(0.2575 -0.9663 0.9663 0.2575 -176.4766 585.4374)" class="st2" cx="292.7" cy="407.5" rx="23" ry="34.1"/>
	</g>
	<g>
		<path class="st3" d="M247.5,30.6c-5,0.6-10.4,7.2-12.8,10.1c-1.7,2.1-4.3,5.7-7.5,14.2c-3.6,9.3-5.3,17.3-6.4,24
			c-2.5,14.3-2.9,25.7-3,30.2c-0.7,27.2-1.2,45.7,6.8,67c4.7,12.6,10.1,27.2,19.2,28c14.8,1.3,28.8-35.3,32.1-44
			c4.3-11.2,10.4-27.5,9.9-49.5C284.8,69.1,261.1,28.9,247.5,30.6L247.5,30.6z"/>
		<path class="st4" d="M244.3,27.9c-15.8,4.2-28.2,32.7-31.3,71.7c-0.6,7.6-0.6,26.2,0,33.8c1.7,22.2,6.3,41.6,13,55.8
			c2.9,6,5,9.5,8.6,13.8c1.6,1.9,3.2,3.9,3.6,4.5c0.8,1.2,2.6,2,4.6,2c3.2,0,13.3-7.6,19.1-14.4c13.7-15.9,21.8-36.8,25.3-64.7
			c0.7-5.9,0.7-27.1,0-33.2c-3.5-29.2-13.9-52.3-29.4-65.4C252.2,27.2,249.6,26.5,244.3,27.9L244.3,27.9z M251,31.5
			c2.5,1.5,5.5,4.3,8.6,8c11.5,13.8,18.9,32.2,22.2,55.8c1.1,7.7,1.1,29.7,0,37.7c-2.7,20-8.9,37.7-18.1,51.5
			c-5.1,7.7-12.3,14.9-18.5,18.6l-1.9,1.1l-2.7-2.7c-23.1-22.8-30.8-97.1-15-143.1c0.6-1.8,2.7-8.5,7.3-15.6c0,0,4.7-7.2,12.7-11.4
			C246.3,31.1,248,29.6,251,31.5L251,31.5z"/>
	</g>
	<g>
		<path class="st3" d="M99.2,31.7c5,0.6,10.4,7.2,12.8,10.1c1.7,2.1,4.3,5.7,7.5,14.2c3.6,9.3,5.3,17.3,6.4,24
			c2.5,14.3,2.9,25.7,3,30.2c0.7,27.2,1.2,45.7-6.8,67c-4.7,12.6-10.1,27.2-19.2,28c-14.8,1.3-28.8-35.3-32.1-44
			c-4.3-11.2-10.3-27.5-9.9-49.5C62,70.2,85.7,30,99.2,31.7L99.2,31.7z"/>
		<path class="st4" d="M89.1,32.9C73.6,46,63.2,69.1,59.7,98.2c-0.7,6.1-0.7,27.3,0,33.2c3.4,27.9,11.6,48.8,25.3,64.7
			c5.8,6.8,15.9,14.4,19.1,14.4c2,0,3.8-0.8,4.7-2c0.4-0.6,2-2.7,3.6-4.5c3.6-4.3,5.8-7.8,8.6-13.8c6.7-14.2,11.2-33.6,13-55.8
			c0.6-7.7,0.6-26.3,0-33.8c-3.1-39-15.5-67.4-31.3-71.7C97.2,27.5,94.6,28.3,89.1,32.9L89.1,32.9z M101.1,32.4
			c8,4.1,12.7,11.4,12.7,11.4c4.6,7.1,6.6,13.8,7.3,15.6c15.9,45.9,8.1,120.3-15,143.1l-2.7,2.7l-1.9-1.1
			c-6.2-3.6-13.4-10.9-18.5-18.6C73.9,171.7,67.6,154,64.9,134c-1.1-8-1.1-29.9,0-37.7c3.3-23.6,10.7-42.1,22.2-55.8
			c3.1-3.7,6.1-6.5,8.6-8C98.8,30.7,100.5,32.1,101.1,32.4L101.1,32.4z"/>
	</g>
	<g>
		<line class="st5" x1="81.6" y1="308.9" x2="136.4" y2="329.4"/>
		<line class="st5" x1="83.7" y1="360.1" x2="134.4" y2="330.9"/>
	</g>
	<g>
		<line class="st5" x1="265" y1="309.6" x2="210.2" y2="330.1"/>
		<line class="st5" x1="262.9" y1="360.9" x2="212.2" y2="331.6"/>
	</g>
</g>
</svg>
