<?xml version="1.0" encoding="UTF-8"?><svg id="eyes" xmlns="http://www.w3.org/2000/svg" viewBox="0 0 347.21 500"><defs><style>.cls-1{fill:#f2755f;}.cls-2{fill:#231815;stroke-miterlimit:10;}.cls-2,.cls-3{stroke:#231815;}.cls-2,.cls-4,.cls-5,.cls-6{fill-rule:evenodd;}.cls-3{fill:none;stroke-linecap:round;stroke-linejoin:round;stroke-width:8px;}.cls-4{fill:#fff;}.cls-5{fill:#ffb88a;}</style></defs><path class="cls-4" d="m315.72,332.75c-4.53-4.95-5.37-6.39-5.8-9.98-.25-1.95-.08-3.05,1.06-6.77,1.86-5.88,2.41-10.03,2.41-16.92-.08-22.85-12.86-50.09-30.29-64.6-4.78-3.98-8.08-6.01-10.62-6.56-2.62-.55-5.71-3.93-5.71-6.22s1.4-3.47,4.19-3.6c1.9-.08,2.41-.34,3.89-1.78,4.65-4.48,11.08-14.26,16.08-24.37,8.93-18.28,14.09-38.46,16.08-63.08.63-8.33.3-32.32-.63-40.06-2.37-19.84-6.64-35.62-13.58-49.71-6.64-13.62-13.5-22.04-22.72-28.18-6.3-4.15-11.97-5.88-19.12-5.88-16.92,0-33.46,13.66-44.89,37.02-9.73,19.97-15.74,43.36-17.6,68.75-.63,8.67-.25,31.94.68,40.4.8,7.53,2.41,16.33,4.53,24.96,1.69,6.9,6.39,21.41,8.21,25.3.85,1.9.93,2.28.42,3.05-.89,1.31-1.65,1.23-3.68-.47-2.5-2.12-6.13-3.77-11.21-5.08-5.58-1.48-17.18-1.9-23.78-.85-6.43,1.02-9.48,2.37-12.61,5.63-1.44,1.48-2.92,2.67-3.3,2.67-1.06,0-2.79-1.9-2.79-3.05,0-.55.55-2.33,1.23-3.98,4.74-11.63,9.01-27.71,11.04-41.42,2.5-16.92,2.67-41.29.38-59.02-2.45-19.25-8.21-39.64-15.61-55.25-9.81-20.73-23.23-33.97-38.37-37.82-4.32-1.14-11-1.1-15.36.04-8.67,2.24-17.13,8.33-24.33,17.51-10.28,13.11-18.06,33.21-21.75,56.05-4.02,24.92-3.17,54.19,2.33,78.65,4.87,21.58,14.68,42.77,26.06,56.18,3.17,3.77,3.72,4.15,6.43,4.57,2.07.34,3.64,1.86,3.64,3.55,0,1.95-2.12,3.98-5.84,5.75-4.74,2.28-8.55,4.99-13.24,9.43-11.93,11.34-20.86,26.78-25.13,43.36-3.51,13.79-3.6,25.76-.17,35.75,2.37,7.02,1.52,10.11-4.57,16.67-11.85,12.73-18.78,25.68-22.21,41.42-.8,3.85-.93,5.63-.93,14.55s.08,10.66.93,14.6c5.03,23.14,19.46,42.73,41.12,55.76,10.91,6.6,22.38,10.96,36.21,13.88,5.12,1.06,14.76,4.19,25.3,8.21,9.94,3.81,32.49,7.87,51.44,9.26,23.23,1.73,45.56.42,63.29-3.77,7.62-1.82,15.27-4.44,18.36-6.3,4.06-2.41,10.24-4.95,25.38-10.41,10.49-3.77,13.45-4.99,19.67-8.16,25.76-13.11,43.15-35.33,47.85-61.22.93-5.25,1.1-19.04.21-23.9-3-17.26-9.6-30.25-22.59-44.59Z"/><path class="cls-4" d="m25.84,300.13c.04-6.47.21-9.1,1.02-13.54,4.27-24.2,18.53-48.02,36.59-61.13,1.99-1.44,3.64-2.75,3.64-2.92,0-.13-1.18-1.69-2.58-3.43-13.58-16.84-23.61-42.35-28.47-72.34-5.12-31.43-3-64.22,5.92-91.89C51.65,24.77,68.78,4.67,88.24.57c4.15-.85,13.71-.51,17.77.68,7.78,2.24,15.61,7.19,22.85,14.38,15.53,15.48,27.12,38.88,33,66.67,4.65,22.13,5.88,47.68,3.22,67.22-2.33,17.13-4.82,27.67-9.39,39.51-1.06,2.67-1.78,4.91-1.69,5.03.13.08,2.37-.34,4.99-.97,9.1-2.2,21.15-1.86,30.59.85,1.99.59,3.68,1.06,3.81,1.06.47,0,.13-1.27-1.23-4.53-7.83-18.57-12.56-48.82-11.3-72,1.69-30.63,7.66-55.25,18.36-75.98,11.3-21.74,26.19-36.47,41.63-41.08,5.03-1.48,12.82-1.86,17.85-.85,29.7,6.05,51.78,47,55.08,102.21.85,14.47-.47,32.96-3.47,49.12-5.12,27.54-14.64,50.98-27.08,66.63-1.4,1.69-2.5,3.3-2.5,3.51s1.48,1.48,3.3,2.79c9.48,7.11,16.84,15.44,23.48,26.61,13.5,22.8,17.73,49.84,10.7,68.49l-1.06,2.83,3.47,3.55c11.55,11.59,20.14,26.69,24.03,42.09,10.11,39.81-10.45,80.8-50.81,101.36-5.97,3.05-9.65,4.57-17.47,7.23-3,1.02-6.52,2.41-7.87,3.09-1.31.68-4.32,1.9-6.64,2.71-2.28.8-6.77,2.75-9.9,4.27-3.13,1.52-7.61,3.43-9.94,4.27-18.49,6.68-45.94,9.81-72.34,8.25-24.45-1.44-47.68-5.58-67.9-12.06-3.38-1.1-8.88-2.75-12.23-3.64-3.38-.93-7.74-2.24-9.73-2.96-2.03-.68-6.6-2.28-10.2-3.55-27.67-9.52-48.48-26.69-60.24-49.62-12.18-23.86-12.52-50.55-.93-74.75,4.74-9.86,10.11-17.6,17.51-25.26l4.02-4.15-1.52-4.53"/><path class="cls-6" d="m88.24.57c-19.46,4.1-36.59,24.2-46.28,54.32-8.93,27.67-11.04,60.45-5.92,91.89,4.87,29.99,14.89,55.5,28.47,72.34,1.4,1.73,2.58,3.3,2.58,3.43,0,.17-1.65,1.48-3.64,2.92-18.06,13.11-32.32,36.93-36.59,61.13-.8,4.44-.97,7.06-1.02,13.54,0,9.14.42,12.23,2.62,18.95l1.52,4.53-4.02,4.15c-7.4,7.66-12.78,15.4-17.51,25.26-11.59,24.2-11.25,50.89.93,74.75,11.76,22.93,32.58,40.11,60.24,49.62,3.6,1.27,8.16,2.88,10.2,3.55,1.99.72,6.35,2.03,9.73,2.96,3.34.89,8.84,2.54,12.23,3.64,20.22,6.47,43.45,10.62,67.9,12.06,26.4,1.57,53.85-1.57,72.34-8.25,2.33-.85,6.81-2.75,9.94-4.27s7.61-3.47,9.9-4.27c2.33-.8,5.33-2.03,6.64-2.71,1.35-.68,4.87-2.07,7.87-3.09,7.83-2.67,11.51-4.19,17.47-7.23,40.36-20.56,60.92-61.55,50.81-101.36-3.89-15.4-12.48-30.5-24.03-42.09l-3.47-3.55,1.06-2.83c7.02-18.66,2.79-45.69-10.7-68.49-6.64-11.17-14-19.5-23.48-26.61-1.82-1.31-3.3-2.58-3.3-2.79s1.1-1.82,2.5-3.51c12.44-15.65,21.96-39.09,27.08-66.63,3-16.16,4.32-34.65,3.47-49.12-3.3-55.21-25.38-96.16-55.08-102.21-5.03-1.02-12.82-.63-17.85.85-15.44,4.61-30.33,19.33-41.63,41.08-10.7,20.73-16.67,45.35-18.36,75.98-1.27,23.18,3.47,53.43,11.3,72,1.35,3.26,1.69,4.53,1.23,4.53-.13,0-1.82-.47-3.81-1.06-9.43-2.71-21.49-3.05-30.59-.85-2.62.63-4.87,1.06-4.99.97-.08-.13.63-2.37,1.69-5.03,4.57-11.85,7.06-22.38,9.39-39.51,2.67-19.55,1.44-45.1-3.22-67.22-5.88-27.79-17.47-51.19-33-66.67-7.23-7.19-15.06-12.14-22.84-14.38-4.06-1.18-13.62-1.52-17.77-.68Zm15.36,5.33c15.15,3.85,28.56,17.09,38.37,37.82,7.4,15.61,13.16,36,15.61,55.25,2.28,17.73,2.12,42.09-.38,59.02-2.03,13.71-6.3,29.78-11.04,41.42-.68,1.65-1.23,3.43-1.23,3.98,0,1.14,1.73,3.05,2.79,3.05.38,0,1.86-1.18,3.3-2.67,3.13-3.26,6.18-4.61,12.61-5.63,6.6-1.06,18.19-.63,23.78.85,5.08,1.31,8.71,2.96,11.21,5.08,2.03,1.69,2.79,1.78,3.68.47.51-.76.42-1.14-.42-3.05-1.82-3.89-6.52-18.4-8.21-25.3-2.12-8.63-3.72-17.43-4.53-24.96-.93-8.46-1.31-31.73-.68-40.4,1.86-25.38,7.87-48.78,17.6-68.75,11.42-23.35,27.96-37.02,44.89-37.02,7.15,0,12.82,1.73,19.12,5.88,9.22,6.13,16.08,14.55,22.72,28.18,6.94,14.09,11.21,29.87,13.58,49.71.93,7.74,1.27,31.73.63,40.06-1.99,24.62-7.15,44.8-16.08,63.08-4.99,10.11-11.42,19.88-16.08,24.37-1.48,1.44-1.99,1.69-3.89,1.78-2.79.13-4.19,1.31-4.19,3.6s3.09,5.67,5.71,6.22c2.54.55,5.84,2.58,10.62,6.56,17.43,14.51,30.21,41.76,30.29,64.6,0,6.9-.55,11.04-2.41,16.92-1.14,3.72-1.31,4.82-1.06,6.77.42,3.6,1.27,5.03,5.8,9.98,12.99,14.34,19.59,27.33,22.59,44.59.89,4.87.72,18.66-.21,23.9-4.7,25.89-22.08,48.1-47.85,61.22-6.22,3.17-9.18,4.4-19.67,8.16-15.15,5.46-21.32,8-25.38,10.41-3.09,1.86-10.75,4.48-18.36,6.3-17.73,4.19-40.06,5.5-63.29,3.77-18.95-1.4-41.5-5.46-51.44-9.26-10.53-4.02-20.18-7.15-25.3-8.21-13.83-2.92-25.3-7.28-36.21-13.88-21.66-13.03-36.09-32.62-41.12-55.76-.85-3.93-.93-5.58-.93-14.6s.13-10.7.93-14.55c3.43-15.74,10.36-28.68,22.21-41.42,6.09-6.56,6.94-9.65,4.57-16.67-3.43-9.98-3.34-21.96.17-35.75,4.27-16.58,13.2-32.03,25.13-43.36,4.7-4.44,8.5-7.15,13.24-9.43,3.72-1.78,5.84-3.81,5.84-5.75,0-1.69-1.57-3.22-3.64-3.55-2.71-.42-3.26-.8-6.43-4.57-11.38-13.41-21.19-34.61-26.06-56.18-5.5-24.45-6.35-53.73-2.33-78.65,3.68-22.84,11.46-42.94,21.74-56.05,7.19-9.18,15.65-15.27,24.33-17.51,4.36-1.14,11.04-1.18,15.36-.04Z"/><path class="cls-6" d="m165.26,374.56c-3.81.42-6.09,1.1-9.43,2.83-5.42,2.83-8.84,8.04-8.08,12.27,1.18,6.81,8.5,11.85,19.29,13.41,3.26.42,3.51.55,3.68,1.52.3,2.12-.85,5.46-2.71,8-4.15,5.67-13.2,10.15-23.69,11.76-6.22.93-14.47.55-19.46-.93-7.91-2.33-12.9-6.18-14.47-11.13-.72-2.24-.85-2.41-2.03-2.41s-1.27.08-1.4,1.86c-.13,1.4.17,2.5,1.18,4.57,2.5,5.08,7.87,9.22,14.6,11.38,16.5,5.25,36.3.8,46.41-10.41,1.44-1.61,2.79-2.96,2.92-2.96.17,0,.89.93,1.65,2.12,6.43,10.03,23.61,16.84,38.5,15.27,8.67-.93,15.57-3.43,20.05-7.32,4.74-4.1,7.78-11.72,5.12-12.78-1.14-.42-1.82.21-2.71,2.62-1.57,4.36-4.02,6.81-9.26,9.26-12.31,5.75-30.84,4.1-42.64-3.77-5.67-3.81-8.25-7.87-8.38-13.16-.04-3.43-.72-2.92,5.46-4.27,8.46-1.9,14.26-7.66,13.62-13.58-.3-2.92-1.44-5.08-3.98-7.45-3.89-3.64-8.12-5.5-14.93-6.52-4.27-.68-4.99-.68-9.31-.21Zm4.19,2.33c1.65.85,1.86,1.65.8,3-.72.89-3.05,2.28-3.89,2.28-.68,0-1.52-1.57-1.52-2.83,0-2.75,1.99-3.81,4.61-2.45Zm-6.68,2.75c1.35.76.93,1.57-1.57,3-4.7,2.67-6.52,4.91-6.52,7.95,0,1.82-.93,3.13-2.07,2.92-.38-.08-1.02-.85-1.48-1.78-.68-1.44-.72-1.86-.3-3.85.89-3.98,3.68-7.23,7.15-8.25,1.65-.51,3.81-.51,4.78,0Z"/><g><path class="cls-6" d="m52.52,375.45c-3.6.63-4.78,1.02-9.65,3.09-8.16,3.43-12.06,6.01-17.05,11.25-5.08,5.37-8.12,12.18-8.12,18.23,0,4.78,2.5,10.62,6.09,14.26,5.92,6.01,13.92,8.93,24.58,8.93,20.22,0,39.05-12.44,42.52-28.09.76-3.38.34-9.31-.8-12.31-2.67-6.9-9.39-12.27-18.49-14.72-4.36-1.18-14.05-1.52-19.08-.63Zm16.16,5.5c6.77,1.44,13.5,6.05,15.78,10.83,4.19,8.63-.42,19.38-11.59,27.08-3.17,2.16-9.6,4.99-14,6.18-3.55.93-5.08,1.1-10.49,1.14-5.37,0-6.85-.13-9.65-.93-6.98-1.99-11.89-5.58-14.3-10.49-4.48-9.05.47-20.01,12.56-27.96,4.53-2.92,6.64-3.81,12.01-4.99,2.45-.55,4.82-1.1,5.29-1.18,2.07-.47,11.63-.25,14.38.34Z"/><ellipse class="cls-1" cx="54.52" cy="403.26" rx="34.15" ry="23.02" transform="translate(-101.99 27.63) rotate(-14.92)"/></g><g><path class="cls-6" d="m275.61,380.37c-9.1,2.45-15.82,7.83-18.49,14.72-1.14,3-1.57,8.93-.8,12.31,3.47,15.65,22.29,28.09,42.52,28.09,10.66,0,18.66-2.92,24.58-8.93,3.6-3.64,6.09-9.48,6.09-14.26,0-6.05-3.05-12.86-8.12-18.23-4.99-5.25-8.88-7.83-17.05-11.25-4.87-2.07-6.05-2.45-9.65-3.09-5.03-.89-14.72-.55-19.08.63Zm17.3,4.53c.47.08,2.83.63,5.29,1.18,5.37,1.18,7.49,2.07,12.01,4.99,12.1,7.95,17.05,18.91,12.56,27.96-2.41,4.91-7.32,8.5-14.3,10.49-2.79.8-4.27.93-9.65.93-5.42-.04-6.94-.21-10.49-1.14-4.4-1.18-10.83-4.02-14-6.18-11.17-7.7-15.78-18.45-11.59-27.08,2.28-4.78,9.01-9.39,15.78-10.83,2.75-.59,12.31-.8,14.38-.34Z"/><ellipse class="cls-1" cx="292.69" cy="407.54" rx="23.02" ry="34.15" transform="translate(-176.47 585.44) rotate(-75.08)"/></g><g><path class="cls-5" d="m247.53,30.62c-5.01.63-10.39,7.18-12.8,10.13-1.74,2.12-4.26,5.65-7.54,14.17-3.57,9.27-5.3,17.33-6.45,23.96-2.48,14.35-2.88,25.7-3,30.17-.72,27.24-1.2,45.67,6.76,67.04,4.68,12.55,10.14,27.22,19.17,28.03,14.77,1.33,28.81-35.33,32.13-43.99,4.28-11.18,10.35-27.5,9.87-49.53-.91-41.46-24.55-81.67-38.14-79.97Z"/><path class="cls-2" d="m244.31,27.88c-15.78,4.23-28.18,32.66-31.31,71.67-.63,7.57-.63,26.19-.04,33.84,1.73,22.17,6.26,41.59,12.99,55.8,2.88,6.01,5.03,9.48,8.63,13.79,1.57,1.86,3.17,3.89,3.55,4.53.8,1.23,2.62,2.03,4.65,2.03,3.17,0,13.28-7.61,19.08-14.38,13.66-15.91,21.83-36.85,25.26-64.73.72-5.92.72-27.08,0-33.21-3.51-29.15-13.92-52.29-29.44-65.36-5.5-4.61-8.08-5.37-13.37-3.98Zm6.73,3.6c2.54,1.52,5.5,4.27,8.59,8,11.55,13.75,18.87,32.24,22.21,55.84,1.06,7.7,1.06,29.66,0,37.65-2.71,19.97-8.93,37.69-18.06,51.53-5.08,7.66-12.31,14.93-18.53,18.57l-1.86,1.1-2.71-2.71c-23.06-22.8-30.84-97.13-14.98-143.08.64-1.85,2.68-8.52,7.28-15.63,0,0,4.68-7.23,12.69-11.36.61-.31,2.3-1.76,5.37.08Z"/></g><g><path class="cls-5" d="m99.25,31.66c5.01.63,10.39,7.18,12.8,10.13,1.74,2.12,4.26,5.65,7.54,14.17,3.57,9.27,5.3,17.33,6.45,23.96,2.48,14.35,2.88,25.7,3,30.17.72,27.24,1.2,45.67-6.76,67.04-4.68,12.55-10.14,27.22-19.17,28.03-14.77,1.33-28.81-35.33-32.13-43.99-4.28-11.18-10.35-27.5-9.87-49.53.91-41.46,24.55-81.67,38.14-79.97Z"/><path class="cls-2" d="m89.1,32.89c-15.53,13.07-25.93,36.21-29.44,65.36-.72,6.13-.72,27.29,0,33.21,3.43,27.88,11.59,48.82,25.26,64.73,5.8,6.77,15.91,14.38,19.08,14.38,2.03,0,3.85-.8,4.65-2.03.38-.63,1.99-2.67,3.55-4.53,3.6-4.32,5.75-7.78,8.63-13.79,6.73-14.21,11.25-33.63,12.99-55.8.59-7.66.59-26.27-.04-33.84-3.13-39.01-15.53-67.43-31.31-71.67-5.29-1.4-7.87-.63-13.37,3.98Zm12.01-.47c8,4.13,12.69,11.36,12.69,11.36,4.6,7.1,6.64,13.78,7.28,15.63,15.86,45.94,8.08,120.27-14.98,143.08l-2.71,2.71-1.86-1.1c-6.22-3.64-13.45-10.91-18.53-18.57-9.14-13.83-15.36-31.56-18.06-51.53-1.06-8-1.06-29.95,0-37.65,3.34-23.61,10.66-42.09,22.21-55.84,3.09-3.72,6.05-6.47,8.59-8,3.07-1.84,4.77-.4,5.37-.08Z"/></g><g><line class="cls-3" x1="81.62" y1="308.93" x2="136.43" y2="329.42"/><line class="cls-3" x1="83.68" y1="360.15" x2="134.36" y2="330.89"/></g><g><line class="cls-3" x1="264.97" y1="309.64" x2="210.16" y2="330.13"/><line class="cls-3" x1="262.91" y1="360.85" x2="212.23" y2="331.6"/></g></svg>