<?xml version="1.0" encoding="utf-8"?>
<!-- Generator: Adobe Illustrator 27.3.1, SVG Export Plug-In . SVG Version: 6.00 Build 0)  -->
<svg version="1.1" id="圖層_1" xmlns="http://www.w3.org/2000/svg" xmlns:xlink="http://www.w3.org/1999/xlink" x="0px" y="0px"
	 viewBox="0 0 402.3 134.5" style="enable-background:new 0 0 402.3 134.5;" xml:space="preserve">
<style type="text/css">
	.st0{enable-background:new    ;}
	.st1{fill:#231815;}
	.st2{fill:#231815;stroke:#231815;stroke-miterlimit:10;}
	.st3{fill-rule:evenodd;clip-rule:evenodd;fill:#FFFFFF;}
	.st4{fill-rule:evenodd;clip-rule:evenodd;}
	.st5{fill:#F2755F;}
	.st6{fill-rule:evenodd;clip-rule:evenodd;fill:#FFB88A;}
	.st7{fill-rule:evenodd;clip-rule:evenodd;fill:#231815;stroke:#231815;stroke-miterlimit:10;}
	.st8{fill:none;stroke:#231815;stroke-width:2;stroke-linecap:round;stroke-linejoin:round;}
</style>
<g>
	<g class="st0">
		<path class="st1" d="M177.9,100.9l11.2-26.8h5.3l-4.8,34h-5.3l3.4-24.1L177.6,108h-4.9l1.1-23.6L165,108h-2.8l12-32.3
			c-2.6,0.6-4.6,1.8-6,3.7c-1.4,1.9-2.1,4.3-2.1,7.3c0,1.1,0.1,1.9,0.2,2.3c0.1,0.4,0.3,0.7,0.4,0.9c-1.4,0-2.4-0.3-3.3-0.9
			c-0.8-0.6-1.2-1.7-1.2-3.2c0-1,0.2-2.1,0.7-3.1c0.4-1,1-2,1.8-2.9c0.7-0.9,1.6-1.8,2.5-2.5s2-1.4,3-2c1-0.6,2.1-1,3.1-1.3
			c1.1-0.3,2.1-0.5,3-0.5c0.5,0,1,0,1.5,0.1c0.5,0.1,0.9,0.3,1.2,0.5L177.9,100.9z"/>
		<path class="st1" d="M205.4,97.4h-9.3l0.7-3.2h9.2L205.4,97.4z"/>
		<path class="st1" d="M219.6,107.2c1,0.3,2.1,0.7,3.2,1.3c1.1,0.6,2.2,1.2,3.3,1.8c1.1,0.6,2.3,1.2,3.5,1.6
			c1.2,0.5,2.4,0.7,3.8,0.7c0.6,0,1.2,0,1.8-0.1c0.6-0.1,1.3-0.3,2-0.6c-0.2,1.9-0.8,3.4-1.6,4.5c-0.8,1.1-2,1.6-3.5,1.6
			c-0.8,0-1.6-0.2-2.4-0.7s-1.7-1-2.6-1.7c-0.9-0.7-1.8-1.4-2.7-2.1c-0.9-0.8-1.9-1.5-2.8-2.1s-2-1.2-3-1.7c-1-0.4-2.1-0.7-3.2-0.7
			c-0.2,0-0.4,0-0.5,0c-0.2,0-0.3,0-0.5,0l6.9-32.6c-2.6,0.6-4.7,1.9-6.3,3.6c-1.6,1.8-2.4,4-2.4,6.7c0,1.1,0.1,1.9,0.3,2.3
			c0.2,0.5,0.5,0.9,0.8,1.2c-1.5,0-2.7-0.3-3.6-0.9c-0.9-0.6-1.3-1.7-1.3-3.3c0-1.6,0.5-3.2,1.5-4.7s2.2-2.8,3.8-3.9
			c1.5-1.1,3.3-2,5.2-2.7c1.9-0.7,3.8-1,5.7-1c0.3,0,0.7,0,1,0c0.3,0,0.6,0,0.9,0.1L219.6,107.2z"/>
		<path class="st1" d="M243.8,89.5c0,2.6-1,4.7-3.1,6.3s-4.9,2.6-8.4,3c0,0.2,0,0.5,0,0.7c0,0.2,0,0.5,0,0.7c0,1.6,0.3,2.7,0.9,3.5
			c0.6,0.7,1.6,1.1,3.1,1.1s2.9-0.4,4.4-1.2c1.4-0.8,2.8-2.1,4-3.9h1.5c-0.6,1.1-1.4,2.2-2.2,3.3c-0.9,1-1.8,1.9-2.9,2.7
			s-2.2,1.4-3.3,1.9c-1.2,0.5-2.4,0.7-3.6,0.7c-0.9,0-1.8-0.1-2.6-0.4c-0.8-0.3-1.6-0.7-2.2-1.3c-0.6-0.6-1.2-1.3-1.5-2.3
			c-0.4-0.9-0.6-2.1-0.6-3.4c0-0.9,0.1-1.9,0.3-3c0.2-1.1,0.5-2.3,0.9-3.5c0.4-1.2,0.9-2.4,1.5-3.6s1.4-2.2,2.2-3.1
			c0.9-0.9,1.9-1.6,3-2.2c1.1-0.6,2.4-0.8,3.8-0.8c0.6,0,1.3,0.1,1.8,0.2s1.1,0.4,1.6,0.7c0.5,0.4,0.8,0.8,1.1,1.5
			C243.7,87.7,243.8,88.5,243.8,89.5z M239.3,87c-0.9,0-1.7,0.3-2.4,0.9c-0.7,0.6-1.4,1.4-2,2.3s-1.1,2-1.5,3.2
			c-0.4,1.2-0.7,2.4-0.9,3.6c2.6-0.4,4.6-1.3,6.2-2.7c1.5-1.4,2.3-3.2,2.3-5.3c0-0.5-0.1-1-0.3-1.4C240.5,87.2,240.1,87,239.3,87z"
			/>
		<path class="st1" d="M264.8,85l-3.4,15.7c-0.2,0.6-0.2,1.3-0.2,2.1c0,0.5,0.1,1,0.3,1.4c0.2,0.4,0.6,0.6,1.2,0.6
			c0.7,0,1.5-0.4,2.2-1.3c0.8-0.9,1.5-2.1,2.1-3.7h1.7c-0.7,1.9-1.5,3.5-2.2,4.6c-0.7,1.1-1.5,2-2.1,2.6c-0.7,0.6-1.4,1-2,1.1
			c-0.6,0.2-1.2,0.3-1.7,0.3c-1,0-1.9-0.4-2.5-1.1c-0.7-0.7-1.1-1.9-1.2-3.5c-0.7,1.3-1.7,2.3-2.9,3.2s-2.6,1.3-4.1,1.3
			c-0.7,0-1.5-0.1-2.2-0.4c-0.7-0.3-1.3-0.7-1.9-1.3c-0.6-0.6-1-1.4-1.3-2.3c-0.3-0.9-0.5-2.1-0.5-3.4c0-1,0.1-2.2,0.3-3.4
			c0.2-1.2,0.6-2.4,1-3.6c0.4-1.2,1-2.4,1.7-3.5c0.7-1.1,1.4-2.1,2.3-2.9c0.9-0.8,1.8-1.5,2.9-2s2.3-0.8,3.6-0.8
			c0.7,0,1.5,0.2,2.3,0.5s1.3,1,1.5,1.9l0.5-2.2H264.8z M251.9,104.8c0.5,0,1-0.1,1.5-0.4c0.5-0.3,1-0.6,1.5-1.1
			c0.5-0.4,0.9-1,1.3-1.6c0.4-0.6,0.6-1.3,0.8-2l2.2-10.5c-0.1-0.5-0.3-1-0.7-1.4c-0.4-0.4-0.9-0.6-1.6-0.6c-1.3,0-2.4,0.5-3.4,1.4
			s-1.8,2-2.5,3.4c-0.7,1.3-1.2,2.7-1.5,4.2c-0.3,1.5-0.5,2.8-0.5,4c0,1.8,0.3,3,0.8,3.6S251,104.8,251.9,104.8z"/>
		<path class="st1" d="M274.8,85l-0.8,3.8c0.4-0.5,0.9-1,1.3-1.5c0.5-0.5,0.9-0.9,1.5-1.3s1-0.7,1.6-0.9c0.6-0.2,1.2-0.3,1.8-0.3
			c0.9,0,1.6,0.2,2,0.6c0.4,0.4,0.6,0.9,0.6,1.5c0,0.6-0.1,1.1-0.3,1.5c-0.2,0.4-0.4,0.7-0.7,0.9c-0.3,0.2-0.6,0.4-0.9,0.5
			c-0.3,0.1-0.6,0.1-0.8,0.1c-0.3,0-0.5-0.1-0.6-0.2c-0.1-0.1-0.3-0.3-0.4-0.4c-0.1-0.1-0.3-0.3-0.5-0.4s-0.4-0.2-0.8-0.2
			c-0.7,0-1.4,0.2-2.1,0.7c-0.8,0.5-1.5,1-2.1,1.5l-3.6,17h-4.6l4.9-23.1H274.8z"/>
		<path class="st1" d="M290.3,85l-0.7,3.5c0.6-0.8,1.2-1.4,1.8-1.9c0.6-0.5,1.1-0.9,1.7-1.1s1-0.4,1.5-0.5c0.5-0.1,0.9-0.1,1.3-0.1
			c0.9,0,1.7,0.1,2.3,0.4c0.6,0.3,1.1,0.7,1.5,1.1s0.6,1,0.8,1.7s0.2,1.3,0.2,2c0,1-0.1,2.1-0.3,3.2c-0.2,1.1-0.5,2.2-0.8,3.3
			c-0.3,1.1-0.5,2.1-0.8,3.2c-0.2,1-0.3,2-0.3,3c0,0.6,0.1,1.2,0.3,1.6c0.2,0.4,0.6,0.6,1.1,0.6c1.4,0,2.9-1.7,4.3-5h1.7
			c-0.7,1.9-1.5,3.5-2.2,4.6c-0.7,1.1-1.5,2-2.1,2.6c-0.7,0.6-1.3,0.9-1.9,1.1c-0.6,0.2-1.1,0.3-1.6,0.3c-1.6,0-2.7-0.5-3.4-1.5
			c-0.7-1-1-2.2-1-3.7c0-1,0.1-2.1,0.3-3.2c0.2-1.1,0.5-2.2,0.8-3.3c0.3-1.1,0.5-2.1,0.8-3.1c0.2-1,0.3-1.9,0.3-2.7
			c0-0.8-0.1-1.4-0.4-1.8c-0.3-0.5-0.8-0.7-1.6-0.7c-1.9,0-3.6,1.6-5.1,4.9l-3.2,14.9h-4.6l4.9-23.1H290.3z"/>
		<path class="st1" d="M311.9,85l-3.4,15.7c-0.2,0.6-0.2,1.3-0.2,2.1c0,0.5,0.1,1,0.3,1.4c0.2,0.4,0.6,0.6,1.2,0.6
			c0.7,0,1.5-0.4,2.2-1.3c0.8-0.9,1.5-2.1,2.1-3.7h1.7c-0.7,1.9-1.5,3.5-2.2,4.6c-0.7,1.1-1.5,2-2.1,2.6c-0.7,0.6-1.4,1-2,1.1
			s-1.2,0.3-1.7,0.3c-0.8,0-1.5-0.1-2-0.4s-0.9-0.6-1.2-1.1s-0.5-1-0.7-1.6c-0.1-0.6-0.2-1.3-0.2-2c0-0.6,0-1.1,0.1-1.7
			c0.1-0.6,0.2-1.2,0.3-1.7l3.1-14.8H311.9z M307.6,78.3c0-0.8,0.3-1.6,0.9-2.2c0.6-0.6,1.3-0.9,2.2-0.9c0.8,0,1.6,0.3,2.2,0.9
			c0.6,0.6,0.9,1.3,0.9,2.2c0,0.9-0.3,1.6-0.9,2.2c-0.6,0.6-1.3,0.9-2.2,0.9c-0.9,0-1.6-0.3-2.2-0.9
			C307.9,79.9,307.6,79.2,307.6,78.3z"/>
		<path class="st1" d="M321.9,85l-0.7,3.5c0.6-0.8,1.2-1.4,1.8-1.9c0.6-0.5,1.1-0.9,1.7-1.1s1-0.4,1.5-0.5c0.5-0.1,0.9-0.1,1.3-0.1
			c0.9,0,1.7,0.1,2.3,0.4c0.6,0.3,1.1,0.7,1.5,1.1s0.6,1,0.8,1.7s0.2,1.3,0.2,2c0,1-0.1,2.1-0.3,3.2c-0.2,1.1-0.5,2.2-0.8,3.3
			c-0.3,1.1-0.5,2.1-0.8,3.2c-0.2,1-0.3,2-0.3,3c0,0.6,0.1,1.2,0.3,1.6c0.2,0.4,0.6,0.6,1.1,0.6c1.4,0,2.9-1.7,4.3-5h1.7
			c-0.7,1.9-1.5,3.5-2.2,4.6c-0.7,1.1-1.5,2-2.1,2.6c-0.7,0.6-1.3,0.9-1.9,1.1c-0.6,0.2-1.1,0.3-1.6,0.3c-1.6,0-2.7-0.5-3.4-1.5
			c-0.7-1-1-2.2-1-3.7c0-1,0.1-2.1,0.3-3.2c0.2-1.1,0.5-2.2,0.8-3.3c0.3-1.1,0.5-2.1,0.8-3.1c0.2-1,0.3-1.9,0.3-2.7
			c0-0.8-0.1-1.4-0.4-1.8c-0.3-0.5-0.8-0.7-1.6-0.7c-1.9,0-3.6,1.6-5.1,4.9l-3.2,14.9h-4.6l4.9-23.1H321.9z"/>
		<path class="st1" d="M338.8,115.4c0-0.8,0.2-1.5,0.7-2.1c0.4-0.7,1-1.3,1.7-1.9c0.7-0.6,1.5-1.1,2.4-1.6c0.9-0.5,1.7-0.9,2.6-1.2
			l0.9-4.2c-0.8,0.8-1.7,1.5-2.7,2.1c-1,0.5-2.1,0.8-3.3,0.8c-0.7,0-1.5-0.1-2.2-0.4c-0.7-0.3-1.3-0.7-1.9-1.3
			c-0.6-0.6-1-1.4-1.3-2.3c-0.3-0.9-0.5-2.1-0.5-3.4c0-1.4,0.3-3,0.8-4.8c0.5-1.8,1.3-3.4,2.2-4.9c1-1.5,2.2-2.8,3.7-3.9
			s3.2-1.5,5.1-1.5c0.7,0,1.5,0.2,2.3,0.5s1.3,1,1.5,1.9l0.5-2.2h4.6l-5.7,26.8c-0.3,1.7-0.7,3-1.1,4c-0.4,1-0.9,1.8-1.4,2.4
			c-0.5,0.6-1.1,1-1.7,1.2c-0.6,0.2-1.3,0.3-2.1,0.3c-1.4,0-2.6-0.3-3.6-0.9C339.3,118,338.8,116.9,338.8,115.4z M343,103.8
			c0.4,0,0.9-0.1,1.4-0.3c0.5-0.2,1-0.5,1.5-0.9s0.9-0.8,1.3-1.4c0.4-0.5,0.7-1.1,0.9-1.7l2.2-10.3c-0.1-0.5-0.3-0.9-0.7-1.4
			c-0.4-0.4-0.9-0.6-1.6-0.6c-1.3,0-2.4,0.4-3.4,1.3c-1,0.8-1.8,1.9-2.5,3.1s-1.2,2.5-1.5,3.9c-0.3,1.4-0.5,2.6-0.5,3.7
			c0,1.8,0.3,3,0.8,3.6C341.4,103.5,342.1,103.8,343,103.8z M342.3,117.2c0.9,0,1.5-0.5,2-1.5s0.9-2.3,1.2-3.9l0.3-1.5
			c-1.7,0.7-3,1.6-3.9,2.4s-1.3,1.8-1.3,2.6c0,0.5,0.1,1,0.4,1.3C341.3,117,341.7,117.2,342.3,117.2z"/>
	</g>
	<g class="st0">
		<path class="st2" d="M151.1,51.8c1.4,1.9,1.5,2.7,1.1,3.2c-1.2,1.6-4.2,0.3-6.2-1.3c-2.7-1.9-4.7-4.3-6.3-7.2
			c-3.6,3.4-8,6.3-13.3,8.3l-0.4-0.5c4.9-2.6,9.1-6.3,12.4-10.3c-1.8-3.9-2.8-8.4-3.5-13.4h-9.9v7c2.8-0.6,5.8-1.3,8.7-2l0.1,0.7
			c-2.4,1-5.4,2.2-8.9,3.5v11.3c0,2.7-0.6,4.7-5.3,5.1c-0.1-1.1-0.4-2.1-1-2.6c-0.8-0.6-1.8-1.1-4-1.4v-0.6c0,0,4.8,0.3,5.8,0.3
			c0.8,0,1-0.3,1-0.9v-9.9c-2.4,0.9-4.9,1.8-7.8,2.7c-0.2,0.5-0.7,0.9-1.1,1.1l-1.8-4.4c2.1-0.3,6-1.1,10.7-2.2v-7.8h-10.4l-0.4-1.3
			h10.8v-7.8c-3.3,0.7-6.8,1.3-10.1,1.7l-0.2-0.7c6.3-1.6,13.9-4.7,17.8-7.1l4.1,3.5c-0.5,0.4-1.3,0.4-2.4,0
			c-1.6,0.5-3.5,1.1-5.6,1.7v8.7h9.7c-0.5-4.4-0.7-9.1-0.7-14.1l5.3,0.6c-0.1,0.6-0.4,1.1-1.6,1.3c0,4.2,0.1,8.4,0.5,12.3h7.3
			l2.3-2.9c0,0,2.7,2,4.4,3.5c-0.1,0.5-0.6,0.7-1.2,0.7h-12.8c0.5,3.7,1.2,7.2,2.3,10.2c1.8-2.7,3.3-5.6,4.3-8.4l4.9,2.1
			c-0.3,0.5-0.7,0.8-1.8,0.6c-1.4,2.9-3.4,5.9-5.9,8.8c1.4,2.6,3.2,4.7,5.6,6.3c0.8,0.6,1,0.6,1.4-0.2c0.6-1.2,1.5-3.4,2.1-5.3
			l0.5,0.1L151.1,51.8z M140.8,17.5c10.6,2.8,7.8,9.8,4.4,7.4c-0.5-2.4-2.8-5.4-4.8-7L140.8,17.5z"/>
		<path class="st2" d="M175.3,24c-0.3,0.4-1,0.7-1.9,0.9v27.3c0,0.3-1.7,1.2-2.9,1.2H170V50h-8.7v3.6c0,0.4-1.3,1.3-2.7,1.3h-0.6
			V21.3l3.6,1.7h1.2c0.4-2.3,1.1-5.7,1.5-8.1l5.4,1.3c-0.2,0.6-0.8,1-1.7,1c-1,1.7-2.4,4-3.6,5.9h5.3l1.8-2.1L175.3,24z M161.2,24.3
			v11.2h8.7V24.3H161.2z M170,48.7V36.8h-8.7v11.9H170z M197.2,24c-0.4,0.4-0.9,0.6-1.9,0.8c-0.3,17.1-1.1,26.5-3.2,29.2
			c-1.4,1.6-3.2,2.2-5.6,2.2c0-1.2-0.2-2.2-0.9-2.7c-0.7-0.6-2.6-1.2-4.5-1.5l0-0.8c2.1,0.2,5.3,0.5,6.4,0.5c0.9,0,1.3-0.1,1.7-0.6
			c1.7-1.6,2.3-11.5,2.6-26.8h-10.2c-1.9,3.7-4.3,7-6.8,9.4l-0.6-0.4c2.7-4.5,5.5-11.5,6.9-18.4l5.3,1.5c-0.2,0.5-0.7,0.9-1.7,0.9
			c-0.7,2-1.5,3.8-2.4,5.6h9.1l2.1-2.3L197.2,24z M178.4,32.2c11.4,4.6,8.2,12.6,4.5,9.6c-0.4-3.1-2.8-6.9-5-9.3L178.4,32.2z"/>
		<path class="st2" d="M253.8,33c-0.3,0.4-0.8,0.5-1.7,0.5c-1.3,1.1-3.6,2.7-5.3,3.6l-0.5-0.3c0.5-1,1.1-2.7,1.6-4h-30.3
			c0.1,2.5-0.6,4.4-2.3,5.2c-2.7,1.3-4.6-1.8-1.7-3.5c1.1-0.6,2.7-2.5,2.7-5.3l0.7,0c0.3,0.8,0.5,1.5,0.5,2.2h1.2l-0.5-15.1l3.5,0.9
			c1.5-0.9,3.1-1.9,4-2.6l3.2,2.6c-0.2,0.3-0.7,0.3-1.3,0.1c-1.4,0.5-3.7,1-6,1.4l0.1,3.4h2.3l1.5-1.8c0,0,1.7,1.3,2.7,2.4
			c-0.1,0.5-0.5,0.7-1.1,0.7h-5.4l0.1,3.5h2.3l1.5-1.9c0,0,1.7,1.4,2.8,2.5c-0.1,0.5-0.5,0.7-1.1,0.7h-5.4l0.1,3.4h21.8l0.2-3.4
			h-4.6l-0.4-1.3h5.1l0.2-3.5h-4.8l-0.4-1.3h5.3l0.2-3.4h-5.5l-0.4-1.3h5.5l1.6-1.9l3.6,3c-0.3,0.3-0.7,0.4-1.4,0.5l-0.8,12.5h0.7
			l2.1-2.2L253.8,33z M248.7,41.4c0,0,2.7,2.1,4.3,3.6c-0.1,0.5-0.6,0.7-1.2,0.7h-16.8v5.8c0,2.8-0.6,4.4-5.4,4.9
			c-0.1-1.2-0.4-2-1.1-2.6c-0.7-0.6-1.8-1-4-1.3v-0.7c0,0,5,0.3,6,0.3c0.7,0,0.9-0.2,0.9-0.9v-5.5h-17.9l-0.4-1.3h18.3V41l3.3,0.3
			c1.5-0.9,3.1-2.2,4.3-3.2h-17.4l-0.4-1.3h18.7l2.2-2.2l3.8,3.4c-0.4,0.3-0.9,0.4-1.8,0.5c-2.1,0.9-4.9,2.1-7.7,2.9h0
			c-0.1,0.6-0.5,0.9-1.5,1.1v1.8h11.4L248.7,41.4z M239.3,24.6c-0.3,0.5-0.8,0.5-1.5,0.3c-0.5,0.7-1.1,1.3-1.8,2
			c2.5,2.1,1.4,4.6-0.5,3.6c-0.3-0.7-0.9-1.4-1.5-2.1c-1.6,1.1-3.5,2.1-5.3,2.8l-0.5-0.7c1.5-0.9,3.1-2.2,4.4-3.5
			c-0.9-0.8-2-1.5-2.9-2.1l0.5-0.5c1.5,0.3,2.8,0.7,3.8,1.1c0.8-0.9,1.4-1.8,1.9-2.7L239.3,24.6z M228.3,22.5
			c1.3-0.9,2.6-2.1,3.7-3.3c-0.9-0.7-1.8-1.3-2.6-1.7l0.4-0.5c1.3,0.2,2.5,0.5,3.4,0.9c0.7-0.9,1.3-1.8,1.8-2.6l3.5,1.8
			c-0.2,0.5-0.7,0.5-1.5,0.3c-0.5,0.5-1,1.1-1.6,1.7c2.5,1.8,1.6,4.1-0.2,3.3c-0.4-0.6-0.9-1.3-1.7-1.9c-1.5,1.1-3.1,2-4.7,2.7
			L228.3,22.5z"/>
		<path class="st2" d="M272.9,27.2c-2.7,1.7-6.4,3.8-11,6.3c-0.1,0.6-0.5,1-0.9,1.2l-2.3-3.9c2.5-0.7,8.2-2.7,14.2-4.8v-7.4h-13.2
			l-0.4-1.3h13.2l1.7-2l4,3c-0.3,0.4-1,0.8-1.9,0.9v12.2c0,2.5-0.5,4-4.5,4.4c-0.1-1-0.3-1.8-0.8-2.3c-0.5-0.5-1.3-0.9-3-1.2v-0.7
			c0,0,3.3,0.2,4.1,0.2c0.7,0,0.9-0.2,0.9-0.8V27.2z M262,19.9c10.3,1.3,8.4,8,5,6.2c-0.9-2-3.4-4.5-5.4-5.8L262,19.9z M290.3,36
			l4,3c-0.3,0.4-0.9,0.7-1.8,0.9v15.3c0,0.3-1.8,1-3.1,1h-0.6v-2.5h-21.2v1.4c0,0.3-1.6,1.2-3.1,1.2H264v-20l3.9,1.7h6.9
			c0.4-1.4,0.9-3.2,1.2-4.5l5.3,1.1c-0.2,0.6-0.8,1-1.7,1c-0.7,0.7-1.7,1.6-2.6,2.4h11.5L290.3,36z M267.7,39.3v5.7h21.2v-5.7H267.7
			z M288.9,52.4v-6h-21.2v6H288.9z M297.9,18.4c-0.3,0.3-1,0.7-1.9,0.9v12.2c0,2.6-0.5,4-4.7,4.5c-0.1-1-0.3-1.9-0.8-2.4
			s-1.4-0.9-3.1-1.2v-0.7c0,0,3.4,0.2,4.3,0.2c0.7,0,0.9-0.2,0.9-0.8v-4.2c-2.8,1.6-6.5,3.6-11.2,6c-0.1,0.6-0.5,1-0.9,1.2l-2.4-3.9
			c2.6-0.6,8.3-2.5,14.4-4.5v-7.1h-13.8l-0.4-1.3h13.7l1.7-2L297.9,18.4z M280.7,20c10.1,0.9,8.4,7.7,5,5.8
			c-0.9-1.9-3.4-4.2-5.4-5.5L280.7,20z"/>
		<path class="st2" d="M339.3,15.3c0,0,2.7,2.1,4.5,3.6c-0.1,0.5-0.6,0.7-1.3,0.7h-33.1v9.9c0,8-0.3,19.1-6.7,26.9l-0.7-0.4
			c3.7-8,4-17.8,4-26.4V16.7l4,1.6h26.7L339.3,15.3z M339.1,50.6c0,0,2.7,2.1,4.5,3.6c-0.1,0.5-0.6,0.7-1.2,0.7h-34.6l-0.4-1.3h7.5
			V42.5l4.9,0.5c-0.1,0.6-0.5,1-1.5,1.2v9.5h6.3V39.5l5,0.5c-0.1,0.6-0.4,1-1.5,1.2v4h5.6l2.2-2.7c0,0,2.4,1.9,4,3.3
			c-0.1,0.5-0.6,0.7-1.2,0.7H328v7.1h8.6L339.1,50.6z M309.3,38.5c2.5-2.5,4.2-5.7,5.4-9h-4.5l-0.4-1.3h5.9v-3.7
			c-1.6,0.3-3.3,0.5-4.8,0.6l-0.3-0.8c3.5-0.9,7.8-2.7,10-3.8l3.2,2.9c-0.4,0.4-1.1,0.3-2.1,0c-0.8,0.2-1.8,0.5-2.9,0.7v4.2h1.1
			l1.8-2.2c0,0,1.9,1.5,3.2,2.7c-0.1,0.5-0.5,0.7-1.1,0.7h-4.9v1c7.8,1.6,5.4,6.6,2.8,4.8c-0.4-1.3-1.6-2.9-2.8-4v8
			c0,0.3-1.1,1-2.6,1h-0.5v-6.4c-1.6,2.1-3.6,3.9-5.9,5.4L309.3,38.5z M323.5,38.3c2.9-2.3,5.1-5.5,6.5-8.8h-4.4l-0.4-1.3h6v-3.8
			c-1.7,0.2-3.5,0.4-5,0.5l-0.2-0.8c3.7-0.9,8.5-2.6,10.9-3.7l3.1,2.9c-0.4,0.4-1.2,0.3-2.2,0c-1,0.2-2.1,0.5-3.4,0.6v4.3h2.3
			l1.9-2.5c0,0,2.2,1.8,3.5,3.1c-0.1,0.5-0.5,0.7-1.1,0.7h-6.6v1.1c9.3,2.4,7.3,7.9,4.4,6.2c-0.8-1.6-2.7-3.6-4.4-5.1V39
			c0,0.3-1.1,1-2.6,1h-0.5v-6.9c-1.9,2.3-4.4,4.4-7.3,5.9L323.5,38.3z"/>
		<path class="st2" d="M358,32.2c9.1,3.5,6.2,9.6,3.1,7.2c-0.4-1.9-1.8-4.2-3.1-6v21.8c0,0.3-1.2,1.1-2.9,1.1h-0.6V38
			c-1.8,3.4-4.2,6.4-7.1,9l-0.6-0.6c3.4-4.7,5.8-10.9,7.1-17h-6.3l-0.4-1.3h7.2v-7.5c-2.3,0.5-4.7,0.9-7,1.2l-0.2-0.7
			c4.7-1.5,10.3-4.3,13.1-6.3l4.4,3.6c-0.4,0.4-1.3,0.5-2.5,0.1c-1.2,0.4-2.7,0.9-4.2,1.3v8.3h1.3l2-2.7c0,0,2.2,2,3.6,3.3
			c-0.1,0.5-0.5,0.7-1.2,0.7H358V32.2z M385.6,50.5c0,0,2.6,2.1,4.1,3.6c-0.1,0.5-0.5,0.7-1.2,0.7h-26.7l-0.4-1.3h12.3v-7.9h-9.3
			l-0.4-1.4h9.6V38c-3,0.4-6.1,0.7-9,0.9l-0.2-0.7c6.1-1.3,13.9-3.8,17.8-5.8l4.1,3.9c-0.5,0.4-1.3,0.4-2.5,0
			c-1.8,0.4-4.1,0.9-6.6,1.3v6.7h4.3l2.2-2.8c0,0,2.5,2,4.1,3.5c-0.1,0.5-0.6,0.7-1.2,0.7h-9.4v7.9h5.9L385.6,50.5z M369.4,31.5
			c0,0.4-1.5,1.1-3,1.1h-0.5V16.5l3.7,1.6h11.9l1.8-2l3.9,2.9c-0.3,0.4-0.9,0.7-1.8,0.9v11c0,0.3-1.8,1.1-3,1.1H382v-1.9h-12.6V31.5
			z M369.4,19.4v9.4H382v-9.4H369.4z"/>
	</g>
</g>
<g>
	<path class="st3" d="M81.5,86c-1-1.1-1.2-1.4-1.3-2.3c-0.1-0.4,0-0.7,0.2-1.5c0.4-1.3,0.5-2.3,0.5-3.8c0-5.2-2.9-11.3-6.8-14.6
		c-1.1-0.9-1.8-1.4-2.4-1.5s-1.3-0.9-1.3-1.4s0.3-0.8,0.9-0.8c0.4,0,0.5-0.1,0.9-0.4c1.1-1,2.5-3.2,3.6-5.5c2-4.1,3.2-8.7,3.6-14.3
		c0.1-1.9,0.1-7.3-0.1-9.1c-0.5-4.5-1.5-8.1-3.1-11.2c-1.5-3.1-3.1-5-5.1-6.4c-1.4-0.9-2.7-1.3-4.3-1.3c-3.8,0-7.6,3.1-10.1,8.4
		c-2.2,4.5-3.6,9.8-4,15.5c-0.1,2-0.1,7.2,0.2,9.1c0.2,1.7,0.5,3.7,1,5.6c0.4,1.6,1.4,4.8,1.9,5.7c0.2,0.4,0.2,0.5,0.1,0.7
		c-0.2,0.3-0.4,0.3-0.8-0.1c-0.6-0.5-1.4-0.9-2.5-1.1c-1.3-0.3-3.9-0.4-5.4-0.2s-2.1,0.5-2.8,1.3c-0.3,0.3-0.7,0.6-0.7,0.6
		c-0.2,0-0.6-0.4-0.6-0.7c0-0.1,0.1-0.5,0.3-0.9c1.1-2.6,2-6.3,2.5-9.4c0.6-3.8,0.6-9.3,0.1-13.3c-0.6-4.4-1.9-9-3.5-12.5
		c-2.2-4.7-5.3-7.7-8.7-8.5c-1-0.3-2.5-0.2-3.5,0c-2,0.5-3.9,1.9-5.5,4c-2.3,3-4.1,7.5-4.9,12.7C19,34.4,19.2,41,20.4,46.6
		c1.1,4.9,3.3,9.7,5.9,12.7c0.7,0.9,0.8,0.9,1.5,1c0.5,0.1,0.8,0.4,0.8,0.8c0,0.4-0.5,0.9-1.3,1.3c-1.1,0.5-1.9,1.1-3,2.1
		c-2.7,2.6-4.7,6.1-5.7,9.8c-0.8,3.1-0.8,5.8,0,8.1c0.5,1.6,0.3,2.3-1,3.8c-2.7,2.9-4.2,5.8-5,9.4c-0.2,0.9-0.2,1.3-0.2,3.3
		s0,2.4,0.2,3.3c1.1,5.2,4.4,9.7,9.3,12.6c2.5,1.5,5.1,2.5,8.2,3.1c1.2,0.2,3.3,0.9,5.7,1.9c2.2,0.9,7.3,1.8,11.6,2.1
		c5.3,0.4,10.3,0.1,14.3-0.9c1.7-0.4,3.5-1,4.1-1.4c0.9-0.5,2.3-1.1,5.7-2.4c2.4-0.9,3-1.1,4.4-1.8c5.8-3,9.8-8,10.8-13.8
		c0.2-1.2,0.2-4.3,0-5.4C85.9,92.1,84.4,89.2,81.5,86L81.5,86z"/>
	<path class="st3" d="M16,78.6c0-1.5,0-2.1,0.2-3.1c1-5.5,4.2-10.9,8.3-13.8c0.4-0.3,0.8-0.6,0.8-0.7c0,0-0.3-0.4-0.6-0.8
		c-3.1-3.8-5.3-9.6-6.4-16.3c-1.2-7.1-0.7-14.5,1.3-20.8c2.2-6.8,6.1-11.3,10.5-12.3c0.9-0.2,3.1-0.1,4,0.2c1.8,0.5,3.5,1.6,5.2,3.2
		c3.5,3.5,6.1,8.8,7.5,15.1c1.1,5,1.3,10.8,0.7,15.2c-0.5,3.9-1.1,6.3-2.1,8.9C45.2,54,45,54.5,45,54.5s0.5-0.1,1.1-0.2
		c2.1-0.5,4.8-0.4,6.9,0.2c0.4,0.1,0.8,0.2,0.9,0.2c0.1,0,0-0.3-0.3-1c-1.8-4.2-2.8-11-2.6-16.3c0.4-6.9,1.7-12.5,4.1-17.2
		c2.6-4.9,5.9-8.2,9.4-9.3c1.1-0.3,2.9-0.4,4-0.2C75.3,12.2,80.3,21.5,81,34c0.2,3.3-0.1,7.4-0.8,11.1c-1.2,6.2-3.3,11.5-6.1,15.1
		c-0.3,0.4-0.6,0.7-0.6,0.8s0.3,0.3,0.7,0.6c2.1,1.6,3.8,3.5,5.3,6c3.1,5.2,4,11.3,2.4,15.5l-0.2,0.6l0.8,0.8c2.6,2.6,4.6,6,5.4,9.5
		c2.3,9-2.4,18.3-11.5,22.9c-1.3,0.7-2.2,1-3.9,1.6c-0.7,0.2-1.5,0.5-1.8,0.7s-1,0.4-1.5,0.6s-1.5,0.6-2.2,1c-0.7,0.3-1.7,0.8-2.2,1
		c-4.2,1.5-10.4,2.2-16.3,1.9c-5.5-0.3-10.8-1.3-15.3-2.7c-0.8-0.2-2-0.6-2.8-0.8c-0.8-0.2-1.7-0.5-2.2-0.7s-1.5-0.5-2.3-0.8
		c-6.3-2.2-11-6-13.6-11.2C9.5,102,9.4,96,12,90.5c1.1-2.2,2.3-4,4-5.7l0.9-0.9l-0.3-1"/>
	<path class="st4" d="M30.1,10.9c-4.4,0.9-8.3,5.5-10.5,12.3c-2,6.3-2.5,13.7-1.3,20.8c1.1,6.8,3.4,12.5,6.4,16.3
		c0.3,0.4,0.6,0.7,0.6,0.8c0,0-0.4,0.3-0.8,0.7c-4.1,3-7.3,8.3-8.3,13.8c-0.2,1-0.2,1.6-0.2,3.1c0,2.1,0.1,2.8,0.6,4.3l0.3,1
		L16,84.8c-1.7,1.7-2.9,3.5-4,5.7C9.4,96,9.5,102,12.2,107.4c2.7,5.2,7.4,9.1,13.6,11.2c0.8,0.3,1.8,0.7,2.3,0.8
		c0.4,0.2,1.4,0.5,2.2,0.7c0.8,0.2,2,0.6,2.8,0.8c4.6,1.5,9.8,2.4,15.3,2.7c6,0.4,12.2-0.4,16.3-1.9c0.5-0.2,1.5-0.6,2.2-1
		s1.7-0.8,2.2-1s1.2-0.5,1.5-0.6c0.3-0.2,1.1-0.5,1.8-0.7c1.8-0.6,2.6-0.9,3.9-1.6c9.4-4.5,14-13.8,11.7-22.8
		c-0.9-3.5-2.8-6.9-5.4-9.5l-0.8-0.8l0.2-0.6c1.6-4.2,0.6-10.3-2.4-15.5c-1.5-2.5-3.2-4.4-5.3-6c-0.4-0.3-0.7-0.6-0.7-0.6
		s0.2-0.4,0.6-0.8c2.8-3.5,5-8.8,6.1-15.1c0.7-3.7,1-7.8,0.8-11.1c-0.7-12.5-5.7-21.7-12.4-23.1c-1.1-0.2-2.9-0.1-4,0.2
		c-3.5,1-6.9,4.4-9.4,9.3C52.7,25,51.4,30.6,51,37.5c-0.3,5.2,0.8,12.1,2.6,16.3c0.3,0.7,0.4,1,0.3,1c0,0-0.4-0.1-0.9-0.2
		c-2.1-0.6-4.9-0.7-6.9-0.2c-0.6,0.1-1.1,0.2-1.1,0.2s0.1-0.5,0.4-1.1c1-2.7,1.6-5.1,2.1-8.9c0.6-4.4,0.3-10.2-0.7-15.2
		c-1.3-6.3-3.9-11.6-7.5-15.1c-1.6-1.6-3.4-2.7-5.2-3.2C33.2,10.8,31,10.7,30.1,10.9L30.1,10.9z M33.5,12.1c3.4,0.9,6.5,3.9,8.7,8.5
		c1.7,3.5,3,8.1,3.5,12.5c0.5,4,0.5,9.5-0.1,13.3c-0.5,3.1-1.4,6.7-2.5,9.4c-0.2,0.4-0.3,0.8-0.3,0.9c0,0.3,0.4,0.7,0.6,0.7
		c0.1,0,0.4-0.3,0.7-0.6c0.7-0.7,1.4-1,2.8-1.3c1.5-0.2,4.1-0.1,5.4,0.2c1.1,0.3,2,0.7,2.5,1.1c0.5,0.4,0.6,0.4,0.8,0.1
		c0.1-0.2,0.1-0.3-0.1-0.7c-0.4-0.9-1.5-4.2-1.9-5.7c-0.5-2-0.8-3.9-1-5.6c-0.2-1.9-0.3-7.2-0.2-9.1c0.4-5.7,1.8-11,4-15.5
		c2.6-5.3,6.3-8.4,10.1-8.4c1.6,0,2.9,0.4,4.3,1.3c2.1,1.4,3.6,3.3,5.1,6.4c1.6,3.2,2.5,6.8,3.1,11.2c0.2,1.7,0.3,7.2,0.1,9.1
		c-0.4,5.6-1.6,10.1-3.6,14.3c-1.1,2.3-2.6,4.5-3.6,5.5c0,0.3-0.1,0.3-0.5,0.3c-0.6,0-0.9,0.3-0.9,0.8s0.7,1.3,1.3,1.4
		c0.6,0.1,1.3,0.6,2.4,1.5C78,67,80.9,73.2,81,78.3c0,1.6-0.1,2.5-0.5,3.8c-0.3,0.8-0.3,1.1-0.2,1.5c0.1,0.8,0.3,1.1,1.3,2.3
		c2.9,3.2,4.4,6.2,5.1,10.1c0.2,1.1,0.2,4.2,0,5.4c-1.1,5.9-5,10.9-10.8,13.8c-1.4,0.7-2.1,1-4.4,1.8c-3.4,1.2-4.8,1.8-5.7,2.4
		c-0.7,0.4-2.4,1-4.1,1.4c-4,0.9-9.1,1.2-14.3,0.9c-4.3-0.3-9.4-1.2-11.6-2.1c-2.4-0.9-4.6-1.6-5.7-1.9c-3.1-0.7-5.7-1.6-8.2-3.1
		c-4.9-2.9-8.2-7.4-9.3-12.6c-0.2-0.9-0.2-1.3-0.2-3.3s0-2.4,0.2-3.3c0.8-3.6,2.3-6.5,5-9.4c1.4-1.5,1.6-2.2,1-3.8
		c-0.8-2.3-0.8-5,0-8.1c1-3.7,3-7.2,5.7-9.8c1.1-1,1.9-1.6,3-2.1c0.8-0.4,1.3-0.9,1.3-1.3c0-0.4-0.4-0.7-0.8-0.8
		c-0.6-0.1-0.7-0.2-1.5-1c-2.6-3-4.8-7.8-5.9-12.7c-1.2-5.5-1.4-12.1-0.5-17.8c0.8-5.2,2.6-9.7,4.9-12.7c1.6-2.1,3.5-3.5,5.5-4
		C31.1,11.8,32.6,11.8,33.5,12.1L33.5,12.1z"/>
	<path class="st4" d="M47.5,95.4c-0.9,0.1-1.4,0.2-2.1,0.6c-1.2,0.6-2,1.8-1.8,2.8c0.3,1.5,1.9,2.7,4.4,3c0.7,0.1,0.8,0.1,0.8,0.3
		c0.1,0.5-0.2,1.2-0.6,1.8c-0.9,1.3-3,2.3-5.4,2.7c-1.4,0.2-3.3,0.1-4.4-0.2c-1.8-0.5-2.9-1.4-3.3-2.5c-0.2-0.5-0.2-0.5-0.5-0.5
		s-0.3,0-0.3,0.4c0,0.3,0,0.6,0.3,1c0.6,1.1,1.8,2.1,3.3,2.6c3.7,1.2,8.2,0.2,10.5-2.4c0.3-0.4,0.6-0.7,0.7-0.7c0,0,0.2,0.2,0.4,0.5
		c1.5,2.3,5.3,3.8,8.7,3.5c2-0.2,3.5-0.8,4.5-1.7c1.1-0.9,1.8-2.6,1.2-2.9c-0.3-0.1-0.4,0-0.6,0.6c-0.4,1-0.9,1.5-2.1,2.1
		c-2.8,1.3-7,0.9-9.6-0.9c-1.3-0.9-1.9-1.8-1.9-3c0-0.8-0.2-0.7,1.2-1c1.9-0.4,3.2-1.7,3.1-3.1c-0.1-0.7-0.3-1.1-0.9-1.7
		c-0.9-0.8-1.8-1.2-3.4-1.5C48.6,95.3,48.5,95.3,47.5,95.4L47.5,95.4z M48.4,95.9c0.4,0.2,0.4,0.4,0.2,0.7c-0.2,0.2-0.7,0.5-0.9,0.5
		s-0.3-0.4-0.3-0.6C47.4,95.9,47.8,95.6,48.4,95.9z M46.9,96.5c0.3,0.2,0.2,0.4-0.4,0.7C45.4,97.8,45,98.3,45,99
		c0,0.4-0.2,0.7-0.5,0.7c-0.1,0-0.2-0.2-0.3-0.4C44,99,44,98.9,44.1,98.4c0.2-0.9,0.8-1.6,1.6-1.9C46.2,96.4,46.7,96.4,46.9,96.5
		L46.9,96.5z"/>
	<g>
		<path class="st4" d="M22,95.6c-0.8,0.1-1.1,0.2-2.2,0.7c-1.8,0.8-2.7,1.4-3.9,2.5c-1.1,1.2-1.8,2.8-1.8,4.1c0,1.1,0.6,2.4,1.4,3.2
			c1.3,1.4,3.1,2,5.6,2c4.6,0,8.8-2.8,9.6-6.3c0.2-0.8,0.1-2.1-0.2-2.8c-0.6-1.6-2.1-2.8-4.2-3.3C25.3,95.5,23.1,95.4,22,95.6
			L22,95.6z M25.7,96.8c1.5,0.3,3.1,1.4,3.6,2.4c0.9,2-0.1,4.4-2.6,6.1c-0.7,0.5-2.2,1.1-3.2,1.4c-0.8,0.2-1.1,0.2-2.4,0.3
			c-1.2,0-1.5,0-2.2-0.2c-1.6-0.4-2.7-1.3-3.2-2.4c-1-2,0.1-4.5,2.8-6.3c1-0.7,1.5-0.9,2.7-1.1c0.6-0.1,1.1-0.2,1.2-0.3
			C22.9,96.7,25,96.7,25.7,96.8L25.7,96.8z"/>
		<ellipse transform="matrix(0.9663 -0.2575 0.2575 0.9663 -25.4766 9.2306)" class="st5" cx="22.5" cy="101.9" rx="7.7" ry="5.2"/>
	</g>
	<g>
		<path class="st4" d="M72.4,96.7c-2.1,0.6-3.6,1.8-4.2,3.3c-0.3,0.7-0.4,2-0.2,2.8c0.8,3.5,5,6.3,9.6,6.3c2.4,0,4.2-0.7,5.6-2
			c0.8-0.8,1.4-2.1,1.4-3.2c0-1.4-0.7-2.9-1.8-4.1c-1.1-1.2-2-1.8-3.9-2.5c-1.1-0.5-1.4-0.6-2.2-0.7C75.6,96.4,73.4,96.4,72.4,96.7
			L72.4,96.7z M76.3,97.7c0.1,0,0.6,0.1,1.2,0.3c1.2,0.3,1.7,0.5,2.7,1.1c2.7,1.8,3.9,4.3,2.8,6.3c-0.5,1.1-1.7,1.9-3.2,2.4
			c-0.6,0.2-1,0.2-2.2,0.2s-1.6,0-2.4-0.3c-1-0.3-2.4-0.9-3.2-1.4c-2.5-1.7-3.6-4.2-2.6-6.1c0.5-1.1,2-2.1,3.6-2.4
			C73.7,97.7,75.9,97.6,76.3,97.7L76.3,97.7z"/>
		
			<ellipse transform="matrix(0.2575 -0.9663 0.9663 0.2575 -42.7057 150.1223)" class="st5" cx="76.3" cy="102.8" rx="5.2" ry="7.7"/>
	</g>
	<g>
		<path class="st6" d="M66.1,17.7c-1.1,0.1-2.3,1.6-2.9,2.3c-0.4,0.5-1,1.3-1.7,3.2c-0.8,2.1-1.2,3.9-1.5,5.4
			c-0.6,3.2-0.7,5.8-0.7,6.8c-0.2,6.2-0.3,10.3,1.5,15.2c1.1,2.8,2.3,6.2,4.3,6.3c3.3,0.3,6.5-8,7.3-9.9c1-2.5,2.3-6.2,2.2-11.2
			C74.5,26.4,69.1,17.3,66.1,17.7L66.1,17.7z"/>
		<path class="st7" d="M65.3,17c-3.6,1-6.4,7.4-7.1,16.2c-0.1,1.7-0.1,5.9,0,7.6c0.4,5,1.4,9.4,2.9,12.6c0.7,1.4,1.1,2.1,2,3.1
			c0.4,0.4,0.7,0.9,0.8,1c0.2,0.3,0.6,0.5,1.1,0.5c0.7,0,3-1.7,4.3-3.2c3.1-3.6,4.9-8.3,5.7-14.6c0.2-1.3,0.2-6.1,0-7.5
			c-0.8-6.6-3.1-11.8-6.7-14.8C67.1,16.9,66.5,16.7,65.3,17L65.3,17z M66.9,17.9c0.6,0.3,1.2,1,1.9,1.8c2.6,3.1,4.3,7.3,5,12.6
			c0.2,1.7,0.2,6.7,0,8.5c-0.6,4.5-2,8.5-4.1,11.6c-1.1,1.7-2.8,3.4-4.2,4.2l-0.4,0.2l-0.6-0.6c-5.2-5.2-7-22-3.4-32.3
			c0.1-0.4,0.6-1.9,1.6-3.5c0,0,1.1-1.6,2.9-2.6C65.8,17.8,66.2,17.4,66.9,17.9L66.9,17.9z"/>
	</g>
	<g>
		<path class="st6" d="M32.6,17.9c1.1,0.1,2.3,1.6,2.9,2.3c0.4,0.5,1,1.3,1.7,3.2c0.8,2.1,1.2,3.9,1.5,5.4c0.6,3.2,0.7,5.8,0.7,6.8
			c0.2,6.2,0.3,10.3-1.5,15.2c-1.1,2.8-2.3,6.2-4.3,6.3c-3.3,0.3-6.5-8-7.3-9.9c-1-2.5-2.3-6.2-2.2-11.2
			C24.1,26.6,29.5,17.5,32.6,17.9L32.6,17.9z"/>
		<path class="st7" d="M30.3,18.2c-3.5,3-5.9,8.2-6.7,14.8c-0.2,1.4-0.2,6.2,0,7.5c0.8,6.3,2.6,11,5.7,14.6c1.3,1.5,3.6,3.2,4.3,3.2
			c0.5,0,0.9-0.2,1.1-0.5c0.1-0.1,0.4-0.6,0.8-1c0.8-1,1.3-1.8,2-3.1c1.5-3.2,2.5-7.6,2.9-12.6c0.1-1.7,0.1-5.9,0-7.6
			c-0.7-8.8-3.5-15.2-7.1-16.2C32.1,17,31.5,17.1,30.3,18.2L30.3,18.2z M33,18.1c1.8,0.9,2.9,2.6,2.9,2.6c1,1.6,1.5,3.1,1.6,3.5
			c3.6,10.4,1.8,27.2-3.4,32.3l-0.6,0.6l-0.4-0.2c-1.4-0.8-3-2.5-4.2-4.2c-2.1-3.1-3.5-7.1-4.1-11.6c-0.2-1.8-0.2-6.8,0-8.5
			c0.8-5.3,2.4-9.5,5-12.6c0.7-0.8,1.4-1.5,1.9-1.8C32.5,17.7,32.8,18,33,18.1L33,18.1z"/>
	</g>
	<g>
		<line class="st8" x1="28.6" y1="80.6" x2="41" y2="85.2"/>
		<line class="st8" x1="29" y1="92.1" x2="40.5" y2="85.5"/>
	</g>
	<g>
		<line class="st8" x1="70" y1="80.7" x2="57.6" y2="85.4"/>
		<line class="st8" x1="69.5" y1="92.3" x2="58.1" y2="85.7"/>
	</g>
</g>
</svg>
