<?xml version="1.0" encoding="utf-8"?>
<!-- Generator: Adobe Illustrator 27.4.1, SVG Export Plug-In . SVG Version: 6.00 Build 0)  -->
<svg version="1.1" id="圖層_1" xmlns="http://www.w3.org/2000/svg" xmlns:xlink="http://www.w3.org/1999/xlink" x="0px" y="0px"
	 viewBox="0 0 262 145.9" style="enable-background:new 0 0 262 145.9;" xml:space="preserve">
<style type="text/css">
	.st0{fill:#F8F9FA;}
	.st1{fill:#231815;}
</style>
<g id="XMLID_15_">
</g>
<g id="XMLID_12_">
</g>
<g>
	<path class="st0" d="M261.9,145.9H0V0h261.9c0.1,0,0.1,0,0.1,0.1v145.7C262,145.9,262,145.9,261.9,145.9z"/>
	<g id="XMLID_5_">
		<path id="XMLID_6_" class="st1" d="M65.9,88.3v9.2c0,4.7-1.6,8.6-4.9,11.9c-3.3,3.3-7.4,4.9-12.1,4.9s-8.6-1.6-12.1-4.9
			c-3.3-3.3-4.9-7.4-4.9-12.1s1.6-8.6,4.9-11.9s7.2-4.9,11.9-4.9h9.2V64.6h-9.2c-4.5,0-8.6-1.6-11.9-4.9c-3.3-3.3-4.9-7.4-4.9-12.1
			s1.6-8.6,4.9-11.9c3.3-3.3,7.4-4.9,12.1-4.9s8.8,1.6,12.1,4.9c3.3,3.3,4.9,7.2,4.9,11.9v9.2h15.9v-9.2c0-4.7,1.6-8.6,4.9-11.9
			s7.4-4.9,12.1-4.9s8.8,1.6,12.1,4.9c3.3,3.3,4.9,7.4,4.9,11.9c0,4.7-1.6,8.6-4.9,12.1c-3.3,3.3-7.2,4.9-11.9,4.9h-9.2v15.9H99
			c4.7,0,8.6,1.6,11.9,4.9s4.9,7.4,4.9,11.9c0,4.7-1.6,8.8-4.9,12.1c-3.3,3.3-7.4,4.9-12.1,4.9s-8.8-1.6-12.1-4.9
			c-3.3-3.3-4.9-7.2-4.9-11.9v-9.2H65.9z M57.9,56.4v-9c0-2.5-0.8-4.5-2.7-6.3c-1.8-1.8-3.9-2.7-6.3-2.7s-4.5,0.8-6.3,2.7
			c-1.8,1.8-2.7,3.9-2.7,6.3c0,2.5,0.8,4.5,2.7,6.3c1.8,1.8,3.9,2.7,6.3,2.7H57.9L57.9,56.4z M57.9,88.3h-9c-2.5,0-4.5,0.8-6.3,2.7
			s-2.7,3.9-2.7,6.3c0,2.5,0.8,4.7,2.7,6.3s3.9,2.7,6.3,2.7s4.5-0.8,6.3-2.7c1.8-1.8,2.7-3.9,2.7-6.3V88.3L57.9,88.3z M65.9,80.4
			h15.9v-16H65.9V80.4z M89.8,56.4h9c2.5,0,4.5-0.8,6.3-2.7c1.8-1.8,2.7-3.9,2.7-6.3c0-2.5-0.8-4.5-2.7-6.3
			c-1.8-1.8-3.9-2.7-6.3-2.7c-2.5,0-4.7,0.8-6.3,2.7c-1.8,1.8-2.7,3.9-2.7,6.3V56.4L89.8,56.4z M89.8,88.3v9c0,2.5,0.8,4.5,2.7,6.3
			s3.9,2.7,6.3,2.7s4.5-0.8,6.3-2.7c1.8-1.8,2.7-3.9,2.7-6.3s-0.8-4.5-2.7-6.3c-1.8-1.8-3.9-2.7-6.3-2.7H89.8z"/>
	</g>
	<g id="XMLID_2_">
		<path id="XMLID_00000025426427235009590730000014856293208484108184_" class="st1" d="M188.8,78.8h0.2c1.4-2,3.5-4.5,5.1-6.5
			l15.8-18.4c0.9-1,2.1-1.6,3.5-1.6l0,0c4,0,6.1,4.8,3.3,7.7l-12.6,13.4c-1.5,1.6-1.7,4.1-0.3,5.9l17.8,24c2.2,3,0.1,7.3-3.7,7.3
			h-1.4c-1.5,0-2.9-0.7-3.7-1.9l-15.4-21.5c-1.7-2.4-5.2-2.6-7.1-0.4l-0.3,0.4c-0.8,0.8-1.2,1.9-1.2,3.1v15.6c0,2.5-2,4.6-4.6,4.6
			H183c-2.5,0-4.6-2-4.6-4.6V29.4c0-2.5,2-4.6,4.6-4.6h1.3c2.5,0,4.6,2,4.6,4.6v49.4H188.8z"/>
	</g>
</g>
</svg>
